SplineFontDB: 3.2
FontName: AcariSans-SemiBoldItalic
FullName: Acari Sans SemiBold Italic
FamilyName: Acari Sans SemiBold
Weight: Demi
Copyright: Copyright (c)2015, HK Grotesk Latin by Alfredo Marco Pradil (ammpradil@gmail.com) and HK Grotesk Cyrillic by Stefan Peev (http://www.contextbg.net/). HK Grotesk is a trademark of Alfredo Marco Pradil. Copyright (c) 2018-2023 The Acari Sans Project Authors (https://github.com/cssobral2013/acari-sans)
Version: 1.063; ttfautohint (v1.8.3)
ItalicAngle: -13
UnderlinePosition: -250
UnderlineWidth: 100
Ascent: 1600
Descent: 400
InvalidEm: 0
sfntRevision: 0x00011020
LayerCount: 2
Layer: 0 1 "Back" 1
Layer: 1 1 "Fore" 0
XUID: [1021 467 -1401554168 10394183]
StyleMap: 0x0021
FSType: 0
OS2Version: 4
OS2_WeightWidthSlopeOnly: 0
OS2_UseTypoMetrics: 0
CreationTime: 1480856841
ModificationTime: 1686782601
PfmFamily: 81
TTFWeight: 600
TTFWidth: 5
LineGap: 26
VLineGap: 0
Panose: 0 0 0 0 0 0 0 0 0 0
OS2TypoAscent: 1900
OS2TypoAOffset: 0
OS2TypoDescent: -487
OS2TypoDOffset: 0
OS2TypoLinegap: 26
OS2WinAscent: 1913
OS2WinAOffset: 0
OS2WinDescent: 500
OS2WinDOffset: 0
HheadAscent: 1900
HheadAOffset: 0
HheadDescent: -487
HheadDOffset: 0
OS2SubXSize: 1331
OS2SubYSize: 1228
OS2SubXOff: 0
OS2SubYOff: 153
OS2SupXSize: 1331
OS2SupYSize: 1228
OS2SupXOff: 0
OS2SupYOff: 716
OS2StrikeYSize: 82
OS2StrikeYPos: 599
OS2CapHeight: 1413
OS2XHeight: 1039
OS2Vendor: 'AMSP'
OS2CodePages: 20000197.00000000
OS2UnicodeRanges: 2000020f.10000001.00000000.00000000
Lookup: 1 0 0 "'aalt' Access All Alternates lookup 0" { "'aalt' Access All Alternates lookup 0 subtable"  } ['aalt' ('DFLT' <'dflt' > 'cyrl' <'BGR ' 'RUS ' 'SRB ' 'dflt' > 'latn' <'AZE ' 'CRT ' 'KAZ ' 'MOL ' 'ROM ' 'TAT ' 'TRK ' 'dflt' > ) ]
Lookup: 3 0 0 "'aalt' Access All Alternates lookup 1" { "'aalt' Access All Alternates lookup 1 subtable"  } ['aalt' ('DFLT' <'dflt' > 'cyrl' <'BGR ' 'RUS ' 'SRB ' 'dflt' > 'latn' <'AZE ' 'CRT ' 'KAZ ' 'MOL ' 'ROM ' 'TAT ' 'TRK ' 'dflt' > ) ]

StartChar: .notdef
Encoding: 65536 -1 0
Width: 728
GlyphClass: 1
Flags: W
LayerCount: 2
Fore
SplineSet
596 0 m 1,0,-1
 66 0 l 1,1,-1
 66 1333 l 1,2,-1
 596 1333 l 1,3,-1
 596 0 l 1,0,-1
530 66 m 1,4,-1
 530 1267 l 1,5,-1
 132 1267 l 1,6,-1
 132 66 l 1,7,-1
 530 66 l 1,4,-1
EndSplineSet
EndChar

StartChar: exclam
Encoding: 33 33 4
Width: 635
GlyphClass: 1
Flags: W
LayerCount: 2
Fore
SplineSet
379 413 m 1,0,-1
 217 413 l 1,1,-1
 423 1434 l 1,2,-1
 643 1434 l 1,3,-1
 379 413 l 1,0,-1
325 0 m 1,4,-1
 81 0 l 1,5,-1
 136 242 l 1,6,-1
 380 242 l 1,7,-1
 325 0 l 1,4,-1
EndSplineSet
EndChar

StartChar: quotedbl
Encoding: 34 34 5
Width: 945
GlyphClass: 1
Flags: W
LayerCount: 2
Fore
SplineSet
489 903 m 1,0,-1
 307 903 l 1,1,-1
 425 1413 l 1,2,-1
 608 1413 l 1,3,-1
 489 903 l 1,0,-1
823 903 m 1,4,-1
 640 903 l 1,5,-1
 758 1413 l 1,6,-1
 942 1413 l 1,7,-1
 823 903 l 1,4,-1
EndSplineSet
EndChar

StartChar: numbersign
Encoding: 35 35 6
Width: 1380
GlyphClass: 1
Flags: W
LayerCount: 2
Fore
SplineSet
726 0 m 1,0,-1
 555 0 l 1,1,-1
 748 436 l 1,2,-1
 478 436 l 1,3,-1
 287 0 l 1,4,-1
 117 0 l 1,5,-1
 305 421 l 1,6,-1
 70 421 l 1,7,-1
 106 575 l 1,8,-1
 372 575 l 1,9,-1
 496 859 l 1,10,-1
 252 859 l 1,11,-1
 290 1017 l 1,12,-1
 565 1017 l 1,13,-1
 756 1434 l 1,14,-1
 928 1434 l 1,15,-1
 732 997 l 1,16,-1
 1000 997 l 1,17,-1
 1194 1434 l 1,18,-1
 1366 1434 l 1,19,-1
 1175 1012 l 1,20,-1
 1410 1012 l 1,21,-1
 1373 859 l 1,22,-1
 1107 859 l 1,23,-1
 983 575 l 1,24,-1
 1227 575 l 1,25,-1
 1189 417 l 1,26,-1
 914 417 l 1,27,-1
 726 0 l 1,0,-1
813 575 m 1,28,-1
 936 859 l 1,29,-1
 667 859 l 1,30,-1
 543 575 l 1,31,-1
 813 575 l 1,28,-1
EndSplineSet
EndChar

StartChar: dollar
Encoding: 36 36 7
Width: 1114
GlyphClass: 1
Flags: W
LayerCount: 2
Fore
SplineSet
476 -246 m 1,0,-1
 304 -246 l 1,1,-1
 365 -11 l 1,2,3
 274 4 274 4 198.5 49.5 c 128,-1,4
 123 95 123 95 77 171 c 128,-1,5
 31 247 31 247 31 355 c 2,6,-1
 32 389 l 1,7,-1
 253 420 l 1,8,-1
 251 384 l 2,9,10
 251 315 251 315 282.5 271 c 128,-1,11
 314 227 314 227 369 206.5 c 128,-1,12
 424 186 424 186 495 186 c 0,13,14
 613 186 613 186 697.5 242 c 128,-1,15
 782 298 782 298 812 417 c 0,16,17
 816 434 816 434 816 453 c 0,18,19
 816 501 816 501 786 536.5 c 128,-1,20
 756 572 756 572 710.5 597.5 c 128,-1,21
 665 623 665 623 587 659 c 0,22,23
 484 706 484 706 421 746.5 c 128,-1,24
 358 787 358 787 317 845 c 0,25,26
 273 906 273 906 273 993 c 0,27,28
 273 1049 273 1049 294.5 1116.5 c 128,-1,29
 316 1184 316 1184 364 1245 c 0,30,31
 426 1321 426 1321 509 1367 c 128,-1,32
 592 1413 592 1413 685 1430 c 1,33,-1
 744 1659 l 1,34,-1
 916 1659 l 1,35,-1
 857 1430 l 1,36,37
 959 1416 959 1416 1034.5 1358 c 128,-1,38
 1110 1300 1110 1300 1146 1194 c 1,39,-1
 951 1104 l 1,40,41
 928 1176 928 1176 874.5 1207.5 c 128,-1,42
 821 1239 821 1239 751 1239 c 0,43,44
 667 1239 667 1239 594.5 1188 c 128,-1,45
 522 1137 522 1137 501 1052 c 0,46,47
 497 1037 497 1037 497 1020 c 0,48,49
 497 976 497 976 525.5 943 c 128,-1,50
 554 910 554 910 597 886.5 c 128,-1,51
 640 863 640 863 716 828 c 0,52,53
 821 782 821 782 885.5 740.5 c 128,-1,54
 950 699 950 699 993 640 c 0,55,56
 1038 575 1038 575 1038 482 c 0,57,58
 1038 413 1038 413 1011 333.5 c 128,-1,59
 984 254 984 254 929 186 c 0,60,61
 853 95 853 95 751 44.5 c 128,-1,62
 649 -6 649 -6 535 -17 c 1,63,-1
 476 -246 l 1,0,-1
EndSplineSet
EndChar

StartChar: percent
Encoding: 37 37 8
Width: 1554
GlyphClass: 1
Flags: W
LayerCount: 2
Fore
SplineSet
359 -13 m 1,0,-1
 167 -13 l 1,1,-1
 1281 1439 l 1,2,-1
 1473 1439 l 1,3,-1
 359 -13 l 1,0,-1
445 779 m 0,4,5
 329 779 329 779 278 848 c 128,-1,6
 227 917 227 917 227 1021 c 0,7,8
 227 1080 227 1080 244.5 1147.5 c 128,-1,9
 262 1215 262 1215 301 1277.5 c 128,-1,10
 340 1340 340 1340 404 1387 c 0,11,12
 472 1436 472 1436 565 1436 c 0,13,14
 674 1436 674 1436 727.5 1365.5 c 128,-1,15
 781 1295 781 1295 781 1188 c 0,16,17
 781 1119 781 1119 757.5 1047 c 128,-1,18
 734 975 734 975 690 914.5 c 128,-1,19
 646 854 646 854 584 816.5 c 128,-1,20
 522 779 522 779 445 779 c 0,4,5
450 929 m 0,21,22
 500 929 500 929 540 973 c 128,-1,23
 580 1017 580 1017 603.5 1077.5 c 128,-1,24
 627 1138 627 1138 627 1188 c 0,25,26
 627 1230 627 1230 609.5 1257 c 128,-1,27
 592 1284 592 1284 554 1284 c 0,28,29
 494 1284 494 1284 448.5 1226.5 c 128,-1,30
 403 1169 403 1169 383 1087 c 0,31,32
 376 1050 376 1050 376 1026 c 0,33,34
 376 984 376 984 393 956.5 c 128,-1,35
 410 929 410 929 450 929 c 0,21,22
1091 -6 m 0,36,37
 976 -6 976 -6 924.5 64.5 c 128,-1,38
 873 135 873 135 873 239 c 0,39,40
 873 300 873 300 893.5 372 c 128,-1,41
 914 444 914 444 956 508.5 c 128,-1,42
 998 573 998 573 1062 614.5 c 128,-1,43
 1126 656 1126 656 1213 656 c 0,44,45
 1322 656 1322 656 1375 586.5 c 128,-1,46
 1428 517 1428 517 1428 411 c 0,47,48
 1428 354 1428 354 1409.5 284.5 c 128,-1,49
 1391 215 1391 215 1350 150.5 c 128,-1,50
 1309 86 1309 86 1242 40 c 128,-1,51
 1175 -6 1175 -6 1091 -6 c 0,36,37
1099 143 m 0,52,53
 1150 143 1150 143 1189.5 189 c 128,-1,54
 1229 235 1229 235 1251.5 297.5 c 128,-1,55
 1274 360 1274 360 1274 408 c 0,56,57
 1274 450 1274 450 1257 477.5 c 128,-1,58
 1240 505 1240 505 1203 505 c 0,59,60
 1142 505 1142 505 1096 446.5 c 128,-1,61
 1050 388 1050 388 1031 304 c 0,62,63
 1023 269 1023 269 1023 240 c 0,64,65
 1023 198 1023 198 1040.5 170.5 c 128,-1,66
 1058 143 1058 143 1099 143 c 0,52,53
EndSplineSet
EndChar

StartChar: ampersand
Encoding: 38 38 9
Width: 1375
GlyphClass: 1
Flags: W
LayerCount: 2
Fore
SplineSet
1032 -69 m 1,0,-1
 895 145 l 1,1,2
 792 65 792 65 674 21.5 c 128,-1,3
 556 -22 556 -22 430 -22 c 0,4,5
 323 -22 323 -22 236.5 9 c 128,-1,6
 150 40 150 40 98.5 102.5 c 128,-1,7
 47 165 47 165 47 259 c 0,8,9
 47 343 47 343 81.5 417 c 128,-1,10
 116 491 116 491 171.5 551 c 128,-1,11
 227 611 227 611 292 656 c 0,12,13
 376 714 376 714 492 776 c 1,14,15
 448 836 448 836 419 904.5 c 128,-1,16
 390 973 390 973 390 1051 c 0,17,18
 390 1140 390 1140 430 1210.5 c 128,-1,19
 470 1281 470 1281 535 1330 c 128,-1,20
 600 1379 600 1379 678 1404.5 c 128,-1,21
 756 1430 756 1430 831 1430 c 0,22,23
 924 1430 924 1430 991 1394 c 128,-1,24
 1058 1358 1058 1358 1094.5 1297 c 128,-1,25
 1131 1236 1131 1236 1131 1161 c 0,26,27
 1131 1089 1131 1089 1098.5 1017 c 128,-1,28
 1066 945 1066 945 1008 888 c 0,29,30
 920 802 920 802 779 720 c 1,31,-1
 943 469 l 1,32,33
 1013 579 1013 579 1046 704 c 1,34,-1
 1242 664 l 1,35,36
 1182 459 1182 459 1052 300 c 1,37,-1
 1207 63 l 1,38,-1
 1032 -69 l 1,0,-1
659 864 m 1,39,40
 783 929 783 929 852.5 990.5 c 128,-1,41
 922 1052 922 1052 938 1124 c 0,42,43
 942 1146 942 1146 942 1156 c 0,44,45
 942 1200 942 1200 911.5 1230 c 128,-1,46
 881 1260 881 1260 820 1260 c 0,47,48
 748 1260 748 1260 680.5 1214.5 c 128,-1,49
 613 1169 613 1169 590 1082 c 0,50,51
 587 1070 587 1070 587 1056 c 0,52,53
 587 982 587 982 659 864 c 1,39,40
444 162 m 0,54,55
 636 162 636 162 797 299 c 1,56,-1
 593 618 l 1,57,58
 445 539 445 539 359 465 c 128,-1,59
 273 391 273 391 251 299 c 0,60,61
 248 284 248 284 248 270 c 0,62,63
 248 212 248 212 303 187 c 128,-1,64
 358 162 358 162 444 162 c 0,54,55
EndSplineSet
EndChar

StartChar: quotesingle
Encoding: 39 39 10
Width: 611
GlyphClass: 1
Flags: W
LayerCount: 2
Fore
SplineSet
497 932 m 1,0,-1
 314 932 l 1,1,-1
 431 1442 l 1,2,-1
 614 1442 l 1,3,-1
 497 932 l 1,0,-1
EndSplineSet
EndChar

StartChar: parenleft
Encoding: 40 40 11
Width: 571
GlyphClass: 1
Flags: W
LayerCount: 2
Fore
SplineSet
397 -89 m 1,0,-1
 223 -89 l 1,1,2
 170 -14 170 -14 145.5 105 c 128,-1,3
 121 224 121 224 121 361 c 0,4,5
 121 587 121 587 180.5 806.5 c 128,-1,6
 240 1026 240 1026 343 1208.5 c 128,-1,7
 446 1391 446 1391 579 1512 c 1,8,-1
 776 1512 l 1,9,10
 437 1183 437 1183 322 682 c 0,11,12
 281 503 281 503 281 352 c 0,13,14
 281 124 281 124 397 -89 c 1,0,-1
EndSplineSet
EndChar

StartChar: parenright
Encoding: 41 41 12
Width: 572
GlyphClass: 1
Flags: W
LayerCount: 2
Fore
SplineSet
83 -103 m 1,0,-1
 -106 -103 l 1,1,2
 75 79 75 79 181.5 281.5 c 128,-1,3
 288 484 288 484 342 723 c 0,4,5
 382 897 382 897 382 1051 c 0,6,7
 382 1298 382 1298 269 1498 c 1,8,-1
 448 1498 l 1,9,10
 553 1338 553 1338 553 1071 c 0,11,12
 553 936 553 936 520 762 c 0,13,14
 486 578 486 578 409 394 c 0,15,16
 346 244 346 244 262.5 112 c 128,-1,17
 179 -20 179 -20 83 -103 c 1,0,-1
EndSplineSet
EndChar

StartChar: asterisk
Encoding: 42 42 13
Width: 894
GlyphClass: 1
Flags: W
LayerCount: 2
Fore
SplineSet
644 839 m 1,0,-1
 579 1055 l 1,1,-1
 415 839 l 1,2,-1
 294 930 l 1,3,-1
 494 1102 l 1,4,-1
 269 1136 l 1,5,-1
 355 1286 l 1,6,-1
 553 1199 l 1,7,-1
 574 1413 l 1,8,-1
 743 1413 l 1,9,-1
 664 1199 l 1,10,-1
 897 1286 l 1,11,-1
 916 1136 l 1,12,-1
 673 1102 l 1,13,-1
 798 930 l 1,14,-1
 644 839 l 1,0,-1
EndSplineSet
EndChar

StartChar: plus
Encoding: 43 43 14
Width: 1260
GlyphClass: 1
Flags: W
LayerCount: 2
Fore
SplineSet
711 106 m 1,0,-1
 549 106 l 1,1,-1
 549 544 l 1,2,-1
 92 544 l 1,3,-1
 92 706 l 1,4,-1
 549 706 l 1,5,-1
 549 1143 l 1,6,-1
 711 1143 l 1,7,-1
 711 706 l 1,8,-1
 1168 706 l 1,9,-1
 1168 544 l 1,10,-1
 711 544 l 1,11,-1
 711 106 l 1,0,-1
EndSplineSet
EndChar

StartChar: comma
Encoding: 44 44 15
Width: 600
GlyphClass: 1
Flags: W
LayerCount: 2
Fore
SplineSet
76 -225 m 1,0,-1
 -67 -225 l 1,1,-1
 147 264 l 1,2,-1
 404 264 l 1,3,-1
 76 -225 l 1,0,-1
EndSplineSet
EndChar

StartChar: hyphen
Encoding: 45 45 16
Width: 858
GlyphClass: 1
Flags: W
LayerCount: 2
Fore
SplineSet
724 560 m 1,0,-1
 162 560 l 1,1,-1
 199 722 l 1,2,-1
 760 722 l 1,3,-1
 724 560 l 1,0,-1
EndSplineSet
EndChar

StartChar: period
Encoding: 46 46 17
Width: 600
GlyphClass: 1
Flags: W
LayerCount: 2
Fore
SplineSet
306 0 m 1,0,-1
 75 0 l 1,1,-1
 130 242 l 1,2,-1
 360 242 l 1,3,-1
 306 0 l 1,0,-1
EndSplineSet
EndChar

StartChar: slash
Encoding: 47 47 18
Width: 935
GlyphClass: 1
Flags: W
LayerCount: 2
Fore
SplineSet
-29 -430 m 1,0,-1
 -238 -430 l 1,1,-1
 984 1516 l 1,2,-1
 1192 1516 l 1,3,-1
 -29 -430 l 1,0,-1
EndSplineSet
EndChar

StartChar: zero
Encoding: 48 48 19
Width: 1200
GlyphClass: 1
Flags: W
LayerCount: 2
Fore
SplineSet
488 -20 m 0,0,1
 380 -20 380 -20 304 20 c 128,-1,2
 228 60 228 60 181 129 c 128,-1,3
 134 198 134 198 112.5 290.5 c 128,-1,4
 91 383 91 383 91 488 c 0,5,6
 91 603 91 603 117.5 725 c 128,-1,7
 144 847 144 847 193 960 c 128,-1,8
 242 1073 242 1073 311 1169 c 128,-1,9
 380 1265 380 1265 466 1328 c 0,10,11
 534 1379 534 1379 613 1407.5 c 128,-1,12
 692 1436 692 1436 782 1436 c 0,13,14
 852 1436 852 1436 908.5 1416.5 c 128,-1,15
 965 1397 965 1397 1009 1361 c 128,-1,16
 1053 1325 1053 1325 1085 1274.5 c 128,-1,17
 1117 1224 1117 1224 1139 1163 c 0,18,19
 1158 1112 1158 1112 1165.5 1059.5 c 128,-1,20
 1173 1007 1173 1007 1175 950 c 2,21,-1
 1175 906 l 2,22,23
 1173 801 1173 801 1149 692 c 128,-1,24
 1125 583 1125 583 1082.5 480 c 128,-1,25
 1040 377 1040 377 979 286 c 128,-1,26
 918 195 918 195 842.5 127 c 128,-1,27
 767 59 767 59 677.5 19.5 c 128,-1,28
 588 -20 588 -20 488 -20 c 0,0,1
523 192 m 0,29,30
 577 192 577 192 623.5 215.5 c 128,-1,31
 670 239 670 239 708 275 c 128,-1,32
 746 311 746 311 776.5 356 c 128,-1,33
 807 401 807 401 829 443 c 128,-1,34
 851 485 851 485 865.5 520.5 c 128,-1,35
 880 556 880 556 886 574 c 0,36,37
 917 659 917 659 934 747 c 128,-1,38
 951 835 951 835 951 917 c 0,39,40
 951 966 951 966 943 1019.5 c 128,-1,41
 935 1073 935 1073 912.5 1117 c 128,-1,42
 890 1161 890 1161 849 1190 c 128,-1,43
 808 1219 808 1219 742 1219 c 0,44,45
 673 1219 673 1219 617 1187.5 c 128,-1,46
 561 1156 561 1156 516 1105.5 c 128,-1,47
 471 1055 471 1055 436.5 991.5 c 128,-1,48
 402 928 402 928 377.5 864 c 128,-1,49
 353 800 353 800 338 742.5 c 128,-1,50
 323 685 323 685 317 645 c 0,51,52
 309 605 309 605 306 568 c 128,-1,53
 303 531 303 531 303 498 c 0,54,55
 303 445 303 445 312 390.5 c 128,-1,56
 321 336 321 336 345 292 c 128,-1,57
 369 248 369 248 412 220 c 128,-1,58
 455 192 455 192 523 192 c 0,29,30
EndSplineSet
Substitution2: "'subs' Subscript lookup 20 subtable" uni2080
Substitution2: "'sinf' Scientific Inferiors lookup 19 subtable" uni2080
Substitution2: "'sups' Superscript lookup 17 subtable" uni2070
AlternateSubs2: "'aalt' Access All Alternates lookup 1 subtable" uni2070 uni2080
EndChar

StartChar: one
Encoding: 49 49 20
Width: 1200
GlyphClass: 1
Flags: W
LayerCount: 2
Fore
SplineSet
682 0 m 1,0,-1
 462 0 l 1,1,-1
 702 1046 l 1,2,-1
 382 1046 l 1,3,-1
 422 1219 l 1,4,-1
 588 1219 l 2,5,6
 661 1219 661 1219 717.5 1264 c 128,-1,7
 774 1309 774 1309 792 1387 c 2,8,-1
 798 1413 l 1,9,-1
 1008 1413 l 1,10,-1
 682 0 l 1,0,-1
EndSplineSet
Substitution2: "'subs' Subscript lookup 20 subtable" uni2081
Substitution2: "'sinf' Scientific Inferiors lookup 19 subtable" uni2081
Substitution2: "'sups' Superscript lookup 17 subtable" onesuperior
AlternateSubs2: "'aalt' Access All Alternates lookup 1 subtable" onesuperior uni2081
EndChar

StartChar: two
Encoding: 50 50 21
Width: 1200
GlyphClass: 1
Flags: W
LayerCount: 2
Fore
SplineSet
1003 0 m 1,0,-1
 -39 0 l 1,1,-1
 -1 188 l 1,2,3
 149 275 149 275 299 370.5 c 128,-1,4
 449 466 449 466 593 587 c 1,5,6
 887 803 887 803 943 1027 c 0,7,8
 951 1062 951 1062 951 1090 c 0,9,10
 951 1153 951 1153 912 1192 c 128,-1,11
 873 1231 873 1231 789 1231 c 0,12,13
 699 1231 699 1231 630.5 1185.5 c 128,-1,14
 562 1140 562 1140 515.5 1066.5 c 128,-1,15
 469 993 469 993 445 906 c 1,16,-1
 233 940 l 1,17,18
 264 1072 264 1072 342.5 1184 c 128,-1,19
 421 1296 421 1296 547 1367 c 0,20,21
 667 1432 667 1432 809 1432 c 0,22,23
 926 1432 926 1432 1008 1389.5 c 128,-1,24
 1090 1347 1090 1347 1132.5 1273 c 128,-1,25
 1175 1199 1175 1199 1175 1103 c 0,26,27
 1175 911 1175 911 1012 714 c 0,28,29
 895 572 895 572 709 416 c 1,30,31
 537 288 537 288 367 194 c 1,32,-1
 1049 200 l 1,33,-1
 1003 0 l 1,0,-1
EndSplineSet
Substitution2: "'subs' Subscript lookup 20 subtable" uni2082
Substitution2: "'sinf' Scientific Inferiors lookup 19 subtable" uni2082
Substitution2: "'sups' Superscript lookup 17 subtable" twosuperior
AlternateSubs2: "'aalt' Access All Alternates lookup 1 subtable" twosuperior uni2082
EndChar

StartChar: three
Encoding: 51 51 22
Width: 1200
GlyphClass: 1
Flags: W
LayerCount: 2
Fore
SplineSet
480 -20 m 0,0,1
 364 -20 364 -20 265 18.5 c 128,-1,2
 166 57 166 57 106 139 c 0,3,4
 50 217 50 217 50 328 c 0,5,6
 50 379 50 379 64 441 c 1,7,-1
 274 437 l 1,8,9
 266 400 266 400 266 374 c 0,10,11
 266 310 266 310 297 267.5 c 128,-1,12
 328 225 328 225 381.5 204 c 128,-1,13
 435 183 435 183 502 183 c 0,14,15
 623 183 623 183 730 249 c 128,-1,16
 837 315 837 315 870 441 c 0,17,18
 878 468 878 468 878 494 c 0,19,20
 878 548 878 548 848 582.5 c 128,-1,21
 818 617 818 617 766 633.5 c 128,-1,22
 714 650 714 650 648 650 c 2,23,-1
 512 650 l 1,24,-1
 558 849 l 1,25,-1
 680 849 l 2,26,27
 770 849 770 849 840.5 901.5 c 128,-1,28
 911 954 911 954 936 1055 c 0,29,30
 940 1078 940 1078 940 1095 c 0,31,32
 940 1161 940 1161 890.5 1194.5 c 128,-1,33
 841 1228 841 1228 764 1228 c 0,34,35
 656 1228 656 1228 576.5 1164.5 c 128,-1,36
 497 1101 497 1101 472 1004 c 1,37,-1
 270 1038 l 1,38,39
 321 1231 321 1231 466.5 1332.5 c 128,-1,40
 612 1434 612 1434 786 1434 c 0,41,42
 888 1434 888 1434 971.5 1398 c 128,-1,43
 1055 1362 1055 1362 1104.5 1293 c 128,-1,44
 1154 1224 1154 1224 1154 1125 c 0,45,46
 1154 998 1154 998 1075 883 c 0,47,48
 1025 810 1025 810 942 756 c 1,49,50
 1017 717 1017 717 1050.5 650 c 128,-1,51
 1084 583 1084 583 1084 500 c 0,52,53
 1084 403 1084 403 1047.5 315.5 c 128,-1,54
 1011 228 1011 228 954 167 c 0,55,56
 861 70 861 70 737 25 c 128,-1,57
 613 -20 613 -20 480 -20 c 0,0,1
EndSplineSet
Substitution2: "'subs' Subscript lookup 20 subtable" uni2083
Substitution2: "'sinf' Scientific Inferiors lookup 19 subtable" uni2083
Substitution2: "'sups' Superscript lookup 17 subtable" threesuperior
AlternateSubs2: "'aalt' Access All Alternates lookup 1 subtable" threesuperior uni2083
EndChar

StartChar: four
Encoding: 52 52 23
Width: 1200
GlyphClass: 1
Flags: W
LayerCount: 2
Fore
SplineSet
782 0 m 1,0,-1
 560 0 l 1,1,-1
 636 346 l 1,2,-1
 4 346 l 1,3,-1
 31 474 l 1,4,-1
 903 1413 l 1,5,-1
 1097 1413 l 1,6,-1
 904 550 l 1,7,-1
 1122 550 l 1,8,-1
 1077 346 l 1,9,-1
 859 346 l 1,10,-1
 782 0 l 1,0,-1
681 550 m 1,11,-1
 795 1054 l 1,12,-1
 332 550 l 1,13,-1
 681 550 l 1,11,-1
EndSplineSet
Substitution2: "'subs' Subscript lookup 20 subtable" uni2084
Substitution2: "'sinf' Scientific Inferiors lookup 19 subtable" uni2084
Substitution2: "'sups' Superscript lookup 17 subtable" uni2074
AlternateSubs2: "'aalt' Access All Alternates lookup 1 subtable" uni2074 uni2084
EndChar

StartChar: five
Encoding: 53 53 24
Width: 1200
GlyphClass: 1
Flags: W
LayerCount: 2
Fore
SplineSet
484 -20 m 0,0,1
 358 -20 358 -20 265 37.5 c 128,-1,2
 172 95 172 95 123 193 c 0,3,4
 76 287 76 287 76 407 c 1,5,-1
 288 449 l 1,6,-1
 288 430 l 2,7,8
 288 179 288 179 502 179 c 0,9,10
 588 179 588 179 664.5 224.5 c 128,-1,11
 741 270 741 270 793.5 343 c 128,-1,12
 846 416 846 416 866 497 c 0,13,14
 874 534 874 534 874 565 c 0,15,16
 874 651 874 651 821 705 c 128,-1,17
 768 759 768 759 666 759 c 0,18,19
 588 759 588 759 507 718 c 128,-1,20
 426 677 426 677 370 611 c 1,21,-1
 180 679 l 1,22,-1
 482 1413 l 1,23,-1
 1242 1413 l 1,24,-1
 1194 1209 l 1,25,-1
 612 1209 l 1,26,-1
 474 891 l 1,27,28
 581 956 581 956 718 956 c 0,29,30
 832 956 832 956 918 906 c 128,-1,31
 1004 856 1004 856 1051 768.5 c 128,-1,32
 1098 681 1098 681 1098 573 c 0,33,34
 1098 382 1098 382 963 220 c 0,35,36
 872 110 872 110 745 45 c 128,-1,37
 618 -20 618 -20 484 -20 c 0,0,1
EndSplineSet
Substitution2: "'subs' Subscript lookup 20 subtable" uni2085
Substitution2: "'sinf' Scientific Inferiors lookup 19 subtable" uni2085
Substitution2: "'sups' Superscript lookup 17 subtable" uni2075
AlternateSubs2: "'aalt' Access All Alternates lookup 1 subtable" uni2075 uni2085
EndChar

StartChar: six
Encoding: 54 54 25
Width: 1200
GlyphClass: 1
Flags: W
LayerCount: 2
Fore
SplineSet
494 -20 m 0,0,1
 368 -20 368 -20 276 32.5 c 128,-1,2
 184 85 184 85 134 173 c 128,-1,3
 84 261 84 261 84 370 c 0,4,5
 84 556 84 556 220 719 c 2,6,-1
 804 1413 l 1,7,-1
 1062 1413 l 1,8,-1
 634 930 l 1,9,10
 666 933 666 933 688 933 c 0,11,12
 816 933 816 933 909 883.5 c 128,-1,13
 1002 834 1002 834 1052 748.5 c 128,-1,14
 1102 663 1102 663 1102 557 c 0,15,16
 1102 399 1102 399 1006.5 261.5 c 128,-1,17
 911 124 911 124 758 45 c 0,18,19
 632 -20 632 -20 494 -20 c 0,0,1
518 187 m 0,20,21
 602 187 602 187 678 229 c 128,-1,22
 754 271 754 271 808 339 c 128,-1,23
 862 407 862 407 880 486 c 0,24,25
 886 514 886 514 886 543 c 0,26,27
 886 633 886 633 825 688.5 c 128,-1,28
 764 744 764 744 670 744 c 0,29,30
 583 744 583 744 507.5 702 c 128,-1,31
 432 660 432 660 379 592.5 c 128,-1,32
 326 525 326 525 306 446 c 0,33,34
 300 413 300 413 300 390 c 0,35,36
 300 303 300 303 360 245 c 128,-1,37
 420 187 420 187 518 187 c 0,20,21
EndSplineSet
Substitution2: "'subs' Subscript lookup 20 subtable" uni2086
Substitution2: "'sinf' Scientific Inferiors lookup 19 subtable" uni2086
Substitution2: "'sups' Superscript lookup 17 subtable" uni2076
AlternateSubs2: "'aalt' Access All Alternates lookup 1 subtable" uni2076 uni2086
EndChar

StartChar: seven
Encoding: 55 55 26
Width: 1200
GlyphClass: 1
Flags: W
LayerCount: 2
Fore
SplineSet
364 0 m 1,0,-1
 112 0 l 1,1,-1
 992 1211 l 1,2,-1
 268 1211 l 1,3,-1
 314 1413 l 1,4,-1
 1308 1413 l 1,5,-1
 1284 1300 l 1,6,-1
 364 0 l 1,0,-1
EndSplineSet
Substitution2: "'subs' Subscript lookup 20 subtable" uni2087
Substitution2: "'sinf' Scientific Inferiors lookup 19 subtable" uni2087
Substitution2: "'sups' Superscript lookup 17 subtable" uni2077
AlternateSubs2: "'aalt' Access All Alternates lookup 1 subtable" uni2077 uni2087
EndChar

StartChar: eight
Encoding: 56 56 27
Width: 1200
GlyphClass: 1
Flags: W
LayerCount: 2
Fore
SplineSet
492 -20 m 0,0,1
 375 -20 375 -20 277 17 c 128,-1,2
 179 54 179 54 120.5 128.5 c 128,-1,3
 62 203 62 203 62 317 c 0,4,5
 62 395 62 395 89.5 474.5 c 128,-1,6
 117 554 117 554 177 625 c 0,7,8
 254 715 254 715 374 774 c 1,9,10
 286 858 286 858 286 984 c 0,11,12
 286 1079 286 1079 325 1159 c 128,-1,13
 364 1239 364 1239 430.5 1298 c 128,-1,14
 497 1357 497 1357 583 1392 c 0,15,16
 690 1434 690 1434 804 1434 c 0,17,18
 904 1434 904 1434 987 1399 c 128,-1,19
 1070 1364 1070 1364 1120 1295.5 c 128,-1,20
 1170 1227 1170 1227 1170 1127 c 0,21,22
 1170 1075 1170 1075 1151 1009.5 c 128,-1,23
 1132 944 1132 944 1086 880 c 0,24,25
 1032 806 1032 806 948 753 c 1,26,27
 1017 713 1017 713 1055.5 646.5 c 128,-1,28
 1094 580 1094 580 1094 489 c 0,29,30
 1094 436 1094 436 1080 383 c 0,31,32
 1048 247 1048 247 959.5 157.5 c 128,-1,33
 871 68 871 68 748 24 c 128,-1,34
 625 -20 625 -20 492 -20 c 0,0,1
672 843 m 0,35,36
 769 843 769 843 847 900 c 128,-1,37
 925 957 925 957 952 1055 c 0,38,39
 956 1075 956 1075 956 1099 c 0,40,41
 956 1166 956 1166 907.5 1199 c 128,-1,42
 859 1232 859 1232 784 1232 c 0,43,44
 693 1232 693 1232 612 1177.5 c 128,-1,45
 531 1123 531 1123 506 1028 c 0,46,47
 500 1003 500 1003 500 981 c 0,48,49
 500 918 500 918 544 880.5 c 128,-1,50
 588 843 588 843 672 843 c 0,35,36
512 177 m 0,51,52
 630 177 630 177 734 243 c 128,-1,53
 838 309 838 309 870 439 c 0,54,55
 878 466 878 466 878 493 c 0,56,57
 878 576 878 576 812.5 617 c 128,-1,58
 747 658 747 658 648 658 c 0,59,60
 521 658 521 658 420 591 c 128,-1,61
 319 524 319 524 288 399 c 0,62,63
 282 371 282 371 282 347 c 0,64,65
 282 290 282 290 312.5 252 c 128,-1,66
 343 214 343 214 395 195.5 c 128,-1,67
 447 177 447 177 512 177 c 0,51,52
EndSplineSet
Substitution2: "'subs' Subscript lookup 20 subtable" uni2088
Substitution2: "'sinf' Scientific Inferiors lookup 19 subtable" uni2088
Substitution2: "'sups' Superscript lookup 17 subtable" uni2078
AlternateSubs2: "'aalt' Access All Alternates lookup 1 subtable" uni2078 uni2088
EndChar

StartChar: nine
Encoding: 57 57 28
Width: 1200
GlyphClass: 1
Flags: W
LayerCount: 2
Fore
SplineSet
492 0 m 1,0,-1
 234 0 l 1,1,-1
 660 483 l 1,2,3
 628 480 628 480 604 480 c 0,4,5
 478 480 478 480 386 529 c 128,-1,6
 294 578 294 578 244 663 c 128,-1,7
 194 748 194 748 194 856 c 0,8,9
 194 1039 194 1039 322 1197 c 0,10,11
 407 1301 407 1301 532 1367.5 c 128,-1,12
 657 1434 657 1434 804 1434 c 0,13,14
 929 1434 929 1434 1020.5 1381 c 128,-1,15
 1112 1328 1112 1328 1162 1239.5 c 128,-1,16
 1212 1151 1212 1151 1212 1043 c 0,17,18
 1212 856 1212 856 1076 694 c 2,19,-1
 492 0 l 1,0,-1
624 669 m 0,20,21
 712 669 712 669 788.5 711.5 c 128,-1,22
 865 754 865 754 917.5 821 c 128,-1,23
 970 888 970 888 988 967 c 0,24,25
 996 995 996 995 996 1024 c 0,26,27
 996 1114 996 1114 934.5 1170 c 128,-1,28
 873 1226 873 1226 778 1226 c 0,29,30
 656 1226 656 1226 551 1139 c 128,-1,31
 446 1052 446 1052 414 927 c 0,32,33
 408 894 408 894 408 871 c 0,34,35
 408 784 408 784 467.5 726.5 c 128,-1,36
 527 669 527 669 624 669 c 0,20,21
EndSplineSet
Substitution2: "'subs' Subscript lookup 20 subtable" uni2089
Substitution2: "'sinf' Scientific Inferiors lookup 19 subtable" uni2089
Substitution2: "'sups' Superscript lookup 17 subtable" uni2079
AlternateSubs2: "'aalt' Access All Alternates lookup 1 subtable" uni2079 uni2089
EndChar

StartChar: colon
Encoding: 58 58 29
Width: 600
GlyphClass: 1
Flags: W
LayerCount: 2
Fore
SplineSet
476 712 m 1,0,-1
 232 712 l 1,1,-1
 289 954 l 1,2,-1
 533 954 l 1,3,-1
 476 712 l 1,0,-1
314 0 m 1,4,-1
 69 0 l 1,5,-1
 124 242 l 1,6,-1
 368 242 l 1,7,-1
 314 0 l 1,4,-1
EndSplineSet
EndChar

StartChar: semicolon
Encoding: 59 59 30
Width: 600
GlyphClass: 1
Flags: W
LayerCount: 2
Fore
SplineSet
460 712 m 1,0,-1
 216 712 l 1,1,-1
 272 954 l 1,2,-1
 516 954 l 1,3,-1
 460 712 l 1,0,-1
76 -225 m 1,4,-1
 -67 -225 l 1,5,-1
 147 264 l 1,6,-1
 404 264 l 1,7,-1
 76 -225 l 1,4,-1
EndSplineSet
EndChar

StartChar: less
Encoding: 60 60 31
Width: 1232
GlyphClass: 1
Flags: W
LayerCount: 2
Fore
SplineSet
1023 157 m 1,0,-1
 65 674 l 1,1,-1
 1023 1190 l 1,2,-1
 1115 1031 l 1,3,-1
 415 674 l 1,4,-1
 1115 316 l 1,5,-1
 1023 157 l 1,0,-1
EndSplineSet
EndChar

StartChar: equal
Encoding: 61 61 32
Width: 1268
GlyphClass: 1
Flags: W
LayerCount: 2
Fore
SplineSet
1038 759 m 1,0,-1
 230 759 l 1,1,-1
 230 944 l 1,2,-1
 1038 944 l 1,3,-1
 1038 759 l 1,0,-1
1038 400 m 1,4,-1
 230 400 l 1,5,-1
 230 585 l 1,6,-1
 1038 585 l 1,7,-1
 1038 400 l 1,4,-1
EndSplineSet
EndChar

StartChar: greater
Encoding: 62 62 33
Width: 1232
GlyphClass: 1
Flags: W
LayerCount: 2
Fore
SplineSet
209 157 m 1,0,-1
 118 316 l 1,1,-1
 818 674 l 1,2,-1
 118 1031 l 1,3,-1
 209 1190 l 1,4,-1
 1167 674 l 1,5,-1
 209 157 l 1,0,-1
EndSplineSet
EndChar

StartChar: question
Encoding: 63 63 34
Width: 1008
GlyphClass: 1
Flags: W
LayerCount: 2
Fore
SplineSet
567 409 m 1,0,-1
 382 409 l 1,1,-1
 424 590 l 2,2,3
 459 733 459 733 556 796 c 0,4,5
 605 827 605 827 669 860 c 0,6,7
 724 888 724 888 760 910 c 0,8,9
 841 961 841 961 868 1069 c 0,10,11
 875 1102 875 1102 875 1120 c 0,12,13
 875 1190 875 1190 822 1221.5 c 128,-1,14
 769 1253 769 1253 682 1253 c 0,15,16
 556 1253 556 1253 476.5 1185 c 128,-1,17
 397 1117 397 1117 371 1004 c 1,18,-1
 183 1022 l 1,19,20
 233 1223 233 1223 371.5 1328.5 c 128,-1,21
 510 1434 510 1434 690 1434 c 0,22,23
 792 1434 792 1434 876.5 1400 c 128,-1,24
 961 1366 961 1366 1011.5 1297.5 c 128,-1,25
 1062 1229 1062 1229 1062 1127 c 0,26,27
 1062 1060 1062 1060 1040.5 989.5 c 128,-1,28
 1019 919 1019 919 982 867 c 0,29,30
 938 808 938 808 885 771 c 128,-1,31
 832 734 832 734 754 697 c 0,32,33
 684 664 684 664 648.5 637 c 128,-1,34
 613 610 613 610 604 569 c 2,35,-1
 567 409 l 1,0,-1
506 0 m 1,36,-1
 262 0 l 1,37,-1
 317 242 l 1,38,-1
 561 242 l 1,39,-1
 506 0 l 1,36,-1
EndSplineSet
EndChar

StartChar: at
Encoding: 64 64 35
Width: 2024
GlyphClass: 1
Flags: W
LayerCount: 2
Fore
SplineSet
820 -348 m 0,0,1
 617 -348 617 -348 451 -272 c 128,-1,2
 285 -196 285 -196 186 -39 c 0,3,4
 93 111 93 111 93 314 c 0,5,6
 93 478 93 478 154 656 c 128,-1,7
 215 834 215 834 338 992 c 0,8,9
 439 1122 439 1122 575 1221 c 128,-1,10
 711 1320 711 1320 875 1376 c 128,-1,11
 1039 1432 1039 1432 1224 1432 c 0,12,13
 1402 1432 1402 1432 1537.5 1379.5 c 128,-1,14
 1673 1327 1673 1327 1764.5 1234 c 128,-1,15
 1856 1141 1856 1141 1902.5 1016.5 c 128,-1,16
 1949 892 1949 892 1949 748 c 0,17,18
 1949 620 1949 620 1912.5 488 c 128,-1,19
 1876 356 1876 356 1805 237 c 0,20,21
 1724 100 1724 100 1603.5 15.5 c 128,-1,22
 1483 -69 1483 -69 1336 -69 c 0,23,24
 1218 -69 1218 -69 1160.5 -16.5 c 128,-1,25
 1103 36 1103 36 1103 119 c 0,26,27
 1103 147 1103 147 1111 182 c 1,28,29
 1032 113 1032 113 949 81.5 c 128,-1,30
 866 50 866 50 788 50 c 0,31,32
 658 50 658 50 592 128.5 c 128,-1,33
 526 207 526 207 526 334 c 0,34,35
 526 416 526 416 558 519 c 128,-1,36
 590 622 590 622 662 735 c 0,37,38
 750 872 750 872 877 963 c 128,-1,39
 1004 1054 1004 1054 1144 1054 c 0,40,41
 1245 1054 1245 1054 1304.5 1007.5 c 128,-1,42
 1364 961 1364 961 1379 892 c 1,43,-1
 1428 1005 l 1,44,-1
 1610 995 l 1,45,46
 1574 909 1574 909 1496 745 c 0,47,48
 1273 290 1273 290 1273 166 c 0,49,50
 1273 137 1273 137 1290 126.5 c 128,-1,51
 1307 116 1307 116 1348 116 c 0,52,53
 1453 116 1453 116 1537 184 c 0,54,55
 1656 286 1656 286 1716 445 c 128,-1,56
 1776 604 1776 604 1776 741 c 0,57,58
 1776 883 1776 883 1714 1001.5 c 128,-1,59
 1652 1120 1652 1120 1518 1193 c 0,60,61
 1390 1260 1390 1260 1209 1260 c 0,62,63
 1036 1260 1036 1260 884 1200.5 c 128,-1,64
 732 1141 732 1141 611 1036.5 c 128,-1,65
 490 932 490 932 407 795.5 c 128,-1,66
 324 659 324 659 287 503 c 0,67,68
 266 412 266 412 266 332 c 0,69,70
 266 171 266 171 340.5 60 c 128,-1,71
 415 -51 415 -51 544.5 -108.5 c 128,-1,72
 674 -166 674 -166 838 -166 c 0,73,74
 904 -166 904 -166 965.5 -155.5 c 128,-1,75
 1027 -145 1027 -145 1096 -124 c 1,76,-1
 1134 -299 l 1,77,78
 984 -348 984 -348 820 -348 c 0,0,1
821 230 m 0,79,80
 904 230 904 230 978.5 272 c 128,-1,81
 1053 314 1053 314 1113 382.5 c 128,-1,82
 1173 451 1173 451 1214.5 531.5 c 128,-1,83
 1256 612 1256 612 1274 691 c 0,84,85
 1283 730 1283 730 1283 761 c 0,86,87
 1283 873 1283 873 1156 873 c 0,88,89
 1071 873 1071 873 996.5 831 c 128,-1,90
 922 789 922 789 862 721.5 c 128,-1,91
 802 654 802 654 760.5 574.5 c 128,-1,92
 719 495 719 495 700 417 c 0,93,94
 691 380 691 380 691 348 c 0,95,96
 691 230 691 230 821 230 c 0,79,80
EndSplineSet
EndChar

StartChar: A
Encoding: 65 65 36
Width: 1332
GlyphClass: 1
Flags: W
LayerCount: 2
Fore
SplineSet
1187 0 m 1,0,-1
 949 0 l 1,1,-1
 910 307 l 1,2,-1
 339 307 l 1,3,-1
 159 0 l 1,4,-1
 -89 0 l 1,5,-1
 792 1413 l 1,6,-1
 961 1413 l 1,7,-1
 1187 0 l 1,0,-1
880 502 m 1,8,-1
 807 1084 l 1,9,-1
 460 502 l 1,10,-1
 880 502 l 1,8,-1
EndSplineSet
Substitution2: "Single Substitution lookup 3 subtable" ordfeminine
Substitution2: "Single Substitution lookup 2 subtable" ordfeminine
Position2: "'cpsp' Capital Spacing lookup 0 per glyph data 0" dx=5 dy=0 dh=10 dv=0
EndChar

StartChar: B
Encoding: 66 66 37
Width: 1266
GlyphClass: 1
Flags: W
LayerCount: 2
Fore
SplineSet
607 0 m 2,0,-1
 78 0 l 1,1,-1
 403 1413 l 1,2,-1
 856 1413 l 2,3,4
 955 1413 955 1413 1042 1383.5 c 128,-1,5
 1129 1354 1129 1354 1183 1289.5 c 128,-1,6
 1237 1225 1237 1225 1237 1120 c 0,7,8
 1237 1058 1237 1058 1215 989 c 128,-1,9
 1193 920 1193 920 1141 858 c 0,10,11
 1078 785 1078 785 995 744 c 1,12,13
 1065 713 1065 713 1110.5 641.5 c 128,-1,14
 1156 570 1156 570 1156 472 c 0,15,16
 1156 423 1156 423 1145 379 c 0,17,18
 1115 252 1115 252 1033.5 168 c 128,-1,19
 952 84 952 84 839.5 42 c 128,-1,20
 727 0 727 0 607 0 c 2,0,-1
738 827 m 2,21,22
 837 827 837 827 914.5 880 c 128,-1,23
 992 933 992 933 1018 1046 c 0,24,25
 1023 1071 1023 1071 1023 1088 c 0,26,27
 1023 1211 1023 1211 825 1211 c 2,28,-1
 580 1211 l 1,29,-1
 492 827 l 1,30,-1
 738 827 l 2,21,22
648 212 m 2,31,32
 751 212 751 212 830.5 266.5 c 128,-1,33
 910 321 910 321 940 442 c 0,34,35
 946 466 946 466 946 488 c 0,36,37
 946 560 946 560 892 596 c 128,-1,38
 838 632 838 632 751 632 c 2,39,-1
 446 632 l 1,40,-1
 350 212 l 1,41,-1
 648 212 l 2,31,32
EndSplineSet
Position2: "'cpsp' Capital Spacing lookup 0 per glyph data 0" dx=5 dy=0 dh=10 dv=0
EndChar

StartChar: C
Encoding: 67 67 38
Width: 1431
GlyphClass: 1
Flags: W
LayerCount: 2
Fore
SplineSet
658 -20 m 0,0,1
 476 -20 476 -20 357.5 47 c 128,-1,2
 239 114 239 114 181 232.5 c 128,-1,3
 123 351 123 351 123 504 c 0,4,5
 123 650 123 650 170 802.5 c 128,-1,6
 217 955 217 955 304 1084 c 0,7,8
 413 1245 413 1245 582 1340.5 c 128,-1,9
 751 1436 751 1436 967 1436 c 0,10,11
 1179 1436 1179 1436 1319 1332 c 128,-1,12
 1459 1228 1459 1228 1489 1030 c 1,13,-1
 1269 965 l 1,14,15
 1260 1105 1260 1105 1172.5 1172 c 128,-1,16
 1085 1239 1085 1239 942 1239 c 0,17,18
 718 1239 718 1239 562 1078 c 0,19,20
 420 931 420 931 365 697 c 0,21,22
 343 601 343 601 343 522 c 0,23,24
 343 368 343 368 425.5 279.5 c 128,-1,25
 508 191 508 191 681 191 c 0,26,27
 836 191 836 191 952.5 262.5 c 128,-1,28
 1069 334 1069 334 1154 473 c 1,29,-1
 1342 369 l 1,30,31
 1210 170 1210 170 1032 75 c 128,-1,32
 854 -20 854 -20 658 -20 c 0,0,1
EndSplineSet
Position2: "'cpsp' Capital Spacing lookup 0 per glyph data 0" dx=5 dy=0 dh=10 dv=0
EndChar

StartChar: D
Encoding: 68 68 39
Width: 1410
GlyphClass: 1
Flags: W
LayerCount: 2
Fore
SplineSet
476 0 m 2,0,-1
 78 0 l 1,1,-1
 403 1413 l 1,2,-1
 792 1413 l 2,3,4
 995 1413 995 1413 1126.5 1351.5 c 128,-1,5
 1258 1290 1258 1290 1321.5 1176.5 c 128,-1,6
 1385 1063 1385 1063 1385 908 c 0,7,8
 1385 804 1385 804 1356 676 c 0,9,10
 1277 347 1277 347 1049.5 173.5 c 128,-1,11
 822 0 822 0 476 0 c 2,0,-1
486 206 m 2,12,13
 737 206 737 206 909 332 c 128,-1,14
 1081 458 1081 458 1143 727 c 0,15,16
 1166 828 1166 828 1166 904 c 0,17,18
 1166 1065 1166 1065 1063.5 1136.5 c 128,-1,19
 961 1208 961 1208 753 1208 c 2,20,-1
 581 1208 l 1,21,-1
 349 206 l 1,22,-1
 486 206 l 2,12,13
EndSplineSet
Position2: "'cpsp' Capital Spacing lookup 0 per glyph data 0" dx=5 dy=0 dh=10 dv=0
EndChar

StartChar: E
Encoding: 69 69 40
Width: 1245
GlyphClass: 1
Flags: W
LayerCount: 2
Fore
SplineSet
1010 0 m 1,0,-1
 78 0 l 1,1,-1
 403 1413 l 1,2,-1
 1336 1413 l 1,3,-1
 1289 1210 l 1,4,-1
 581 1210 l 1,5,-1
 487 808 l 1,6,-1
 1132 808 l 1,7,-1
 1085 606 l 1,8,-1
 441 606 l 1,9,-1
 350 210 l 1,10,-1
 1058 210 l 1,11,-1
 1010 0 l 1,0,-1
EndSplineSet
Position2: "'cpsp' Capital Spacing lookup 0 per glyph data 0" dx=5 dy=0 dh=10 dv=0
EndChar

StartChar: F
Encoding: 70 70 41
Width: 1225
GlyphClass: 1
Flags: W
LayerCount: 2
Fore
SplineSet
302 0 m 1,0,-1
 78 0 l 1,1,-1
 403 1413 l 1,2,-1
 1375 1413 l 1,3,-1
 1329 1210 l 1,4,-1
 581 1210 l 1,5,-1
 487 808 l 1,6,-1
 1147 808 l 1,7,-1
 1100 606 l 1,8,-1
 441 606 l 1,9,-1
 302 0 l 1,0,-1
EndSplineSet
Position2: "'cpsp' Capital Spacing lookup 0 per glyph data 0" dx=5 dy=0 dh=10 dv=0
EndChar

StartChar: G
Encoding: 71 71 42
Width: 1526
GlyphClass: 1
Flags: W
LayerCount: 2
Fore
SplineSet
657 -20 m 0,0,1
 475 -20 475 -20 356 47 c 128,-1,2
 237 114 237 114 179 232.5 c 128,-1,3
 121 351 121 351 121 504 c 0,4,5
 121 650 121 650 168 802 c 128,-1,6
 215 954 215 954 302 1084 c 0,7,8
 411 1244 411 1244 580 1340 c 128,-1,9
 749 1436 749 1436 965 1436 c 0,10,11
 1183 1436 1183 1436 1314.5 1327.5 c 128,-1,12
 1446 1219 1446 1219 1486 1030 c 1,13,-1
 1274 964 l 1,14,15
 1252 1107 1252 1107 1164.5 1172 c 128,-1,16
 1077 1237 1077 1237 943 1237 c 0,17,18
 789 1237 789 1237 671 1163.5 c 128,-1,19
 553 1090 553 1090 475 968.5 c 128,-1,20
 397 847 397 847 363 697 c 0,21,22
 341 600 341 600 341 521 c 0,23,24
 341 365 341 365 423.5 273.5 c 128,-1,25
 506 182 506 182 678 182 c 0,26,27
 839 182 839 182 984 286.5 c 128,-1,28
 1129 391 1129 391 1193 578 c 1,29,-1
 869 569 l 1,30,-1
 911 749 l 1,31,-1
 1448 749 l 1,32,-1
 1276 0 l 1,33,-1
 1097 0 l 1,34,-1
 1132 208 l 1,35,36
 1056 106 1056 106 933 43 c 128,-1,37
 810 -20 810 -20 657 -20 c 0,0,1
EndSplineSet
Position2: "'cpsp' Capital Spacing lookup 0 per glyph data 0" dx=5 dy=0 dh=10 dv=0
EndChar

StartChar: H
Encoding: 72 72 43
Width: 1482
GlyphClass: 1
Flags: W
LayerCount: 2
Fore
SplineSet
1175 0 m 1,0,-1
 950 0 l 1,1,-1
 1089 606 l 1,2,-1
 441 606 l 1,3,-1
 302 0 l 1,4,-1
 78 0 l 1,5,-1
 403 1413 l 1,6,-1
 628 1413 l 1,7,-1
 487 808 l 1,8,-1
 1136 808 l 1,9,-1
 1276 1413 l 1,10,-1
 1500 1413 l 1,11,-1
 1175 0 l 1,0,-1
EndSplineSet
Position2: "'cpsp' Capital Spacing lookup 0 per glyph data 0" dx=5 dy=0 dh=10 dv=0
EndChar

StartChar: I
Encoding: 73 73 44
Width: 609
GlyphClass: 1
Flags: W
LayerCount: 2
Fore
SplineSet
302 0 m 1,0,-1
 78 0 l 1,1,-1
 403 1413 l 1,2,-1
 628 1413 l 1,3,-1
 302 0 l 1,0,-1
EndSplineSet
Position2: "'cpsp' Capital Spacing lookup 0 per glyph data 0" dx=5 dy=0 dh=10 dv=0
EndChar

StartChar: J
Encoding: 74 74 45
Width: 1135
GlyphClass: 1
Flags: W
LayerCount: 2
Fore
SplineSet
399 -20 m 0,0,1
 274 -20 274 -20 191 29 c 128,-1,2
 108 78 108 78 66 162 c 128,-1,3
 24 246 24 246 24 350 c 0,4,5
 24 395 24 395 31 436 c 1,6,-1
 251 443 l 1,7,8
 245 406 245 406 245 372 c 0,9,10
 245 289 245 289 286 237 c 128,-1,11
 327 185 327 185 422 185 c 0,12,13
 564 185 564 185 637.5 267 c 128,-1,14
 711 349 711 349 748 508 c 2,15,-1
 957 1413 l 1,16,-1
 1181 1413 l 1,17,-1
 969 498 l 2,18,19
 913 255 913 255 774 117.5 c 128,-1,20
 635 -20 635 -20 399 -20 c 0,0,1
EndSplineSet
Position2: "'cpsp' Capital Spacing lookup 0 per glyph data 0" dx=5 dy=0 dh=10 dv=0
EndChar

StartChar: K
Encoding: 75 75 46
Width: 1481
GlyphClass: 1
Flags: W
LayerCount: 2
Fore
SplineSet
1331 0 m 1,0,-1
 1062 0 l 1,1,-1
 773 693 l 1,2,-1
 390 374 l 1,3,-1
 302 0 l 1,4,-1
 78 0 l 1,5,-1
 403 1413 l 1,6,-1
 628 1413 l 1,7,-1
 449 647 l 1,8,-1
 1343 1413 l 1,9,-1
 1645 1413 l 1,10,-1
 955 841 l 1,11,-1
 1331 0 l 1,0,-1
EndSplineSet
Position2: "'cpsp' Capital Spacing lookup 0 per glyph data 0" dx=5 dy=0 dh=10 dv=0
EndChar

StartChar: L
Encoding: 76 76 47
Width: 1057
GlyphClass: 1
Flags: W
LayerCount: 2
Fore
SplineSet
906 0 m 1,0,-1
 78 0 l 1,1,-1
 403 1413 l 1,2,-1
 628 1413 l 1,3,-1
 350 210 l 1,4,-1
 954 210 l 1,5,-1
 906 0 l 1,0,-1
EndSplineSet
Position2: "'cpsp' Capital Spacing lookup 0 per glyph data 0" dx=5 dy=0 dh=10 dv=0
EndChar

StartChar: M
Encoding: 77 77 48
Width: 1789
GlyphClass: 1
Flags: W
LayerCount: 2
Fore
SplineSet
1482 0 m 1,0,-1
 1265 0 l 1,1,-1
 1527 1125 l 1,2,-1
 920 123 l 1,3,-1
 697 123 l 1,4,-1
 557 1125 l 1,5,-1
 295 0 l 1,6,-1
 78 0 l 1,7,-1
 403 1413 l 1,8,-1
 717 1413 l 1,9,-1
 860 367 l 1,10,-1
 1489 1413 l 1,11,-1
 1807 1413 l 1,12,-1
 1482 0 l 1,0,-1
EndSplineSet
Position2: "'cpsp' Capital Spacing lookup 0 per glyph data 0" dx=5 dy=0 dh=10 dv=0
EndChar

StartChar: N
Encoding: 78 78 49
Width: 1445
GlyphClass: 1
Flags: W
LayerCount: 2
Fore
SplineSet
1138 0 m 1,0,-1
 894 0 l 1,1,-1
 543 1066 l 1,2,-1
 295 0 l 1,3,-1
 78 0 l 1,4,-1
 403 1413 l 1,5,-1
 644 1413 l 1,6,-1
 998 349 l 1,7,-1
 1247 1413 l 1,8,-1
 1463 1413 l 1,9,-1
 1138 0 l 1,0,-1
EndSplineSet
Position2: "'cpsp' Capital Spacing lookup 0 per glyph data 0" dx=5 dy=0 dh=10 dv=0
EndChar

StartChar: O
Encoding: 79 79 50
Width: 1527
GlyphClass: 1
Flags: W
LayerCount: 2
Fore
SplineSet
656 -20 m 0,0,1
 473 -20 473 -20 355 48 c 128,-1,2
 237 116 237 116 179.5 234.5 c 128,-1,3
 122 353 122 353 122 505 c 0,4,5
 122 648 122 648 168.5 800 c 128,-1,6
 215 952 215 952 303 1083 c 0,7,8
 412 1243 412 1243 581 1338.5 c 128,-1,9
 750 1434 750 1434 966 1434 c 0,10,11
 1149 1434 1149 1434 1267.5 1365.5 c 128,-1,12
 1386 1297 1386 1297 1443.5 1178.5 c 128,-1,13
 1501 1060 1501 1060 1501 908 c 0,14,15
 1501 776 1501 776 1456.5 623 c 128,-1,16
 1412 470 1412 470 1320 332 c 0,17,18
 1211 171 1211 171 1041.5 75.5 c 128,-1,19
 872 -20 872 -20 656 -20 c 0,0,1
676 180 m 0,20,21
 833 180 833 180 949 254 c 128,-1,22
 1065 328 1065 328 1140.5 451.5 c 128,-1,23
 1216 575 1216 575 1251 727 c 0,24,25
 1273 823 1273 823 1273 903 c 0,26,27
 1273 1054 1273 1054 1193.5 1143.5 c 128,-1,28
 1114 1233 1114 1233 944 1233 c 0,29,30
 791 1233 791 1233 674 1159 c 0,31,32
 554 1081 554 1081 480 958 c 128,-1,33
 406 835 406 835 373 687 c 0,34,35
 351 591 351 591 351 510 c 0,36,37
 351 359 351 359 429.5 269.5 c 128,-1,38
 508 180 508 180 676 180 c 0,20,21
EndSplineSet
Substitution2: "Single Substitution lookup 3 subtable" ordmasculine
Substitution2: "Single Substitution lookup 2 subtable" ordmasculine
Position2: "'cpsp' Capital Spacing lookup 0 per glyph data 0" dx=5 dy=0 dh=10 dv=0
EndChar

StartChar: P
Encoding: 80 80 51
Width: 1164
GlyphClass: 1
Flags: W
LayerCount: 2
Fore
SplineSet
301 0 m 1,0,-1
 78 0 l 1,1,-1
 403 1413 l 1,2,-1
 825 1413 l 2,3,4
 942 1413 942 1413 1033.5 1377 c 128,-1,5
 1125 1341 1125 1341 1177.5 1269.5 c 128,-1,6
 1230 1198 1230 1198 1230 1091 c 0,7,8
 1230 1008 1230 1008 1199 924.5 c 128,-1,9
 1168 841 1168 841 1110 776 c 0,10,11
 1025 686 1025 686 906 644 c 128,-1,12
 787 602 787 602 651 602 c 2,13,-1
 439 602 l 1,14,-1
 301 0 l 1,0,-1
686 809 m 2,15,16
 824 809 824 809 902.5 865.5 c 128,-1,17
 981 922 981 922 1004 1024 c 0,18,19
 1010 1050 1010 1050 1010 1072 c 0,20,21
 1010 1206 1010 1206 790 1206 c 2,22,-1
 578 1206 l 1,23,-1
 486 809 l 1,24,-1
 686 809 l 2,15,16
EndSplineSet
Position2: "'cpsp' Capital Spacing lookup 0 per glyph data 0" dx=5 dy=0 dh=10 dv=0
EndChar

StartChar: Q
Encoding: 81 81 52
Width: 1567
GlyphClass: 1
Flags: W
LayerCount: 2
Fore
SplineSet
1206 -112 m 1,0,-1
 1053 84 l 1,1,2
 883 -20 883 -20 656 -20 c 0,3,4
 473 -20 473 -20 355 48 c 128,-1,5
 237 116 237 116 179.5 234.5 c 128,-1,6
 122 353 122 353 122 505 c 0,7,8
 122 648 122 648 168.5 800 c 128,-1,9
 215 952 215 952 303 1083 c 0,10,11
 412 1243 412 1243 581 1338.5 c 128,-1,12
 750 1434 750 1434 966 1434 c 0,13,14
 1149 1434 1149 1434 1267.5 1366 c 128,-1,15
 1386 1298 1386 1298 1443.5 1179 c 128,-1,16
 1501 1060 1501 1060 1501 907 c 0,17,18
 1501 735 1501 735 1430.5 545 c 128,-1,19
 1360 355 1360 355 1221 210 c 1,20,-1
 1377 24 l 1,21,-1
 1206 -112 l 1,0,-1
679 189 m 0,22,23
 805 189 805 189 925 247 c 1,24,-1
 775 428 l 1,25,-1
 944 561 l 1,26,-1
 1097 387 l 1,27,28
 1212 524 1212 524 1259 727 c 0,29,30
 1280 819 1280 819 1280 893 c 0,31,32
 1280 1044 1280 1044 1197.5 1134 c 128,-1,33
 1115 1224 1115 1224 943 1224 c 0,34,35
 786 1224 786 1224 668.5 1151.5 c 128,-1,36
 551 1079 551 1079 474.5 958 c 128,-1,37
 398 837 398 837 364 687 c 0,38,39
 343 600 343 600 343 519 c 0,40,41
 343 368 343 368 424.5 278.5 c 128,-1,42
 506 189 506 189 679 189 c 0,22,23
EndSplineSet
Position2: "'cpsp' Capital Spacing lookup 0 per glyph data 0" dx=5 dy=0 dh=10 dv=0
EndChar

StartChar: R
Encoding: 82 82 53
Width: 1255
GlyphClass: 1
Flags: W
LayerCount: 2
Fore
SplineSet
1095 -2 m 1,0,-1
 853 -2 l 1,1,-1
 645 613 l 1,2,-1
 443 613 l 1,3,-1
 300 -2 l 1,4,-1
 76 -2 l 1,5,-1
 403 1413 l 1,6,-1
 838 1413 l 2,7,8
 947 1413 947 1413 1036.5 1375.5 c 128,-1,9
 1126 1338 1126 1338 1179.5 1264 c 128,-1,10
 1233 1190 1233 1190 1233 1083 c 0,11,12
 1233 1003 1233 1003 1199.5 919.5 c 128,-1,13
 1166 836 1166 836 1093 764 c 0,14,15
 995 670 995 670 859 633 c 1,16,-1
 1095 -2 l 1,0,-1
720 801 m 1,17,18
 826 806 826 806 904 862.5 c 128,-1,19
 982 919 982 919 1007 1021 c 0,20,21
 1012 1041 1012 1041 1012 1066 c 0,22,23
 1012 1139 1012 1139 956.5 1175.5 c 128,-1,24
 901 1212 901 1212 806 1212 c 2,25,-1
 583 1212 l 1,26,-1
 488 801 l 1,27,-1
 720 801 l 1,17,18
EndSplineSet
Position2: "'cpsp' Capital Spacing lookup 0 per glyph data 0" dx=5 dy=0 dh=10 dv=0
EndChar

StartChar: S
Encoding: 83 83 54
Width: 1131
GlyphClass: 1
Flags: W
LayerCount: 2
Fore
SplineSet
512 -16 m 0,0,1
 419 -16 419 -16 332.5 9.5 c 128,-1,2
 246 35 246 35 180 86.5 c 128,-1,3
 114 138 114 138 74 215.5 c 128,-1,4
 34 293 34 293 34 398 c 1,5,-1
 263 437 l 1,6,7
 263 374 263 374 283 327.5 c 128,-1,8
 303 281 303 281 339 251 c 128,-1,9
 375 221 375 221 425 206 c 128,-1,10
 475 191 475 191 535 191 c 0,11,12
 585 191 585 191 635 203.5 c 128,-1,13
 685 216 685 216 725 243 c 128,-1,14
 765 270 765 270 790 313 c 128,-1,15
 815 356 815 356 815 418 c 256,16,17
 815 480 815 480 785.5 522 c 128,-1,18
 756 564 756 564 709.5 596 c 128,-1,19
 663 628 663 628 607 655 c 0,20,21
 551 681 551 681 497 712 c 0,22,23
 452 737 452 737 411.5 767.5 c 128,-1,24
 371 798 371 798 340 837 c 128,-1,25
 309 876 309 876 290.5 925.5 c 128,-1,26
 272 975 272 975 272 1037 c 0,27,28
 272 1130 272 1130 309 1202.5 c 128,-1,29
 346 1275 346 1275 408 1325 c 128,-1,30
 470 1375 470 1375 550 1402.5 c 128,-1,31
 630 1430 630 1430 717 1433 c 2,32,-1
 738 1434 l 1,33,-1
 760 1433 l 2,34,35
 820 1430 820 1430 879.5 1415 c 128,-1,36
 939 1400 939 1400 991 1370.5 c 128,-1,37
 1043 1341 1043 1341 1084 1295 c 128,-1,38
 1125 1249 1125 1249 1149 1185 c 1,39,-1
 958 1092 l 1,40,41
 939 1152 939 1152 891 1189.5 c 128,-1,42
 843 1227 843 1227 783 1237 c 0,43,44
 763 1240 763 1240 742 1240 c 256,45,46
 721 1240 721 1240 700 1237 c 0,47,48
 663 1233 663 1233 627 1219.5 c 128,-1,49
 591 1206 591 1206 563 1182.5 c 128,-1,50
 535 1159 535 1159 518 1126.5 c 128,-1,51
 501 1094 501 1094 501 1052 c 0,52,53
 501 1020 501 1020 512 994.5 c 128,-1,54
 523 969 523 969 542 947.5 c 128,-1,55
 561 926 561 926 586.5 908.5 c 128,-1,56
 612 891 612 891 641 876 c 2,57,-1
 717 836 l 2,58,59
 777 807 777 807 835.5 771 c 128,-1,60
 894 735 894 735 940.5 687 c 128,-1,61
 987 639 987 639 1015.5 576.5 c 128,-1,62
 1044 514 1044 514 1044 433 c 0,63,64
 1044 360 1044 360 1023 299 c 128,-1,65
 1002 238 1002 238 964.5 188 c 128,-1,66
 927 138 927 138 876.5 100 c 128,-1,67
 826 62 826 62 767 36 c 128,-1,68
 708 10 708 10 643 -3 c 128,-1,69
 578 -16 578 -16 512 -16 c 0,0,1
EndSplineSet
Position2: "'cpsp' Capital Spacing lookup 0 per glyph data 0" dx=5 dy=0 dh=10 dv=0
EndChar

StartChar: T
Encoding: 84 84 55
Width: 1201
GlyphClass: 1
Flags: W
LayerCount: 2
Fore
SplineSet
598 0 m 1,0,-1
 373 0 l 1,1,-1
 653 1216 l 1,2,-1
 200 1216 l 1,3,-1
 246 1413 l 1,4,-1
 1377 1413 l 1,5,-1
 1331 1216 l 1,6,-1
 878 1216 l 1,7,-1
 598 0 l 1,0,-1
EndSplineSet
Position2: "'cpsp' Capital Spacing lookup 0 per glyph data 0" dx=5 dy=0 dh=10 dv=0
EndChar

StartChar: U
Encoding: 85 85 56
Width: 1373
GlyphClass: 1
Flags: W
LayerCount: 2
Fore
SplineSet
579 -20 m 0,0,1
 361 -20 361 -20 255.5 83 c 128,-1,2
 150 186 150 186 150 366 c 0,3,4
 150 450 150 450 173 550 c 2,5,-1
 372 1413 l 1,6,-1
 596 1413 l 1,7,-1
 400 565 l 2,8,9
 376 463 376 463 376 396 c 0,10,11
 376 291 376 291 432.5 243.5 c 128,-1,12
 489 196 489 196 604 196 c 0,13,14
 776 196 776 196 870 296 c 128,-1,15
 964 396 964 396 1007 584 c 2,16,-1
 1199 1413 l 1,17,-1
 1423 1413 l 1,18,-1
 1223 542 l 2,19,20
 1162 277 1162 277 1002 128.5 c 128,-1,21
 842 -20 842 -20 579 -20 c 0,0,1
EndSplineSet
Position2: "'cpsp' Capital Spacing lookup 0 per glyph data 0" dx=5 dy=0 dh=10 dv=0
EndChar

StartChar: V
Encoding: 86 86 57
Width: 1340
GlyphClass: 1
Flags: W
LayerCount: 2
Fore
SplineSet
645 0 m 1,0,-1
 472 0 l 1,1,-1
 243 1413 l 1,2,-1
 483 1413 l 1,3,-1
 633 349 l 1,4,-1
 1277 1413 l 1,5,-1
 1524 1413 l 1,6,-1
 645 0 l 1,0,-1
EndSplineSet
Position2: "'cpsp' Capital Spacing lookup 0 per glyph data 0" dx=5 dy=0 dh=10 dv=0
EndChar

StartChar: W
Encoding: 87 87 58
Width: 1994
GlyphClass: 1
Flags: W
LayerCount: 2
Fore
SplineSet
1375 0 m 1,0,-1
 1152 0 l 1,1,-1
 1079 1057 l 1,2,-1
 516 0 l 1,3,-1
 293 0 l 1,4,-1
 203 1413 l 1,5,-1
 435 1413 l 1,6,-1
 494 317 l 1,7,-1
 1072 1413 l 1,8,-1
 1247 1413 l 1,9,-1
 1320 317 l 1,10,-1
 1884 1413 l 1,11,-1
 2117 1413 l 1,12,-1
 1375 0 l 1,0,-1
EndSplineSet
Position2: "'cpsp' Capital Spacing lookup 0 per glyph data 1" dx=5 dy=1 dh=10 dv=2
EndChar

StartChar: X
Encoding: 88 88 59
Width: 1320
GlyphClass: 1
Flags: W
LayerCount: 2
Fore
SplineSet
1161 0 m 1,0,-1
 901 0 l 1,1,-1
 675 549 l 1,2,-1
 196 0 l 1,3,-1
 -77 0 l 1,4,-1
 560 707 l 1,5,-1
 256 1413 l 1,6,-1
 519 1413 l 1,7,-1
 738 856 l 1,8,-1
 1220 1413 l 1,9,-1
 1490 1413 l 1,10,-1
 856 707 l 1,11,-1
 1161 0 l 1,0,-1
EndSplineSet
Position2: "'cpsp' Capital Spacing lookup 0 per glyph data 0" dx=5 dy=0 dh=10 dv=0
EndChar

StartChar: Y
Encoding: 89 89 60
Width: 1378
GlyphClass: 1
Flags: W
LayerCount: 2
Fore
SplineSet
687 0 m 1,0,-1
 464 0 l 1,1,-1
 593 551 l 1,2,-1
 228 1413 l 1,3,-1
 487 1413 l 1,4,-1
 744 757 l 1,5,-1
 1309 1413 l 1,6,-1
 1576 1413 l 1,7,-1
 816 551 l 1,8,-1
 687 0 l 1,0,-1
EndSplineSet
Position2: "'cpsp' Capital Spacing lookup 0 per glyph data 0" dx=5 dy=0 dh=10 dv=0
EndChar

StartChar: Z
Encoding: 90 90 61
Width: 1275
GlyphClass: 1
Flags: W
LayerCount: 2
Fore
SplineSet
1078 0 m 1,0,-1
 -45 0 l 1,1,-1
 -12 160 l 1,2,-1
 1050 1210 l 1,3,-1
 279 1210 l 1,4,-1
 326 1413 l 1,5,-1
 1403 1413 l 1,6,-1
 1367 1246 l 1,7,-1
 311 203 l 1,8,-1
 1125 203 l 1,9,-1
 1078 0 l 1,0,-1
EndSplineSet
Position2: "'cpsp' Capital Spacing lookup 0 per glyph data 0" dx=5 dy=0 dh=10 dv=0
EndChar

StartChar: bracketleft
Encoding: 91 91 62
Width: 641
GlyphClass: 1
Flags: W
LayerCount: 2
Fore
SplineSet
447 -142 m 1,0,-1
 37 -142 l 1,1,-1
 429 1551 l 1,2,-1
 839 1551 l 1,3,-1
 807 1412 l 1,4,-1
 571 1412 l 1,5,-1
 246 0 l 1,6,-1
 481 0 l 1,7,-1
 447 -142 l 1,0,-1
EndSplineSet
EndChar

StartChar: backslash
Encoding: 92 92 63
Width: 935
GlyphClass: 1
Flags: W
LayerCount: 2
Fore
SplineSet
738 -430 m 1,0,-1
 539 -430 l 1,1,-1
 217 1516 l 1,2,-1
 416 1516 l 1,3,-1
 738 -430 l 1,0,-1
EndSplineSet
EndChar

StartChar: bracketright
Encoding: 93 93 64
Width: 641
GlyphClass: 1
Flags: W
LayerCount: 2
Fore
SplineSet
307 -142 m 1,0,-1
 -103 -142 l 1,1,-1
 -70 0 l 1,2,-1
 166 0 l 1,3,-1
 492 1412 l 1,4,-1
 256 1412 l 1,5,-1
 288 1551 l 1,6,-1
 698 1551 l 1,7,-1
 307 -142 l 1,0,-1
EndSplineSet
EndChar

StartChar: asciicircum
Encoding: 94 94 65
Width: 982
GlyphClass: 1
Flags: W
LayerCount: 2
Fore
SplineSet
969 816 m 1,0,-1
 759 816 l 1,1,-1
 640 1127 l 1,2,-1
 375 816 l 1,3,-1
 154 816 l 1,4,-1
 711 1476 l 1,5,-1
 969 816 l 1,0,-1
EndSplineSet
EndChar

StartChar: underscore
Encoding: 95 95 66
Width: 1246
GlyphClass: 1
Flags: W
LayerCount: 2
Fore
SplineSet
884 -162 m 1,0,-1
 56 -162 l 1,1,-1
 94 0 l 1,2,-1
 922 0 l 1,3,-1
 884 -162 l 1,0,-1
EndSplineSet
EndChar

StartChar: a
Encoding: 97 97 68
Width: 1193
GlyphClass: 1
Flags: W
LayerCount: 2
Fore
SplineSet
401 -20 m 0,0,1
 286 -20 286 -20 210.5 30.5 c 128,-1,2
 135 81 135 81 97.5 168 c 128,-1,3
 60 255 60 255 60 367 c 0,4,5
 60 473 60 473 93 587 c 128,-1,6
 126 701 126 701 190 801 c 0,7,8
 263 916 263 916 372.5 988 c 128,-1,9
 482 1060 482 1060 619 1060 c 0,10,11
 713 1060 713 1060 786 1024.5 c 128,-1,12
 859 989 859 989 897 921 c 1,13,-1
 929 1039 l 1,14,-1
 1155 1039 l 1,15,-1
 917 0 l 1,16,-1
 707 0 l 1,17,-1
 723 107 l 1,18,19
 593 -20 593 -20 401 -20 c 0,0,1
472 177 m 0,20,21
 611 177 611 177 704 278 c 128,-1,22
 797 379 797 379 833 541 c 0,23,24
 847 602 847 602 847 659 c 0,25,26
 847 750 847 750 802 807.5 c 128,-1,27
 757 865 757 865 654 865 c 0,28,29
 559 865 559 865 486 815.5 c 128,-1,30
 413 766 413 766 364 684 c 128,-1,31
 315 602 315 602 292 499 c 0,32,33
 277 436 277 436 277 383 c 0,34,35
 277 292 277 292 322.5 234.5 c 128,-1,36
 368 177 368 177 472 177 c 0,20,21
EndSplineSet
Substitution2: "Single Substitution lookup 3 subtable" ordfeminine
Substitution2: "Single Substitution lookup 2 subtable" ordfeminine
EndChar

StartChar: b
Encoding: 98 98 69
Width: 1195
GlyphClass: 1
Flags: W
LayerCount: 2
Fore
SplineSet
581 -20 m 0,0,1
 487 -20 487 -20 414 15.5 c 128,-1,2
 341 51 341 51 303 119 c 1,3,-1
 270 0 l 1,4,-1
 42 0 l 1,5,-1
 381 1412 l 1,6,-1
 609 1412 l 1,7,-1
 480 935 l 1,8,9
 609 1060 609 1060 799 1060 c 0,10,11
 913 1060 913 1060 988.5 1010 c 128,-1,12
 1064 960 1064 960 1102 872.5 c 128,-1,13
 1140 785 1140 785 1140 673 c 0,14,15
 1140 567 1140 567 1107 453 c 128,-1,16
 1074 339 1074 339 1010 239 c 0,17,18
 937 124 937 124 828 52 c 128,-1,19
 719 -20 719 -20 581 -20 c 0,0,1
546 176 m 0,20,21
 643 176 643 176 716.5 225 c 128,-1,22
 790 274 790 274 839 356 c 128,-1,23
 888 438 888 438 911 541 c 0,24,25
 925 597 925 597 925 655 c 0,26,27
 925 717 925 717 904.5 764.5 c 128,-1,28
 884 812 884 812 841 839.5 c 128,-1,29
 798 867 798 867 729 867 c 0,30,31
 634 867 634 867 561 817 c 128,-1,32
 488 767 488 767 438.5 684.5 c 128,-1,33
 389 602 389 602 366 499 c 0,34,35
 352 440 352 440 352 383 c 0,36,37
 352 292 352 292 397.5 234 c 128,-1,38
 443 176 443 176 546 176 c 0,20,21
EndSplineSet
EndChar

StartChar: c
Encoding: 99 99 70
Width: 1025
GlyphClass: 1
Flags: W
LayerCount: 2
Fore
SplineSet
443 -20 m 0,0,1
 311 -20 311 -20 226 33 c 128,-1,2
 141 86 141 86 99 176.5 c 128,-1,3
 57 267 57 267 57 380 c 0,4,5
 57 547 57 547 140.5 714 c 128,-1,6
 224 881 224 881 389 984 c 0,7,8
 511 1056 511 1056 662 1056 c 0,9,10
 767 1056 767 1056 844.5 1017.5 c 128,-1,11
 922 979 922 979 970 912.5 c 128,-1,12
 1018 846 1018 846 1036 759 c 1,13,-1
 813 693 l 1,14,15
 809 777 809 777 761 817.5 c 128,-1,16
 713 858 713 858 638 858 c 0,17,18
 542 858 542 858 470.5 807 c 128,-1,19
 399 756 399 756 353 674 c 128,-1,20
 307 592 307 592 285 497 c 0,21,22
 270 435 270 435 270 381 c 0,23,24
 270 322 270 322 289 275.5 c 128,-1,25
 308 229 308 229 349 203 c 128,-1,26
 390 177 390 177 457 177 c 0,27,28
 547 177 547 177 621 229 c 128,-1,29
 695 281 695 281 734 362 c 1,30,-1
 917 263 l 1,31,32
 830 119 830 119 706 49.5 c 128,-1,33
 582 -20 582 -20 443 -20 c 0,0,1
EndSplineSet
EndChar

StartChar: d
Encoding: 100 100 71
Width: 1197
GlyphClass: 1
Flags: W
LayerCount: 2
Fore
SplineSet
401 -20 m 0,0,1
 286 -20 286 -20 210.5 30.5 c 128,-1,2
 135 81 135 81 97.5 168 c 128,-1,3
 60 255 60 255 60 367 c 0,4,5
 60 473 60 473 93 587 c 128,-1,6
 126 701 126 701 190 801 c 0,7,8
 263 916 263 916 372.5 988 c 128,-1,9
 482 1060 482 1060 619 1060 c 0,10,11
 713 1060 713 1060 786 1024.5 c 128,-1,12
 859 989 859 989 897 921 c 1,13,-1
 1029 1413 l 1,14,-1
 1255 1413 l 1,15,-1
 917 0 l 1,16,-1
 707 0 l 1,17,-1
 723 107 l 1,18,19
 593 -20 593 -20 401 -20 c 0,0,1
472 177 m 0,20,21
 611 177 611 177 704 278 c 128,-1,22
 797 379 797 379 833 541 c 0,23,24
 847 602 847 602 847 659 c 0,25,26
 847 750 847 750 802 807.5 c 128,-1,27
 757 865 757 865 654 865 c 0,28,29
 559 865 559 865 486 815.5 c 128,-1,30
 413 766 413 766 364 684 c 128,-1,31
 315 602 315 602 292 499 c 0,32,33
 277 436 277 436 277 383 c 0,34,35
 277 292 277 292 322.5 234.5 c 128,-1,36
 368 177 368 177 472 177 c 0,20,21
EndSplineSet
EndChar

StartChar: e
Encoding: 101 101 72
Width: 1079
GlyphClass: 1
Flags: W
LayerCount: 2
Fore
SplineSet
457 -12 m 0,0,1
 321 -12 321 -12 231.5 39 c 128,-1,2
 142 90 142 90 98.5 178.5 c 128,-1,3
 55 267 55 267 55 381 c 0,4,5
 55 505 55 505 97.5 624.5 c 128,-1,6
 140 744 140 744 218.5 840.5 c 128,-1,7
 297 937 297 937 407 994.5 c 128,-1,8
 517 1052 517 1052 652 1052 c 0,9,10
 851 1052 851 1052 941 951.5 c 128,-1,11
 1031 851 1031 851 1031 686 c 0,12,13
 1031 565 1031 565 990 439 c 1,14,-1
 275 439 l 1,15,16
 271 412 271 412 271 381 c 0,17,18
 271 293 271 293 319.5 239 c 128,-1,19
 368 185 368 185 474 185 c 0,20,21
 571 185 571 185 641 212 c 128,-1,22
 711 239 711 239 774 296 c 1,23,-1
 903 147 l 1,24,25
 720 -12 720 -12 457 -12 c 0,0,1
825 598 m 1,26,27
 831 642 831 642 832 677 c 0,28,29
 832 779 832 779 783 824 c 128,-1,30
 734 869 734 869 637 869 c 0,31,32
 557 869 557 869 494 833.5 c 128,-1,33
 431 798 431 798 386.5 736.5 c 128,-1,34
 342 675 342 675 316 598 c 1,35,-1
 825 598 l 1,26,27
EndSplineSet
EndChar

StartChar: f
Encoding: 102 102 73
Width: 719
GlyphClass: 1
Flags: W
LayerCount: 2
Fore
SplineSet
324 0 m 1,0,-1
 97 0 l 1,1,-1
 292 860 l 1,2,-1
 103 860 l 1,3,-1
 146 1037 l 1,4,-1
 337 1037 l 1,5,-1
 375 1183 l 2,6,7
 410 1309 410 1309 507 1371.5 c 128,-1,8
 604 1434 604 1434 747 1434 c 0,9,10
 835 1434 835 1434 925 1390 c 1,11,-1
 820 1232 l 1,12,13
 777 1251 777 1251 730 1251 c 0,14,15
 684 1251 684 1251 648 1226.5 c 128,-1,16
 612 1202 612 1202 597 1153 c 2,17,-1
 564 1039 l 1,18,-1
 824 1039 l 1,19,-1
 781 860 l 1,20,-1
 521 860 l 1,21,-1
 324 0 l 1,0,-1
EndSplineSet
EndChar

StartChar: g
Encoding: 103 103 74
Width: 1194
GlyphClass: 1
Flags: W
LayerCount: 2
Fore
SplineSet
355 -437 m 0,0,1
 61 -437 61 -437 -47 -220 c 1,2,-1
 140 -117 l 1,3,4
 161 -177 161 -177 219 -213.5 c 128,-1,5
 277 -250 277 -250 374 -250 c 0,6,7
 495 -250 495 -250 578 -182.5 c 128,-1,8
 661 -115 661 -115 692 9 c 2,9,-1
 720 120 l 1,10,11
 652 54 652 54 570.5 24.5 c 128,-1,12
 489 -5 489 -5 405 -5 c 0,13,14
 289 -5 289 -5 213 45 c 128,-1,15
 137 95 137 95 99.5 181.5 c 128,-1,16
 62 268 62 268 62 378 c 0,17,18
 62 478 62 478 93.5 590.5 c 128,-1,19
 125 703 125 703 190 803 c 0,20,21
 237 878 237 878 302.5 935.5 c 128,-1,22
 368 993 368 993 448 1026.5 c 128,-1,23
 528 1060 528 1060 620 1060 c 0,24,25
 709 1060 709 1060 782.5 1025 c 128,-1,26
 856 990 856 990 896 920 c 1,27,-1
 928 1039 l 1,28,-1
 1153 1039 l 1,29,-1
 911 3 l 2,30,31
 862 -209 862 -209 716.5 -323 c 128,-1,32
 571 -437 571 -437 355 -437 c 0,0,1
475 191 m 0,33,34
 570 191 570 191 642 239 c 128,-1,35
 714 287 714 287 762.5 367 c 128,-1,36
 811 447 811 447 834 548 c 0,37,38
 847 607 847 607 847 660 c 0,39,40
 847 721 847 721 827.5 767 c 128,-1,41
 808 813 808 813 765 839.5 c 128,-1,42
 722 866 722 866 654 866 c 0,43,44
 559 866 559 866 485.5 816.5 c 128,-1,45
 412 767 412 767 363 685.5 c 128,-1,46
 314 604 314 604 292 506 c 0,47,48
 278 444 278 444 278 397 c 0,49,50
 278 337 278 337 298.5 290.5 c 128,-1,51
 319 244 319 244 362 217.5 c 128,-1,52
 405 191 405 191 475 191 c 0,33,34
EndSplineSet
EndChar

StartChar: h
Encoding: 104 104 75
Width: 1186
GlyphClass: 1
Flags: W
LayerCount: 2
Fore
SplineSet
948 0 m 1,0,-1
 724 0 l 1,1,-1
 864 615 l 2,2,3
 880 683 880 683 880 727 c 0,4,5
 880 856 880 856 751 856 c 0,6,7
 668 856 668 856 592.5 812 c 128,-1,8
 517 768 517 768 464 702 c 128,-1,9
 411 636 411 636 394 564 c 2,10,-1
 265 0 l 1,11,-1
 41 0 l 1,12,-1
 380 1413 l 1,13,-1
 604 1413 l 1,14,-1
 471 916 l 1,15,16
 547 991 547 991 634.5 1023.5 c 128,-1,17
 722 1056 722 1056 803 1056 c 0,18,19
 954 1056 954 1056 1027 971.5 c 128,-1,20
 1100 887 1100 887 1100 751 c 0,21,22
 1100 687 1100 687 1085 619 c 2,23,-1
 948 0 l 1,0,-1
EndSplineSet
EndChar

StartChar: i
Encoding: 105 105 76
Width: 520
GlyphClass: 1
Flags: W
LayerCount: 2
Fore
SplineSet
510 1198 m 1,0,-1
 308 1198 l 1,1,-1
 357 1413 l 1,2,-1
 559 1413 l 1,3,-1
 510 1198 l 1,0,-1
242 0 m 1,4,-1
 41 0 l 1,5,-1
 270 1039 l 1,6,-1
 472 1039 l 1,7,-1
 242 0 l 1,4,-1
EndSplineSet
Substitution2: "'locl' Localized Forms in Latin lookup 5 subtable" i.loclTRK
Substitution2: "Single Substitution lookup 2 subtable" dotlessi
Substitution2: "'aalt' Access All Alternates lookup 0 subtable" i.loclTRK
EndChar

StartChar: j
Encoding: 106 106 77
Width: 562
GlyphClass: 1
Flags: W
LayerCount: 2
Fore
SplineSet
532 1185 m 1,0,-1
 313 1185 l 1,1,-1
 370 1415 l 1,2,-1
 588 1415 l 1,3,-1
 532 1185 l 1,0,-1
-124 -438 m 0,4,5
 -206 -438 -206 -438 -292 -402 c 1,6,-1
 -212 -229 l 1,7,8
 -161 -242 -161 -242 -109 -242 c 0,9,10
 -13 -242 -13 -242 12 -121 c 2,11,-1
 282 1039 l 1,12,-1
 501 1039 l 1,13,-1
 229 -127 l 2,14,15
 208 -218 208 -218 163 -288 c 128,-1,16
 118 -358 118 -358 46.5 -398 c 128,-1,17
 -25 -438 -25 -438 -124 -438 c 0,4,5
EndSplineSet
Substitution2: "Single Substitution lookup 2 subtable" uni0237
EndChar

StartChar: k
Encoding: 107 107 78
Width: 1142
GlyphClass: 1
Flags: W
LayerCount: 2
Fore
SplineSet
1011 0 m 1,0,-1
 752 0 l 1,1,-1
 562 502 l 1,2,-1
 335 304 l 1,3,-1
 262 0 l 1,4,-1
 40 0 l 1,5,-1
 366 1413 l 1,6,-1
 591 1413 l 1,7,-1
 391 572 l 1,8,-1
 913 1039 l 1,9,-1
 1205 1039 l 1,10,-1
 738 643 l 1,11,-1
 1011 0 l 1,0,-1
EndSplineSet
EndChar

StartChar: l
Encoding: 108 108 79
Width: 569
GlyphClass: 1
Flags: W
LayerCount: 2
Fore
SplineSet
245 -20 m 0,0,1
 73 -20 73 -20 73 125 c 0,2,3
 73 160 73 160 84 209 c 2,4,-1
 364 1413 l 1,5,-1
 588 1413 l 1,6,7
 300 217 300 217 300 206 c 0,8,9
 300 169 300 169 354 169 c 0,10,11
 381 169 381 169 438 180 c 1,12,-1
 408 -2 l 1,13,14
 322 -20 322 -20 245 -20 c 0,0,1
EndSplineSet
EndChar

StartChar: m
Encoding: 109 109 80
Width: 1785
GlyphClass: 1
Flags: W
LayerCount: 2
Fore
SplineSet
1546 0 m 1,0,-1
 1323 0 l 1,1,-1
 1462 614 l 2,2,3
 1478 680 1478 680 1478 728 c 0,4,5
 1478 793 1478 793 1446.5 827.5 c 128,-1,6
 1415 862 1415 862 1347 862 c 0,7,8
 1270 862 1270 862 1206 821 c 128,-1,9
 1142 780 1142 780 1098 714.5 c 128,-1,10
 1054 649 1054 649 1036 573 c 2,11,-1
 906 0 l 1,12,-1
 679 0 l 1,13,-1
 822 619 l 2,14,15
 836 685 836 685 836 729 c 0,16,17
 836 795 836 795 805 828.5 c 128,-1,18
 774 862 774 862 706 862 c 0,19,20
 628 862 628 862 564 820.5 c 128,-1,21
 500 779 500 779 456 713.5 c 128,-1,22
 412 648 412 648 394 573 c 2,23,-1
 264 0 l 1,24,-1
 40 0 l 1,25,-1
 279 1039 l 1,26,-1
 503 1039 l 1,27,-1
 473 922 l 1,28,29
 536 994 536 994 611.5 1026 c 128,-1,30
 687 1058 687 1058 760 1058 c 0,31,32
 871 1058 871 1058 938 1012 c 128,-1,33
 1005 966 1005 966 1030 889 c 1,34,35
 1111 977 1111 977 1205 1016.5 c 128,-1,36
 1299 1056 1299 1056 1397 1056 c 0,37,38
 1550 1056 1550 1056 1624 970 c 128,-1,39
 1698 884 1698 884 1698 747 c 0,40,41
 1698 684 1698 684 1683 616 c 2,42,-1
 1546 0 l 1,0,-1
EndSplineSet
EndChar

StartChar: n
Encoding: 110 110 81
Width: 1186
GlyphClass: 1
Flags: W
LayerCount: 2
Fore
SplineSet
947 0 m 1,0,-1
 724 0 l 1,1,-1
 863 615 l 2,2,3
 879 683 879 683 879 727 c 0,4,5
 879 855 879 855 751 855 c 0,6,7
 668 855 668 855 593 812.5 c 128,-1,8
 518 770 518 770 465.5 705.5 c 128,-1,9
 413 641 413 641 395 571 c 2,10,-1
 265 0 l 1,11,-1
 40 0 l 1,12,-1
 279 1039 l 1,13,-1
 504 1039 l 1,14,-1
 472 918 l 1,15,16
 547 991 547 991 632.5 1023.5 c 128,-1,17
 718 1056 718 1056 800 1056 c 0,18,19
 952 1056 952 1056 1025.5 971.5 c 128,-1,20
 1099 887 1099 887 1099 751 c 0,21,22
 1099 689 1099 689 1083 616 c 2,23,-1
 947 0 l 1,0,-1
EndSplineSet
EndChar

StartChar: o
Encoding: 111 111 82
Width: 1150
GlyphClass: 1
Flags: W
LayerCount: 2
Fore
SplineSet
467 -20 m 0,0,1
 333 -20 333 -20 240.5 35 c 128,-1,2
 148 90 148 90 100.5 184 c 128,-1,3
 53 278 53 278 53 395 c 0,4,5
 53 581 53 581 151 738.5 c 128,-1,6
 249 896 249 896 409 983 c 0,7,8
 538 1052 538 1052 684 1052 c 0,9,10
 818 1052 818 1052 910.5 997 c 128,-1,11
 1003 942 1003 942 1050.5 848 c 128,-1,12
 1098 754 1098 754 1098 636 c 0,13,14
 1098 509 1098 509 1051.5 396 c 128,-1,15
 1005 283 1005 283 925.5 194 c 128,-1,16
 846 105 846 105 742 50 c 0,17,18
 613 -20 613 -20 467 -20 c 0,0,1
484 166 m 0,19,20
 588 166 588 166 665 216.5 c 128,-1,21
 742 267 742 267 791.5 350.5 c 128,-1,22
 841 434 841 434 865 537 c 0,23,24
 878 589 878 589 878 651 c 0,25,26
 878 746 878 746 829 805.5 c 128,-1,27
 780 865 780 865 667 865 c 0,28,29
 565 865 565 865 488 815 c 128,-1,30
 411 765 411 765 360 681.5 c 128,-1,31
 309 598 309 598 287 495 c 0,32,33
 273 439 273 439 273 381 c 0,34,35
 273 286 273 286 322.5 226 c 128,-1,36
 372 166 372 166 484 166 c 0,19,20
EndSplineSet
Substitution2: "Single Substitution lookup 3 subtable" ordmasculine
Substitution2: "Single Substitution lookup 2 subtable" ordmasculine
EndChar

StartChar: p
Encoding: 112 112 83
Width: 1197
GlyphClass: 1
Flags: W
LayerCount: 2
Fore
SplineSet
161 -438 m 1,0,-1
 -64 -438 l 1,1,-1
 281 1039 l 1,2,-1
 501 1039 l 1,3,-1
 478 935 l 1,4,5
 605 1060 605 1060 796 1060 c 0,6,7
 910 1060 910 1060 985.5 1010 c 128,-1,8
 1061 960 1061 960 1098.5 873 c 128,-1,9
 1136 786 1136 786 1136 674 c 0,10,11
 1136 502 1136 502 1055.5 327 c 128,-1,12
 975 152 975 152 820 51 c 0,13,14
 709 -20 709 -20 577 -20 c 0,15,16
 486 -20 486 -20 412.5 15 c 128,-1,17
 339 50 339 50 300 119 c 1,18,-1
 161 -438 l 1,0,-1
542 176 m 0,19,20
 638 176 638 176 711 224.5 c 128,-1,21
 784 273 784 273 833.5 355 c 128,-1,22
 883 437 883 437 906 541 c 0,23,24
 920 602 920 602 920 658 c 0,25,26
 920 720 920 720 900.5 767 c 128,-1,27
 881 814 881 814 838 841 c 128,-1,28
 795 868 795 868 725 868 c 0,29,30
 631 868 631 868 558 818 c 128,-1,31
 485 768 485 768 435.5 685 c 128,-1,32
 386 602 386 602 363 499 c 0,33,34
 348 434 348 434 348 382 c 0,35,36
 348 291 348 291 393.5 233.5 c 128,-1,37
 439 176 439 176 542 176 c 0,19,20
EndSplineSet
EndChar

StartChar: q
Encoding: 113 113 84
Width: 1191
GlyphClass: 1
Flags: W
LayerCount: 2
Fore
SplineSet
809 -438 m 1,0,-1
 584 -438 l 1,1,-1
 718 104 l 1,2,3
 590 -20 590 -20 401 -20 c 0,4,5
 286 -20 286 -20 210.5 30.5 c 128,-1,6
 135 81 135 81 97.5 168 c 128,-1,7
 60 255 60 255 60 367 c 0,8,9
 60 473 60 473 93 587 c 128,-1,10
 126 701 126 701 190 801 c 0,11,12
 263 916 263 916 372.5 988 c 128,-1,13
 482 1060 482 1060 619 1060 c 0,14,15
 711 1060 711 1060 784 1025.5 c 128,-1,16
 857 991 857 991 897 921 c 1,17,-1
 934 1039 l 1,18,-1
 1154 1039 l 1,19,-1
 809 -438 l 1,0,-1
471 176 m 0,20,21
 610 176 610 176 703 277.5 c 128,-1,22
 796 379 796 379 832 541 c 0,23,24
 847 608 847 608 847 661 c 0,25,26
 847 751 847 751 802 808.5 c 128,-1,27
 757 866 757 866 654 866 c 0,28,29
 558 866 558 866 484.5 816.5 c 128,-1,30
 411 767 411 767 362.5 684.5 c 128,-1,31
 314 602 314 602 292 499 c 0,32,33
 277 434 277 434 277 382 c 0,34,35
 277 291 277 291 322.5 233.5 c 128,-1,36
 368 176 368 176 471 176 c 0,20,21
EndSplineSet
EndChar

StartChar: r
Encoding: 114 114 85
Width: 846
GlyphClass: 1
Flags: W
LayerCount: 2
Fore
SplineSet
257 0 m 1,0,-1
 40 0 l 1,1,-1
 279 1039 l 1,2,-1
 493 1039 l 1,3,-1
 458 873 l 1,4,5
 510 966 510 966 592 1010 c 128,-1,6
 674 1054 674 1054 739 1054 c 0,7,8
 805 1054 805 1054 859.5 1037.5 c 128,-1,9
 914 1021 914 1021 952 989 c 1,10,-1
 825 822 l 1,11,12
 771 859 771 859 702 859 c 0,13,14
 586 859 586 859 496 752 c 128,-1,15
 406 645 406 645 363 464 c 2,16,-1
 257 0 l 1,0,-1
EndSplineSet
EndChar

StartChar: s
Encoding: 115 115 86
Width: 916
GlyphClass: 1
Flags: W
LayerCount: 2
Fore
SplineSet
377 -20 m 0,0,1
 313 -20 313 -20 247.5 -2 c 128,-1,2
 182 16 182 16 128 51.5 c 128,-1,3
 74 87 74 87 37.5 140.5 c 128,-1,4
 1 194 1 194 -7 265 c 1,5,-1
 182 329 l 1,6,7
 187 288 187 288 205 256 c 128,-1,8
 223 224 223 224 250 203 c 128,-1,9
 277 182 277 182 312.5 171.5 c 128,-1,10
 348 161 348 161 385 161 c 0,11,12
 419 161 419 161 455.5 171.5 c 128,-1,13
 492 182 492 182 521.5 202.5 c 128,-1,14
 551 223 551 223 570 253 c 128,-1,15
 589 283 589 283 589 324 c 0,16,17
 589 359 589 359 571.5 380.5 c 128,-1,18
 554 402 554 402 526 416.5 c 128,-1,19
 498 431 498 431 461 442 c 0,20,21
 424 452 424 452 386 465 c 0,22,23
 344 479 344 479 302.5 497 c 128,-1,24
 261 515 261 515 228.5 544 c 128,-1,25
 196 573 196 573 176 616.5 c 128,-1,26
 156 660 156 660 156 723 c 0,27,28
 156 807 156 807 189.5 868.5 c 128,-1,29
 223 930 223 930 277.5 971.5 c 128,-1,30
 332 1013 332 1013 401.5 1033.5 c 128,-1,31
 471 1054 471 1054 545 1054 c 0,32,33
 603 1054 603 1054 658.5 1042 c 128,-1,34
 714 1030 714 1030 762.5 1003 c 128,-1,35
 811 976 811 976 848.5 935 c 128,-1,36
 886 894 886 894 907 836 c 1,37,-1
 724 759 l 1,38,39
 714 793 714 793 695.5 817.5 c 128,-1,40
 677 842 677 842 651.5 857 c 128,-1,41
 626 872 626 872 596.5 879 c 128,-1,42
 567 886 567 886 534 886 c 0,43,44
 505 886 505 886 475 879 c 128,-1,45
 445 872 445 872 420.5 857.5 c 128,-1,46
 396 843 396 843 380 818.5 c 128,-1,47
 364 794 364 794 364 759 c 0,48,49
 364 730 364 730 378 710.5 c 128,-1,50
 392 691 392 691 414.5 677 c 128,-1,51
 437 663 437 663 469 653 c 2,52,-1
 533 631 l 2,53,54
 579 615 579 615 627 595.5 c 128,-1,55
 675 576 675 576 714 545 c 128,-1,56
 753 514 753 514 777.5 466 c 128,-1,57
 802 418 802 418 802 347 c 0,58,59
 802 260 802 260 764.5 192 c 128,-1,60
 727 124 727 124 666.5 77 c 128,-1,61
 606 30 606 30 530 5 c 128,-1,62
 454 -20 454 -20 377 -20 c 0,0,1
EndSplineSet
Substitution2: "'hist' Historical Forms lookup 18 subtable" longs
Substitution2: "'aalt' Access All Alternates lookup 0 subtable" longs
EndChar

StartChar: t
Encoding: 116 116 87
Width: 751
GlyphClass: 1
Flags: W
LayerCount: 2
Fore
SplineSet
387 -20 m 0,0,1
 260 -20 260 -20 198 43 c 128,-1,2
 136 106 136 106 136 205 c 0,3,4
 136 245 136 245 147 296 c 2,5,-1
 271 860 l 1,6,-1
 110 860 l 1,7,-1
 152 1039 l 1,8,-1
 315 1039 l 1,9,-1
 370 1256 l 1,10,-1
 623 1403 l 1,11,-1
 527 1039 l 1,12,-1
 795 1039 l 1,13,-1
 753 860 l 1,14,-1
 484 860 l 1,15,-1
 356 301 l 2,16,17
 350 272 350 272 350 250 c 0,18,19
 350 166 350 166 442 166 c 0,20,21
 508 166 508 166 589 205 c 1,22,-1
 554 4 l 1,23,24
 526 -6 526 -6 480 -13 c 128,-1,25
 434 -20 434 -20 387 -20 c 0,0,1
EndSplineSet
EndChar

StartChar: u
Encoding: 117 117 88
Width: 1185
GlyphClass: 1
Flags: W
LayerCount: 2
Fore
SplineSet
389 -23 m 0,0,1
 238 -23 238 -23 165.5 65.5 c 128,-1,2
 93 154 93 154 93 295 c 0,3,4
 93 359 93 359 109 436 c 2,5,-1
 243 1039 l 1,6,-1
 466 1039 l 1,7,-1
 324 419 l 2,8,9
 309 358 309 358 309 310 c 0,10,11
 309 246 309 246 343 211.5 c 128,-1,12
 377 177 377 177 453 177 c 0,13,14
 527 177 527 177 597.5 211.5 c 128,-1,15
 668 246 668 246 723 320 c 128,-1,16
 778 394 778 394 805 510 c 2,17,-1
 925 1039 l 1,18,-1
 1151 1039 l 1,19,-1
 912 0 l 1,20,-1
 691 0 l 1,21,-1
 720 125 l 1,22,23
 655 57 655 57 568 17 c 128,-1,24
 481 -23 481 -23 389 -23 c 0,0,1
EndSplineSet
EndChar

StartChar: v
Encoding: 118 118 89
Width: 1024
GlyphClass: 1
Flags: W
LayerCount: 2
Fore
SplineSet
489 0 m 1,0,-1
 302 0 l 1,1,-1
 128 1039 l 1,2,-1
 368 1039 l 1,3,-1
 456 289 l 1,4,-1
 895 1039 l 1,5,-1
 1140 1039 l 1,6,-1
 489 0 l 1,0,-1
EndSplineSet
EndChar

StartChar: w
Encoding: 119 119 90
Width: 1501
GlyphClass: 1
Flags: W
LayerCount: 2
Fore
SplineSet
410 -3 m 1,0,-1
 213 -3 l 1,1,-1
 146 1039 l 1,2,-1
 373 1039 l 1,3,-1
 394 331 l 1,4,-1
 768 1039 l 1,5,-1
 963 1039 l 1,6,-1
 1006 333 l 1,7,-1
 1362 1039 l 1,8,-1
 1601 1039 l 1,9,-1
 1050 0 l 1,10,-1
 845 0 l 1,11,-1
 800 732 l 1,12,-1
 410 -3 l 1,0,-1
EndSplineSet
EndChar

StartChar: x
Encoding: 120 120 91
Width: 1045
GlyphClass: 1
Flags: W
LayerCount: 2
Fore
SplineSet
891 0 m 1,0,-1
 626 0 l 1,1,-1
 488 363 l 1,2,-1
 178 0 l 1,3,-1
 -100 0 l 1,4,-1
 378 524 l 1,5,-1
 147 1039 l 1,6,-1
 412 1039 l 1,7,-1
 551 683 l 1,8,-1
 860 1039 l 1,9,-1
 1138 1039 l 1,10,-1
 660 524 l 1,11,-1
 891 0 l 1,0,-1
EndSplineSet
EndChar

StartChar: y
Encoding: 121 121 92
Width: 1062
GlyphClass: 1
Flags: W
LayerCount: 2
Fore
SplineSet
245 -430 m 1,0,-1
 0 -430 l 1,1,-1
 298 33 l 1,2,-1
 130 1039 l 1,3,-1
 371 1039 l 1,4,-1
 469 286 l 1,5,-1
 922 1039 l 1,6,-1
 1171 1039 l 1,7,-1
 245 -430 l 1,0,-1
EndSplineSet
EndChar

StartChar: z
Encoding: 122 122 93
Width: 1026
GlyphClass: 1
Flags: W
LayerCount: 2
Fore
SplineSet
827 0 m 1,0,-1
 -58 0 l 1,1,-1
 -26 146 l 1,2,-1
 735 860 l 1,3,-1
 167 860 l 1,4,-1
 210 1039 l 1,5,-1
 1065 1039 l 1,6,-1
 1031 881 l 1,7,-1
 291 181 l 1,8,-1
 869 181 l 1,9,-1
 827 0 l 1,0,-1
EndSplineSet
EndChar

StartChar: braceleft
Encoding: 123 123 94
Width: 614
GlyphClass: 1
Flags: W
LayerCount: 2
Fore
SplineSet
336 -144 m 2,0,-1
 265 -144 l 2,1,2
 151 -144 151 -144 115 -31 c 1,3,4
 97 -9 97 -9 97 37 c 0,5,6
 97 73 97 73 110 130 c 0,7,8
 194 492 194 492 196 509 c 0,9,10
 196 549 196 549 151 572 c 2,11,-1
 93 598 l 1,12,-1
 114 743 l 1,13,14
 265 786 265 786 287 894 c 2,15,-1
 385 1320 l 2,16,17
 412 1444 412 1444 480.5 1499.5 c 128,-1,18
 549 1555 549 1555 666 1555 c 0,19,20
 755 1555 755 1555 791 1552 c 1,21,-1
 771 1414 l 1,22,23
 733 1423 733 1423 690 1423 c 0,24,25
 593 1423 593 1423 581 1371 c 2,26,-1
 464 862 l 2,27,28
 435 723 435 723 262 652 c 1,29,30
 314 630 314 630 346 593.5 c 128,-1,31
 378 557 378 557 378 508 c 0,32,33
 378 491 378 491 291 116 c 0,34,35
 283 82 283 82 283 61 c 0,36,37
 283 -10 283 -10 361 -10 c 0,38,39
 387 -10 387 -10 433 2 c 1,40,-1
 413 -141 l 1,41,-1
 382 -142 l 2,42,43
 356 -144 356 -144 336 -144 c 2,0,-1
EndSplineSet
EndChar

StartChar: bar
Encoding: 124 124 95
Width: 624
GlyphClass: 1
Flags: W
LayerCount: 2
Fore
SplineSet
158 -512 m 1,0,-1
 -1 -512 l 1,1,-1
 473 1534 l 1,2,-1
 631 1534 l 1,3,-1
 158 -512 l 1,0,-1
EndSplineSet
EndChar

StartChar: braceright
Encoding: 125 125 96
Width: 614
GlyphClass: 1
Flags: W
LayerCount: 2
Fore
SplineSet
64 -144 m 2,0,-1
 -8 -144 l 2,1,2
 -29 -144 -29 -144 -51 -142 c 2,3,-1
 -81 -141 l 1,4,-1
 -62 -3 l 1,5,6
 -31 -10 -31 -10 -6 -10 c 0,7,8
 59 -10 59 -10 98 31 c 128,-1,9
 137 72 137 72 151 135 c 2,10,-1
 233 496 l 2,11,12
 256 601 256 601 426 669 c 1,13,14
 372 697 372 697 343.5 735.5 c 128,-1,15
 315 774 315 774 315 827 c 0,16,17
 315 853 315 853 322 880 c 0,18,19
 440 1389 440 1389 441 1401 c 0,20,21
 441 1415 441 1415 428 1419 c 128,-1,22
 415 1423 415 1423 377 1423 c 0,23,24
 340 1423 340 1423 277 1410 c 1,25,-1
 296 1552 l 1,26,27
 334 1555 334 1555 421 1555 c 0,28,29
 522 1555 522 1555 568.5 1510.5 c 128,-1,30
 615 1466 615 1466 615 1388 c 0,31,32
 615 1351 615 1351 604 1302 c 2,33,-1
 505 876 l 2,34,35
 500 857 500 857 500 835 c 0,36,37
 500 799 500 799 522.5 777 c 128,-1,38
 545 755 545 755 598 736 c 1,39,-1
 577 590 l 1,40,41
 509 568 509 568 465.5 541 c 128,-1,42
 422 514 422 514 412 474 c 2,43,-1
 329 111 l 2,44,45
 305 -1 305 -1 260 -64 c 1,46,47
 217 -104 217 -104 170 -124 c 128,-1,48
 123 -144 123 -144 64 -144 c 2,0,-1
EndSplineSet
EndChar

StartChar: asciitilde
Encoding: 126 126 97
Width: 1160
GlyphClass: 1
Flags: W
LayerCount: 2
Fore
SplineSet
737 379 m 0,0,1
 668 379 668 379 619 399 c 128,-1,2
 570 419 570 419 513 456 c 0,3,4
 474 482 474 482 451.5 492.5 c 128,-1,5
 429 503 429 503 403 503 c 0,6,7
 360 503 360 503 346.5 480.5 c 128,-1,8
 333 458 333 458 333 414 c 2,9,-1
 333 406 l 1,10,-1
 185 406 l 1,11,12
 185 525 185 525 241.5 588 c 128,-1,13
 298 651 298 651 401 651 c 0,14,15
 485 651 485 651 538 630 c 128,-1,16
 591 609 591 609 646 572 c 0,17,18
 681 550 681 550 701 540.5 c 128,-1,19
 721 531 721 531 743 531 c 0,20,21
 790 531 790 531 805 557.5 c 128,-1,22
 820 584 820 584 820 645 c 1,23,-1
 976 645 l 1,24,25
 976 515 976 515 916 447 c 128,-1,26
 856 379 856 379 737 379 c 0,0,1
EndSplineSet
EndChar

StartChar: exclamdown
Encoding: 161 161 99
Width: 635
GlyphClass: 1
Flags: W
LayerCount: 2
Fore
SplineSet
499 757 m 1,0,-1
 255 757 l 1,1,-1
 310 999 l 1,2,-1
 554 999 l 1,3,-1
 499 757 l 1,0,-1
211 -435 m 1,4,-1
 -8 -435 l 1,5,-1
 256 586 l 1,6,-1
 418 586 l 1,7,-1
 211 -435 l 1,4,-1
EndSplineSet
EndChar

StartChar: cent
Encoding: 162 162 100
Width: 1125
GlyphClass: 1
Flags: W
LayerCount: 2
Fore
SplineSet
507 -205 m 1,0,-1
 347 -205 l 1,1,-1
 398 -17 l 1,2,3
 258 6 258 6 187.5 107 c 128,-1,4
 117 208 117 208 117 356 c 0,5,6
 117 509 117 509 178.5 651 c 128,-1,7
 240 793 240 793 353.5 891 c 128,-1,8
 467 989 467 989 624 1016 c 1,9,-1
 673 1200 l 1,10,-1
 831 1200 l 1,11,-1
 782 1013 l 1,12,13
 1008 978 1008 978 1064 723 c 1,14,-1
 859 665 l 1,15,16
 856 752 856 752 814 796 c 128,-1,17
 772 840 772 840 684 840 c 0,18,19
 592 840 592 840 520.5 789 c 128,-1,20
 449 738 449 738 401.5 656.5 c 128,-1,21
 354 575 354 575 332 478 c 0,22,23
 318 416 318 416 318 359 c 0,24,25
 318 267 318 267 361.5 211.5 c 128,-1,26
 405 156 405 156 501 156 c 256,27,28
 597 156 597 156 667 208 c 128,-1,29
 737 260 737 260 782 349 c 1,30,-1
 947 258 l 1,31,32
 808 18 808 18 554 -21 c 1,33,-1
 507 -205 l 1,0,-1
EndSplineSet
EndChar

StartChar: sterling
Encoding: 163 163 101
Width: 1214
GlyphClass: 1
Flags: W
LayerCount: 2
Fore
SplineSet
1063 0 m 1,0,-1
 31 0 l 1,1,-1
 70 170 l 1,2,3
 244 260 244 260 321.5 365 c 128,-1,4
 399 470 399 470 399 620 c 1,5,-1
 176 620 l 1,6,-1
 218 793 l 1,7,-1
 399 793 l 1,8,9
 390 847 390 847 390 901 c 0,10,11
 390 1039 390 1039 450 1163.5 c 128,-1,12
 510 1288 510 1288 629 1368 c 0,13,14
 742 1442 742 1442 887 1442 c 0,15,16
 988 1442 988 1442 1064 1398 c 128,-1,17
 1140 1354 1140 1354 1185.5 1283.5 c 128,-1,18
 1231 1213 1231 1213 1243 1129 c 1,19,-1
 1065 1085 l 1,20,21
 1052 1171 1052 1171 997.5 1215.5 c 128,-1,22
 943 1260 943 1260 871 1260 c 0,23,24
 773 1260 773 1260 705 1206.5 c 128,-1,25
 637 1153 637 1153 601 1068.5 c 128,-1,26
 565 984 565 984 565 889 c 0,27,28
 565 846 565 846 575 793 c 1,29,-1
 1056 793 l 1,30,-1
 1014 620 l 1,31,-1
 575 620 l 1,32,33
 575 479 575 479 522.5 357.5 c 128,-1,34
 470 236 470 236 359 178 c 1,35,-1
 1105 182 l 1,36,-1
 1063 0 l 1,0,-1
EndSplineSet
EndChar

StartChar: currency
Encoding: 164 164 102
Width: 1162
GlyphClass: 1
Flags: W
LayerCount: 2
Fore
SplineSet
872 141 m 1,0,-1
 790 243 l 1,1,2
 659 164 659 164 522 164 c 0,3,4
 451 164 451 164 385.5 186.5 c 128,-1,5
 320 209 320 209 267 254 c 1,6,-1
 131 141 l 1,7,-1
 37 264 l 1,8,-1
 174 375 l 1,9,10
 138 450 138 450 138 541 c 256,11,12
 138 632 138 632 176 726 c 128,-1,13
 214 820 214 820 290 901 c 1,14,-1
 209 995 l 1,15,-1
 351 1119 l 1,16,-1
 432 1017 l 1,17,18
 563 1097 563 1097 703 1097 c 0,19,20
 847 1097 847 1097 955 1008 c 1,21,-1
 1089 1117 l 1,22,-1
 1184 999 l 1,23,-1
 1051 888 l 1,24,25
 1087 813 1087 813 1087 722 c 256,26,27
 1087 631 1087 631 1048.5 536 c 128,-1,28
 1010 441 1010 441 933 359 c 1,29,-1
 1016 264 l 1,30,-1
 872 141 l 1,0,-1
533 334 m 256,31,32
 594 334 594 334 660.5 360 c 128,-1,33
 727 386 727 386 788 436 c 0,34,35
 857 492 857 492 893 565 c 128,-1,36
 929 638 929 638 929 708 c 0,37,38
 929 809 929 809 863.5 868 c 128,-1,39
 798 927 798 927 703 927 c 0,40,41
 609 927 609 927 505 866.5 c 128,-1,42
 401 806 401 806 344 701 c 0,43,44
 306 626 306 626 306 552 c 0,45,46
 306 484 306 484 337.5 435 c 128,-1,47
 369 386 369 386 420.5 360 c 128,-1,48
 472 334 472 334 533 334 c 256,31,32
EndSplineSet
EndChar

StartChar: yen
Encoding: 165 165 103
Width: 1318
GlyphClass: 1
Flags: W
LayerCount: 2
Fore
SplineSet
638 0 m 1,0,-1
 450 0 l 1,1,-1
 502 226 l 1,2,-1
 203 226 l 1,3,-1
 240 390 l 1,4,-1
 539 390 l 1,5,-1
 567 507 l 1,6,-1
 268 507 l 1,7,-1
 306 671 l 1,8,-1
 531 671 l 1,9,-1
 228 1413 l 1,10,-1
 448 1413 l 1,11,-1
 709 734 l 1,12,-1
 1288 1413 l 1,13,-1
 1516 1413 l 1,14,-1
 872 670 l 1,15,-1
 1092 670 l 1,16,-1
 1055 507 l 1,17,-1
 756 507 l 1,18,-1
 727 390 l 1,19,-1
 1027 390 l 1,20,-1
 990 226 l 1,21,-1
 691 226 l 1,22,-1
 638 0 l 1,0,-1
EndSplineSet
EndChar

StartChar: brokenbar
Encoding: 166 166 104
Width: 637
GlyphClass: 1
Flags: W
LayerCount: 2
Fore
SplineSet
458 731 m 1,0,-1
 286 731 l 1,1,-1
 458 1475 l 1,2,-1
 630 1475 l 1,3,-1
 458 731 l 1,0,-1
218 -307 m 1,4,-1
 47 -307 l 1,5,-1
 215 420 l 1,6,-1
 386 420 l 1,7,-1
 218 -307 l 1,4,-1
EndSplineSet
EndChar

StartChar: section
Encoding: 167 167 105
Width: 1114
GlyphClass: 1
Flags: W
LayerCount: 2
Fore
SplineSet
457 -18 m 0,0,1
 352 -18 352 -18 267.5 15.5 c 128,-1,2
 183 49 183 49 134 117 c 128,-1,3
 85 185 85 185 85 282 c 1,4,-1
 298 326 l 1,5,-1
 298 320 l 2,6,7
 298 232 298 232 344 195 c 128,-1,8
 390 158 390 158 484 158 c 0,9,10
 579 158 579 158 649.5 195 c 128,-1,11
 720 232 720 232 736 307 c 0,12,13
 739 319 739 319 739 329 c 0,14,15
 739 364 739 364 712.5 385 c 128,-1,16
 686 406 686 406 645.5 419 c 128,-1,17
 605 432 605 432 536 447 c 0,18,19
 438 470 438 470 378 491.5 c 128,-1,20
 318 513 318 513 274.5 558 c 128,-1,21
 231 603 231 603 231 678 c 0,22,23
 231 824 231 824 378 951 c 1,24,25
 327 1000 327 1000 327 1082 c 0,26,27
 327 1112 327 1112 335 1149 c 0,28,29
 356 1239 356 1239 422 1303.5 c 128,-1,30
 488 1368 488 1368 579 1401 c 128,-1,31
 670 1434 670 1434 764 1434 c 0,32,33
 853 1434 853 1434 924 1406 c 128,-1,34
 995 1378 995 1378 1040 1328 c 128,-1,35
 1085 1278 1085 1278 1101 1216 c 1,36,-1
 910 1143 l 1,37,38
 901 1264 901 1264 743 1264 c 0,39,40
 683 1264 683 1264 632.5 1242.5 c 128,-1,41
 582 1221 582 1221 548.5 1185 c 128,-1,42
 515 1149 515 1149 505 1105 c 0,43,44
 503 1098 503 1098 503 1086 c 0,45,46
 503 1056 503 1056 528.5 1036.5 c 128,-1,47
 554 1017 554 1017 591 1005.5 c 128,-1,48
 628 994 628 994 697 979 c 0,49,50
 796 958 796 958 859 936 c 128,-1,51
 922 914 922 914 967 867.5 c 128,-1,52
 1012 821 1012 821 1012 741 c 0,53,54
 1012 585 1012 585 870 466 c 1,55,56
 919 417 919 417 919 337 c 0,57,58
 919 304 919 304 910 266 c 0,59,60
 888 169 888 169 817.5 104.5 c 128,-1,61
 747 40 747 40 652.5 11 c 128,-1,62
 558 -18 558 -18 457 -18 c 0,0,1
691 561 m 1,63,64
 801 599 801 599 828 706 c 0,65,66
 831 720 831 720 831 730 c 0,67,68
 831 798 831 798 731 827 c 0,69,70
 701 836 701 836 555 868 c 1,71,72
 497 845 497 845 461.5 803 c 128,-1,73
 426 761 426 761 415 714 c 0,74,75
 413 707 413 707 413 694 c 0,76,77
 413 630 413 630 514 603 c 0,78,79
 555 590 555 590 691 561 c 1,63,64
EndSplineSet
EndChar

StartChar: copyright
Encoding: 169 169 107
Width: 1785
GlyphClass: 1
Flags: W
LayerCount: 2
Fore
SplineSet
941 -50 m 0,0,1
 794 -50 794 -50 665.5 -1.5 c 128,-1,2
 537 47 537 47 436.5 131.5 c 128,-1,3
 336 216 336 216 269 328 c 0,4,5
 164 501 164 501 164 707 c 0,6,7
 164 850 164 850 213.5 974.5 c 128,-1,8
 263 1099 263 1099 350 1197 c 128,-1,9
 437 1295 437 1295 552 1361 c 0,10,11
 730 1463 730 1463 941 1463 c 0,12,13
 1088 1463 1088 1463 1216 1414.5 c 128,-1,14
 1344 1366 1344 1366 1444.5 1281.5 c 128,-1,15
 1545 1197 1545 1197 1613 1086 c 0,16,17
 1717 912 1717 912 1717 707 c 0,18,19
 1717 563 1717 563 1667.5 438.5 c 128,-1,20
 1618 314 1618 314 1531 215.5 c 128,-1,21
 1444 117 1444 117 1330 52 c 0,22,23
 1152 -50 1152 -50 941 -50 c 0,0,1
941 117 m 0,24,25
 1054 117 1054 117 1154 155.5 c 128,-1,26
 1254 194 1254 194 1334 261 c 128,-1,27
 1414 328 1414 328 1467 415 c 0,28,29
 1550 550 1550 550 1550 707 c 0,30,31
 1550 872 1550 872 1465 1004.5 c 128,-1,32
 1380 1137 1380 1137 1244 1216 c 0,33,34
 1103 1296 1103 1296 941 1296 c 0,35,36
 827 1296 827 1296 727 1258 c 128,-1,37
 627 1220 627 1220 547.5 1153 c 128,-1,38
 468 1086 468 1086 415 1000 c 0,39,40
 332 864 332 864 332 707 c 0,41,42
 332 542 332 542 417 409 c 128,-1,43
 502 276 502 276 639 198 c 0,44,45
 779 117 779 117 941 117 c 0,24,25
957 275 m 0,46,47
 831 275 831 275 747 334.5 c 128,-1,48
 663 394 663 394 621.5 491.5 c 128,-1,49
 580 589 580 589 580 705 c 0,50,51
 580 788 580 788 602.5 865 c 128,-1,52
 625 942 625 942 671.5 1002.5 c 128,-1,53
 718 1063 718 1063 789 1098.5 c 128,-1,54
 860 1134 860 1134 957 1134 c 0,55,56
 1190 1134 1190 1134 1297 907 c 1,57,-1
 1143 842 l 1,58,59
 1113 905 1113 905 1069 935.5 c 128,-1,60
 1025 966 1025 966 957 966 c 0,61,62
 851 966 851 966 797.5 892.5 c 128,-1,63
 744 819 744 819 744 705 c 0,64,65
 744 590 744 590 796.5 517.5 c 128,-1,66
 849 445 849 445 955 445 c 0,67,68
 1087 445 1087 445 1141 570 c 1,69,-1
 1297 504 l 1,70,71
 1191 275 1191 275 957 275 c 0,46,47
EndSplineSet
EndChar

StartChar: ordfeminine
Encoding: 170 170 108
Width: 861
GlyphClass: 2
Flags: W
LayerCount: 2
Fore
SplineSet
408 709 m 0,0,1
 321 709 321 709 261 757 c 128,-1,2
 201 805 201 805 201 891 c 0,3,4
 201 952 201 952 229.5 1006.5 c 128,-1,5
 258 1061 258 1061 314 1094 c 0,6,7
 396 1141 396 1141 520 1141 c 1,8,-1
 728 1150 l 1,9,10
 735 1189 735 1189 735 1209 c 0,11,12
 735 1262 735 1262 705 1286 c 128,-1,13
 675 1310 675 1310 615 1310 c 0,14,15
 501 1310 501 1310 404 1196 c 1,16,-1
 305 1286 l 1,17,18
 378 1362 378 1362 452.5 1398 c 128,-1,19
 527 1434 527 1434 624 1434 c 0,20,21
 747 1434 747 1434 807 1373.5 c 128,-1,22
 867 1313 867 1313 867 1219 c 0,23,24
 867 1182 867 1182 858 1141 c 2,25,-1
 761 723 l 1,26,-1
 639 723 l 1,27,-1
 659 809 l 1,28,29
 604 758 604 758 544 733.5 c 128,-1,30
 484 709 484 709 408 709 c 0,0,1
438 835 m 0,31,32
 497 835 497 835 551 864.5 c 128,-1,33
 605 894 605 894 644.5 938 c 128,-1,34
 684 982 684 982 699 1029 c 1,35,-1
 514 1019 l 2,36,37
 454 1019 454 1019 407 989.5 c 128,-1,38
 360 960 360 960 347 905 c 1,39,-1
 346 895 l 2,40,41
 346 868 346 868 374 851.5 c 128,-1,42
 402 835 402 835 438 835 c 0,31,32
EndSplineSet
EndChar

StartChar: guillemotleft
Encoding: 171 171 109
Width: 960
GlyphClass: 1
Flags: W
LayerCount: 2
Fore
SplineSet
367 165 m 1,0,-1
 35 510 l 1,1,-1
 523 857 l 1,2,-1
 481 662 l 1,3,-1
 261 510 l 1,4,-1
 409 360 l 1,5,-1
 367 165 l 1,0,-1
730 165 m 1,6,-1
 398 510 l 1,7,-1
 886 857 l 1,8,-1
 844 662 l 1,9,-1
 623 510 l 1,10,-1
 772 360 l 1,11,-1
 730 165 l 1,6,-1
EndSplineSet
EndChar

StartChar: logicalnot
Encoding: 172 172 110
Width: 1298
GlyphClass: 1
Flags: W
LayerCount: 2
Fore
SplineSet
1069 291 m 1,0,-1
 864 291 l 1,1,-1
 864 606 l 1,2,-1
 142 606 l 1,3,-1
 142 797 l 1,4,-1
 1069 797 l 1,5,-1
 1069 291 l 1,0,-1
EndSplineSet
EndChar

StartChar: uni00AD
Encoding: 173 173 111
Width: 1001
GlyphClass: 1
Flags: W
LayerCount: 2
Fore
SplineSet
860 530 m 1,0,-1
 155 530 l 1,1,-1
 193 692 l 1,2,-1
 898 692 l 1,3,-1
 860 530 l 1,0,-1
EndSplineSet
EndChar

StartChar: registered
Encoding: 174 174 112
Width: 1785
GlyphClass: 1
Flags: W
LayerCount: 2
Fore
SplineSet
942 -48 m 0,0,1
 794 -48 794 -48 665.5 0.5 c 128,-1,2
 537 49 537 49 436.5 133.5 c 128,-1,3
 336 218 336 218 269 330 c 0,4,5
 164 503 164 503 164 709 c 0,6,7
 164 852 164 852 213.5 976.5 c 128,-1,8
 263 1101 263 1101 350 1199 c 128,-1,9
 437 1297 437 1297 552 1363 c 0,10,11
 730 1465 730 1465 942 1465 c 0,12,13
 1089 1465 1089 1465 1216.5 1416.5 c 128,-1,14
 1344 1368 1344 1368 1444.5 1283.5 c 128,-1,15
 1545 1199 1545 1199 1613 1088 c 0,16,17
 1717 914 1717 914 1717 709 c 0,18,19
 1717 565 1717 565 1667.5 440.5 c 128,-1,20
 1618 316 1618 316 1531 217.5 c 128,-1,21
 1444 119 1444 119 1331 54 c 0,22,23
 1153 -48 1153 -48 942 -48 c 0,0,1
942 111 m 0,24,25
 1115 111 1115 111 1254 194.5 c 128,-1,26
 1393 278 1393 278 1475 412 c 0,27,28
 1559 549 1559 549 1559 709 c 0,29,30
 1559 821 1559 821 1519 919 c 128,-1,31
 1479 1017 1479 1017 1409.5 1094.5 c 128,-1,32
 1340 1172 1340 1172 1249 1225 c 0,33,34
 1107 1306 1107 1306 942 1306 c 0,35,36
 826 1306 826 1306 724 1267.5 c 128,-1,37
 622 1229 622 1229 541.5 1161.5 c 128,-1,38
 461 1094 461 1094 407 1006 c 0,39,40
 323 869 323 869 323 709 c 0,41,42
 323 541 323 541 409 406.5 c 128,-1,43
 495 272 495 272 634 193 c 0,44,45
 776 111 776 111 942 111 c 0,24,25
1323 293 m 1,46,-1
 1134 293 l 1,47,-1
 960 614 l 1,48,-1
 844 614 l 1,49,-1
 844 293 l 1,50,-1
 679 293 l 1,51,-1
 679 1110 l 1,52,-1
 995 1110 l 2,53,54
 1137 1110 1137 1110 1204.5 1041.5 c 128,-1,55
 1272 973 1272 973 1272 862 c 0,56,57
 1272 770 1272 770 1230 714.5 c 128,-1,58
 1188 659 1188 659 1123 636 c 1,59,-1
 1323 293 l 1,46,-1
995 769 m 2,60,61
 1059 769 1059 769 1088.5 790 c 128,-1,62
 1118 811 1118 811 1118 862 c 0,63,64
 1118 915 1118 915 1089.5 935 c 128,-1,65
 1061 955 1061 955 995 955 c 2,66,-1
 834 955 l 1,67,-1
 834 769 l 1,68,-1
 995 769 l 2,60,61
EndSplineSet
EndChar

StartChar: degree
Encoding: 176 176 114
Width: 856
GlyphClass: 1
Flags: W
LayerCount: 2
Fore
SplineSet
427 848 m 0,0,1
 342 848 342 848 276 889 c 128,-1,2
 210 930 210 930 172 997 c 128,-1,3
 134 1064 134 1064 134 1141 c 0,4,5
 134 1227 134 1227 175.5 1293 c 128,-1,6
 217 1359 217 1359 284 1396.5 c 128,-1,7
 351 1434 351 1434 427 1434 c 0,8,9
 511 1434 511 1434 577 1393 c 128,-1,10
 643 1352 643 1352 681 1285.5 c 128,-1,11
 719 1219 719 1219 719 1141 c 0,12,13
 719 1056 719 1056 678 990 c 128,-1,14
 637 924 637 924 570.5 886 c 128,-1,15
 504 848 504 848 427 848 c 0,0,1
427 990 m 0,16,17
 491 990 491 990 535 1034 c 128,-1,18
 579 1078 579 1078 579 1141 c 0,19,20
 579 1207 579 1207 532.5 1249.5 c 128,-1,21
 486 1292 486 1292 427 1292 c 0,22,23
 362 1292 362 1292 319 1246.5 c 128,-1,24
 276 1201 276 1201 276 1141 c 0,25,26
 276 1075 276 1075 322 1032.5 c 128,-1,27
 368 990 368 990 427 990 c 0,16,17
EndSplineSet
EndChar

StartChar: plusminus
Encoding: 177 177 115
Width: 1330
GlyphClass: 1
Flags: W
LayerCount: 2
Fore
SplineSet
746 106 m 1,0,-1
 584 106 l 1,1,-1
 584 544 l 1,2,-1
 127 544 l 1,3,-1
 127 706 l 1,4,-1
 584 706 l 1,5,-1
 584 1143 l 1,6,-1
 746 1143 l 1,7,-1
 746 706 l 1,8,-1
 1203 706 l 1,9,-1
 1203 544 l 1,10,-1
 746 544 l 1,11,-1
 746 106 l 1,0,-1
1201 -162 m 1,12,-1
 129 -162 l 1,13,-1
 129 0 l 1,14,-1
 1201 0 l 1,15,-1
 1201 -162 l 1,12,-1
EndSplineSet
EndChar

StartChar: twosuperior
Encoding: 178 178 116
Width: 810
GlyphClass: 2
Flags: W
LayerCount: 2
Fore
SplineSet
668 486 m 1,0,-1
 -31 486 l 1,1,-1
 -5 627 l 1,2,3
 95 681 95 681 195 743 c 128,-1,4
 295 805 295 805 391 881 c 1,5,6
 585 1016 585 1016 624 1160 c 0,7,8
 629 1182 629 1182 629 1200 c 0,9,10
 629 1240 629 1240 603 1265 c 128,-1,11
 577 1290 577 1290 522 1290 c 0,12,13
 462 1290 462 1290 416.5 1261.5 c 128,-1,14
 371 1233 371 1233 339.5 1186.5 c 128,-1,15
 308 1140 308 1140 292 1084 c 1,16,-1
 150 1105 l 1,17,18
 173 1199 173 1199 228 1275 c 128,-1,19
 283 1351 283 1351 364.5 1396 c 128,-1,20
 446 1441 446 1441 546 1441 c 0,21,22
 665 1441 665 1441 731.5 1380.5 c 128,-1,23
 798 1320 798 1320 798 1226 c 0,24,25
 798 1103 798 1103 685 972 c 0,26,27
 605 878 605 878 476 777 c 1,28,29
 357 693 357 693 240 632 c 1,30,-1
 703 636 l 1,31,-1
 668 486 l 1,0,-1
EndSplineSet
EndChar

StartChar: threesuperior
Encoding: 179 179 117
Width: 833
GlyphClass: 2
Flags: W
LayerCount: 2
Fore
SplineSet
331 463 m 0,0,1
 248 463 248 463 180 489 c 128,-1,2
 112 515 112 515 71 568 c 128,-1,3
 30 621 30 621 30 701 c 0,4,5
 30 736 30 736 40 778 c 1,6,-1
 198 776 l 1,7,8
 192 753 192 753 192 736 c 0,9,10
 192 675 192 675 236.5 645.5 c 128,-1,11
 281 616 281 616 348 616 c 0,12,13
 429 616 429 616 500.5 657.5 c 128,-1,14
 572 699 572 699 594 778 c 0,15,16
 599 795 599 795 599 812 c 0,17,18
 599 862 599 862 555.5 886 c 128,-1,19
 512 910 512 910 445 910 c 2,20,-1
 355 910 l 1,21,-1
 386 1060 l 1,22,-1
 469 1060 l 2,23,24
 530 1060 530 1060 577.5 1092.5 c 128,-1,25
 625 1125 625 1125 642 1188 c 0,26,27
 645 1202 645 1202 646 1213 c 0,28,29
 646 1254 646 1254 612 1274.5 c 128,-1,30
 578 1295 578 1295 527 1295 c 0,31,32
 457 1295 457 1295 401.5 1257 c 128,-1,33
 346 1219 346 1219 328 1156 c 1,34,-1
 194 1177 l 1,35,36
 229 1311 229 1311 330 1381 c 128,-1,37
 431 1451 431 1451 552 1451 c 0,38,39
 621 1451 621 1451 679 1426.5 c 128,-1,40
 737 1402 737 1402 772 1355 c 128,-1,41
 807 1308 807 1308 807 1241 c 0,42,43
 807 1206 807 1206 793 1162 c 128,-1,44
 779 1118 779 1118 746 1075 c 0,45,46
 707 1025 707 1025 647 990 c 1,47,48
 754 939 754 939 754 816 c 0,49,50
 754 701 754 701 686.5 617 c 128,-1,51
 619 533 619 533 515 495 c 0,52,53
 428 463 428 463 331 463 c 0,0,1
EndSplineSet
EndChar

StartChar: uni00B5
Encoding: 181 181 119
Width: 1343
GlyphClass: 1
Flags: W
LayerCount: 2
Fore
SplineSet
249 -266 m 1,0,-1
 57 -266 l 1,1,-1
 360 1039 l 1,2,-1
 573 1039 l 1,3,-1
 432 415 l 2,4,5
 416 347 416 347 416 301 c 0,6,7
 416 166 416 166 550 166 c 0,8,9
 633 166 633 166 710.5 209.5 c 128,-1,10
 788 253 788 253 842 320 c 128,-1,11
 896 387 896 387 914 460 c 2,12,-1
 1046 1039 l 1,13,-1
 1259 1039 l 1,14,-1
 1021 0 l 1,15,-1
 807 0 l 1,16,-1
 837 113 l 1,17,18
 778 56 778 56 692 16.5 c 128,-1,19
 606 -23 606 -23 513 -23 c 0,20,21
 418 -23 418 -23 342 18 c 1,22,-1
 249 -266 l 1,0,-1
EndSplineSet
EndChar

StartChar: paragraph
Encoding: 182 182 120
Width: 1292
GlyphClass: 1
Flags: W
LayerCount: 2
Fore
SplineSet
524 -246 m 1,0,-1
 365 -246 l 1,1,-1
 571 623 l 1,2,3
 473 623 473 623 387.5 659.5 c 128,-1,4
 302 696 302 696 249.5 767.5 c 128,-1,5
 197 839 197 839 197 943 c 0,6,7
 197 1052 197 1052 244.5 1139 c 128,-1,8
 292 1226 292 1226 370.5 1287 c 128,-1,9
 449 1348 449 1348 545.5 1380.5 c 128,-1,10
 642 1413 642 1413 741 1413 c 2,11,-1
 907 1413 l 1,12,-1
 524 -246 l 1,0,-1
881 -246 m 1,13,-1
 720 -246 l 1,14,-1
 1103 1413 l 1,15,-1
 1264 1413 l 1,16,-1
 881 -246 l 1,13,-1
EndSplineSet
EndChar

StartChar: periodcentered
Encoding: 183 183 121
Width: 627
GlyphClass: 1
Flags: W
LayerCount: 2
Fore
SplineSet
363 666 m 0,0,1
 308 666 308 666 276 702 c 128,-1,2
 244 738 244 738 244 790 c 0,3,4
 244 867 244 867 305 914 c 0,5,6
 349 948 349 948 403 948 c 0,7,8
 459 948 459 948 492.5 913.5 c 128,-1,9
 526 879 526 879 526 826 c 0,10,11
 526 810 526 810 521 788 c 0,12,13
 508 736 508 736 463.5 701 c 128,-1,14
 419 666 419 666 363 666 c 0,0,1
EndSplineSet
EndChar

StartChar: cedilla
Encoding: 184 184 122
Width: 554
GlyphClass: 4
Flags: W
AnchorPoint: "Anchor-3" 37 -500 basemark 0
LayerCount: 2
Fore
SplineSet
31 -517 m 0,0,1
 -38 -517 -38 -517 -83.5 -477 c 128,-1,2
 -129 -437 -129 -437 -141 -380 c 1,3,-1
 -11 -343 l 1,4,5
 -10 -366 -10 -366 4.5 -377.5 c 128,-1,6
 19 -389 19 -389 41 -389 c 0,7,8
 86 -389 86 -389 119 -359 c 0,9,10
 159 -323 159 -323 166 -270 c 1,11,12
 166 -237 166 -237 130 -213.5 c 128,-1,13
 94 -190 94 -190 24 -190 c 2,14,-1
 -45 -190 l 1,15,-1
 107 -2 l 1,16,-1
 248 -2 l 1,17,-1
 141 -107 l 1,18,19
 219 -116 219 -116 257 -158.5 c 128,-1,20
 295 -201 295 -201 295 -263 c 0,21,22
 295 -328 295 -328 260 -386 c 128,-1,23
 225 -444 225 -444 165 -480.5 c 128,-1,24
 105 -517 105 -517 31 -517 c 0,0,1
EndSplineSet
EndChar

StartChar: onesuperior
Encoding: 185 185 123
Width: 847
GlyphClass: 2
Flags: W
LayerCount: 2
Fore
SplineSet
473 486 m 1,0,-1
 306 486 l 1,1,-1
 488 1171 l 1,2,-1
 251 1171 l 1,3,-1
 302 1302 l 1,4,-1
 413 1302 l 2,5,6
 465 1302 465 1302 501.5 1331 c 128,-1,7
 538 1360 538 1360 550 1404 c 2,8,-1
 556 1428 l 1,9,-1
 723 1428 l 1,10,-1
 473 486 l 1,0,-1
EndSplineSet
EndChar

StartChar: ordmasculine
Encoding: 186 186 124
Width: 877
GlyphClass: 2
Flags: W
LayerCount: 2
Fore
SplineSet
500 711 m 0,0,1
 408 711 408 711 343.5 749 c 128,-1,2
 279 787 279 787 245.5 852 c 128,-1,3
 212 917 212 917 212 997 c 0,4,5
 212 1117 212 1117 272 1216.5 c 128,-1,6
 332 1316 332 1316 430.5 1375 c 128,-1,7
 529 1434 529 1434 642 1434 c 0,8,9
 734 1434 734 1434 798 1396 c 128,-1,10
 862 1358 862 1358 895.5 1293 c 128,-1,11
 929 1228 929 1228 929 1149 c 0,12,13
 929 1084 929 1084 905.5 1014 c 128,-1,14
 882 944 882 944 834 881 c 0,15,16
 775 805 775 805 689 758 c 128,-1,17
 603 711 603 711 500 711 c 0,0,1
506 845 m 0,18,19
 578 845 578 845 631 877.5 c 128,-1,20
 684 910 684 910 718.5 966 c 128,-1,21
 753 1022 753 1022 770 1093 c 0,22,23
 779 1131 779 1131 779 1166 c 0,24,25
 779 1227 779 1227 745.5 1264.5 c 128,-1,26
 712 1302 712 1302 636 1302 c 0,27,28
 563 1302 563 1302 509 1269 c 128,-1,29
 455 1236 455 1236 420.5 1180 c 128,-1,30
 386 1124 386 1124 370 1053 c 0,31,32
 361 1016 361 1016 361 981 c 0,33,34
 361 920 361 920 395 882.5 c 128,-1,35
 429 845 429 845 506 845 c 0,18,19
EndSplineSet
EndChar

StartChar: guillemotright
Encoding: 187 187 125
Width: 962
GlyphClass: 1
Flags: W
LayerCount: 2
Fore
SplineSet
76 165 m 1,0,-1
 118 360 l 1,1,-1
 338 510 l 1,2,-1
 192 662 l 1,3,-1
 232 857 l 1,4,-1
 564 510 l 1,5,-1
 76 165 l 1,0,-1
439 165 m 1,6,-1
 480 360 l 1,7,-1
 701 510 l 1,8,-1
 554 662 l 1,9,-1
 594 857 l 1,10,-1
 927 510 l 1,11,-1
 439 165 l 1,6,-1
EndSplineSet
EndChar

StartChar: questiondown
Encoding: 191 191 126
Width: 1005
GlyphClass: 1
Flags: W
LayerCount: 2
Fore
SplineSet
691 757 m 1,0,-1
 446 757 l 1,1,-1
 501 999 l 1,2,-1
 745 999 l 1,3,-1
 691 757 l 1,0,-1
317 -434 m 0,4,5
 215 -434 215 -434 131 -400.5 c 128,-1,6
 47 -367 47 -367 -3.5 -299 c 128,-1,7
 -54 -231 -54 -231 -54 -128 c 0,8,9
 -54 -61 -54 -61 -32.5 9.5 c 128,-1,10
 -11 80 -11 80 27 133 c 0,11,12
 70 192 70 192 123 229 c 128,-1,13
 176 266 176 266 253 302 c 0,14,15
 322 334 322 334 358.5 362 c 128,-1,16
 395 390 395 390 404 431 c 2,17,-1
 441 590 l 1,18,-1
 626 590 l 1,19,-1
 584 410 l 2,20,21
 549 267 549 267 451 204 c 0,22,23
 404 174 404 174 343 143 c 0,24,25
 287 114 287 114 248 90 c 0,26,27
 172 45 172 45 139 -70 c 0,28,29
 133 -97 133 -97 133 -120 c 0,30,31
 133 -191 133 -191 185.5 -222 c 128,-1,32
 238 -253 238 -253 324 -253 c 0,33,34
 431 -253 431 -253 517 -193 c 128,-1,35
 603 -133 603 -133 632 -25 c 1,36,-1
 821 -43 l 1,37,38
 771 -234 771 -234 628.5 -334 c 128,-1,39
 486 -434 486 -434 317 -434 c 0,4,5
EndSplineSet
EndChar

StartChar: Aring
Encoding: 197 197 132
Width: 1335
GlyphClass: 1
Flags: W
LayerCount: 2
Fore
SplineSet
1188 0 m 1,0,-1
 958 0 l 1,1,-1
 920 307 l 1,2,-1
 340 307 l 1,3,-1
 161 0 l 1,4,-1
 -87 0 l 1,5,-1
 748 1334 l 1,6,7
 679 1387 679 1387 679 1483 c 0,8,9
 679 1517 679 1517 693.5 1560 c 128,-1,10
 708 1603 708 1603 740 1641 c 0,11,12
 828 1738 828 1738 939 1738 c 0,13,14
 1022 1738 1022 1738 1075 1684.5 c 128,-1,15
 1128 1631 1128 1631 1128 1553 c 0,16,17
 1128 1481 1128 1481 1087.5 1420.5 c 128,-1,18
 1047 1360 1047 1360 980 1325 c 1,19,-1
 1188 0 l 1,0,-1
880 1407 m 0,20,21
 938 1407 938 1407 975.5 1450.5 c 128,-1,22
 1013 1494 1013 1494 1013 1542 c 0,23,24
 1013 1583 1013 1583 988 1604 c 128,-1,25
 963 1625 963 1625 924 1625 c 0,26,27
 883 1625 883 1625 853.5 1604.5 c 128,-1,28
 824 1584 824 1584 808.5 1553 c 128,-1,29
 793 1522 793 1522 793 1491 c 0,30,31
 793 1453 793 1453 817.5 1430 c 128,-1,32
 842 1407 842 1407 880 1407 c 0,20,21
889 502 m 1,33,-1
 815 1094 l 1,34,-1
 462 502 l 1,35,-1
 889 502 l 1,33,-1
EndSplineSet
Position2: "'cpsp' Capital Spacing lookup 0 per glyph data 0" dx=5 dy=0 dh=10 dv=0
EndChar

StartChar: AE
Encoding: 198 198 133
Width: 1847
GlyphClass: 1
Flags: W
LayerCount: 2
Fore
SplineSet
1628 0 m 1,0,-1
 672 0 l 1,1,-1
 741 307 l 1,2,-1
 325 307 l 1,3,-1
 144 0 l 1,4,-1
 -87 0 l 1,5,-1
 787 1413 l 1,6,-1
 1954 1413 l 1,7,-1
 1911 1226 l 1,8,-1
 1163 1226 l 1,9,-1
 1064 801 l 1,10,-1
 1724 801 l 1,11,-1
 1680 612 l 1,12,-1
 1021 612 l 1,13,-1
 924 193 l 1,14,-1
 1672 193 l 1,15,-1
 1628 0 l 1,0,-1
783 486 m 1,16,-1
 954 1226 l 1,17,-1
 889 1226 l 1,18,-1
 436 486 l 1,19,-1
 783 486 l 1,16,-1
EndSplineSet
Position2: "'cpsp' Capital Spacing lookup 0 per glyph data 0" dx=5 dy=0 dh=10 dv=0
EndChar

StartChar: Ccedilla
Encoding: 199 199 134
Width: 1431
GlyphClass: 1
Flags: W
LayerCount: 2
Fore
SplineSet
527 -517 m 0,0,1
 458 -517 458 -517 412.5 -477 c 128,-1,2
 367 -437 367 -437 355 -380 c 1,3,-1
 485 -343 l 1,4,5
 486 -366 486 -366 500.5 -377.5 c 128,-1,6
 515 -389 515 -389 537 -389 c 0,7,8
 582 -389 582 -389 615 -359 c 0,9,10
 655 -323 655 -323 662 -270 c 1,11,12
 662 -237 662 -237 626 -213.5 c 128,-1,13
 590 -190 590 -190 520 -190 c 2,14,-1
 451 -190 l 1,15,-1
 591 -17 l 1,16,17
 431 -3 431 -3 327 66.5 c 128,-1,18
 223 136 223 136 173 249 c 128,-1,19
 123 362 123 362 123 504 c 0,20,21
 123 650 123 650 170 802.5 c 128,-1,22
 217 955 217 955 304 1084 c 0,23,24
 413 1245 413 1245 582 1340.5 c 128,-1,25
 751 1436 751 1436 967 1436 c 0,26,27
 1179 1436 1179 1436 1319 1332 c 128,-1,28
 1459 1228 1459 1228 1489 1030 c 1,29,-1
 1269 965 l 1,30,31
 1260 1105 1260 1105 1172.5 1172 c 128,-1,32
 1085 1239 1085 1239 942 1239 c 0,33,34
 718 1239 718 1239 562 1078 c 0,35,36
 420 931 420 931 365 697 c 0,37,38
 343 601 343 601 343 522 c 0,39,40
 343 368 343 368 425.5 279.5 c 128,-1,41
 508 191 508 191 681 191 c 0,42,43
 836 191 836 191 952.5 262.5 c 128,-1,44
 1069 334 1069 334 1154 473 c 1,45,-1
 1342 369 l 1,46,47
 1221 187 1221 187 1063 92.5 c 128,-1,48
 905 -2 905 -2 729 -17 c 1,49,-1
 637 -107 l 1,50,51
 715 -116 715 -116 753 -158.5 c 128,-1,52
 791 -201 791 -201 791 -263 c 0,53,54
 791 -328 791 -328 756 -386 c 128,-1,55
 721 -444 721 -444 661 -480.5 c 128,-1,56
 601 -517 601 -517 527 -517 c 0,0,1
EndSplineSet
Position2: "'cpsp' Capital Spacing lookup 0 per glyph data 0" dx=5 dy=0 dh=10 dv=0
EndChar

StartChar: Eth
Encoding: 208 208 143
Width: 1430
GlyphClass: 1
Flags: W
LayerCount: 2
Fore
SplineSet
491 0 m 2,0,-1
 99 0 l 1,1,-1
 244 631 l 1,2,-1
 132 631 l 1,3,-1
 168 794 l 1,4,-1
 281 794 l 1,5,-1
 424 1413 l 1,6,-1
 807 1413 l 2,7,8
 1096 1413 1096 1413 1250.5 1283 c 128,-1,9
 1405 1153 1405 1153 1405 903 c 0,10,11
 1405 797 1405 797 1377 676 c 0,12,13
 1297 345 1297 345 1065.5 172.5 c 128,-1,14
 834 0 834 0 491 0 c 2,0,-1
499 197 m 2,15,16
 751 197 751 197 931.5 328 c 128,-1,17
 1112 459 1112 459 1176 727 c 0,18,19
 1197 818 1197 818 1197 893 c 0,20,21
 1197 1062 1197 1062 1089 1140.5 c 128,-1,22
 981 1219 981 1219 771 1219 c 2,23,-1
 590 1219 l 1,24,-1
 492 794 l 1,25,-1
 873 794 l 1,26,-1
 836 631 l 1,27,-1
 455 631 l 1,28,-1
 354 197 l 1,29,-1
 499 197 l 2,15,16
EndSplineSet
Position2: "'cpsp' Capital Spacing lookup 0 per glyph data 0" dx=5 dy=0 dh=10 dv=0
EndChar

StartChar: multiply
Encoding: 215 215 150
Width: 1097
GlyphClass: 1
Flags: W
LayerCount: 2
Fore
SplineSet
225 187 m 1,0,-1
 111 301 l 1,1,-1
 433 625 l 1,2,-1
 124 933 l 1,3,-1
 240 1049 l 1,4,-1
 549 740 l 1,5,-1
 872 1062 l 1,6,-1
 986 948 l 1,7,-1
 664 625 l 1,8,-1
 973 316 l 1,9,-1
 858 200 l 1,10,-1
 549 509 l 1,11,-1
 225 187 l 1,0,-1
EndSplineSet
EndChar

StartChar: Oslash
Encoding: 216 216 151
Width: 1527
GlyphClass: 1
Flags: W
LayerCount: 2
Fore
SplineSet
656 -20 m 0,0,1
 476 -20 476 -20 354 49 c 1,2,-1
 313 0 l 1,3,-1
 142 0 l 1,4,-1
 250 131 l 1,5,6
 184 202 184 202 153 298 c 128,-1,7
 122 394 122 394 122 505 c 0,8,9
 122 653 122 653 169.5 804 c 128,-1,10
 217 955 217 955 303 1083 c 0,11,12
 412 1243 412 1243 581 1338.5 c 128,-1,13
 750 1434 750 1434 966 1434 c 0,14,15
 1144 1434 1144 1434 1268 1365 c 1,16,-1
 1308 1413 l 1,17,-1
 1478 1413 l 1,18,-1
 1372 1284 l 1,19,20
 1500 1144 1500 1144 1500 907 c 0,21,22
 1500 763 1500 763 1454 612.5 c 128,-1,23
 1408 462 1408 462 1320 332 c 0,24,25
 1211 171 1211 171 1041.5 75.5 c 128,-1,26
 872 -20 872 -20 656 -20 c 0,0,1
398 311 m 1,27,-1
 1127 1194 l 1,28,29
 1054 1233 1054 1233 944 1233 c 0,30,31
 791 1233 791 1233 674 1159 c 0,32,33
 554 1081 554 1081 480 958 c 128,-1,34
 406 835 406 835 373 687 c 0,35,36
 351 590 351 590 351 510 c 0,37,38
 351 389 351 389 398 311 c 1,27,-1
676 180 m 0,39,40
 833 180 833 180 949 254 c 128,-1,41
 1065 328 1065 328 1140.5 451.5 c 128,-1,42
 1216 575 1216 575 1251 727 c 0,43,44
 1273 823 1273 823 1273 902 c 0,45,46
 1273 1025 1273 1025 1223 1104 c 1,47,-1
 494 220 l 1,48,49
 566 180 566 180 676 180 c 0,39,40
EndSplineSet
Position2: "'cpsp' Capital Spacing lookup 0 per glyph data 0" dx=5 dy=0 dh=10 dv=0
EndChar

StartChar: Thorn
Encoding: 222 222 157
Width: 1150
GlyphClass: 1
Flags: W
LayerCount: 2
Fore
SplineSet
287 0 m 1,0,-1
 78 0 l 1,1,-1
 403 1413 l 1,2,-1
 612 1413 l 1,3,-1
 567 1217 l 1,4,-1
 815 1217 l 2,5,6
 937 1217 937 1217 1017.5 1179 c 128,-1,7
 1098 1141 1098 1141 1137 1072.5 c 128,-1,8
 1176 1004 1176 1004 1176 914 c 0,9,10
 1176 835 1176 835 1146 745 c 128,-1,11
 1116 655 1116 655 1053 583 c 0,12,13
 969 491 969 491 852 449.5 c 128,-1,14
 735 408 735 408 600 408 c 2,15,-1
 379 408 l 1,16,-1
 287 0 l 1,0,-1
630 599 m 2,17,18
 767 599 767 599 850.5 660 c 128,-1,19
 934 721 934 721 960 833 c 0,20,21
 967 866 967 866 967 887 c 0,22,23
 967 1032 967 1032 743 1032 c 2,24,-1
 525 1032 l 1,25,-1
 424 599 l 1,26,-1
 630 599 l 2,17,18
EndSplineSet
Position2: "'cpsp' Capital Spacing lookup 0 per glyph data 0" dx=5 dy=0 dh=10 dv=0
EndChar

StartChar: germandbls
Encoding: 223 223 158
Width: 1209
GlyphClass: 1
Flags: W
LayerCount: 2
Fore
SplineSet
639 -18 m 0,0,1
 582 -18 582 -18 529.5 -5.5 c 128,-1,2
 477 7 477 7 416 31 c 1,3,-1
 529 210 l 1,4,5
 588 180 588 180 657 180 c 0,6,7
 732 180 732 180 789 224 c 128,-1,8
 846 268 846 268 862 331 c 0,9,10
 866 351 866 351 866 361 c 0,11,12
 866 399 866 399 843.5 433 c 128,-1,13
 821 467 821 467 774 513 c 0,14,15
 719 568 719 568 688 616.5 c 128,-1,16
 657 665 657 665 657 727 c 256,17,18
 657 789 657 789 683 835.5 c 128,-1,19
 709 882 709 882 748 911 c 0,20,21
 778 933 778 933 819 957 c 0,22,23
 859 981 859 981 887 1001 c 0,24,25
 919 1024 919 1024 941.5 1059.5 c 128,-1,26
 964 1095 964 1095 964 1136 c 0,27,28
 964 1182 964 1182 925 1214.5 c 128,-1,29
 886 1247 886 1247 787 1247 c 256,30,31
 688 1247 688 1247 606.5 1179 c 128,-1,32
 525 1111 525 1111 492 975 c 2,33,-1
 263 0 l 1,34,-1
 42 0 l 1,35,-1
 277 994 l 2,36,37
 314 1143 314 1143 393 1241 c 128,-1,38
 472 1339 472 1339 578.5 1386.5 c 128,-1,39
 685 1434 685 1434 802 1434 c 0,40,41
 898 1434 898 1434 982 1397.5 c 128,-1,42
 1066 1361 1066 1361 1119 1293 c 128,-1,43
 1172 1225 1172 1225 1172 1131 c 0,44,45
 1172 1088 1172 1088 1159.5 1041 c 128,-1,46
 1147 994 1147 994 1119 956.5 c 128,-1,47
 1091 919 1091 919 1055 892.5 c 128,-1,48
 1019 866 1019 866 967 838 c 0,49,50
 914 809 914 809 888 787.5 c 128,-1,51
 862 766 862 766 856 737 c 2,52,-1
 855 726 l 2,53,54
 855 705 855 705 872 684.5 c 128,-1,55
 889 664 889 664 930 630 c 0,56,57
 1000 575 1000 575 1040.5 518 c 128,-1,58
 1081 461 1081 461 1081 376 c 0,59,60
 1081 314 1081 314 1056.5 250 c 128,-1,61
 1032 186 1032 186 986 134 c 0,62,63
 843 -18 843 -18 639 -18 c 0,0,1
EndSplineSet
EndChar

StartChar: ae
Encoding: 230 230 165
Width: 1725
GlyphClass: 1
Flags: W
LayerCount: 2
Fore
SplineSet
300 -20 m 0,0,1
 218 -20 218 -20 150 10.5 c 128,-1,2
 82 41 82 41 42 99.5 c 128,-1,3
 2 158 2 158 2 240 c 0,4,5
 2 277 2 277 11 318 c 0,6,7
 46 472 46 472 165.5 539 c 128,-1,8
 285 606 285 606 472 608 c 2,9,-1
 772 608 l 1,10,11
 785 671 785 671 785 718 c 0,12,13
 785 801 785 801 740.5 838.5 c 128,-1,14
 696 876 696 876 603 876 c 0,15,16
 517 876 517 876 439 830.5 c 128,-1,17
 361 785 361 785 308 722 c 1,18,-1
 170 859 l 1,19,20
 276 964 276 964 387.5 1010 c 128,-1,21
 499 1056 499 1056 630 1056 c 0,22,23
 757 1056 757 1056 833.5 1008 c 128,-1,24
 910 960 910 960 938 884 c 1,25,26
 1096 1052 1096 1052 1309 1052 c 0,27,28
 1502 1052 1502 1052 1588.5 951 c 128,-1,29
 1675 850 1675 850 1675 687 c 0,30,31
 1675 621 1675 621 1661.5 545.5 c 128,-1,32
 1648 470 1648 470 1632 449 c 1,33,-1
 918 449 l 1,34,35
 914 422 914 422 914 390 c 0,36,37
 914 297 914 297 962.5 241 c 128,-1,38
 1011 185 1011 185 1118 185 c 0,39,40
 1214 185 1214 185 1284 212 c 128,-1,41
 1354 239 1354 239 1419 296 c 1,42,-1
 1547 147 l 1,43,44
 1446 64 1446 64 1338 26 c 128,-1,45
 1230 -12 1230 -12 1097 -12 c 0,46,47
 953 -12 953 -12 872 43 c 128,-1,48
 791 98 791 98 766 188 c 1,49,50
 577 -20 577 -20 300 -20 c 0,0,1
1472 608 m 1,51,52
 1477 649 1477 649 1477 677 c 0,53,54
 1477 778 1477 778 1427.5 823 c 128,-1,55
 1378 868 1378 868 1281 868 c 0,56,57
 1167 868 1167 868 1083 793.5 c 128,-1,58
 999 719 999 719 960 608 c 1,59,-1
 1472 608 l 1,51,52
353 158 m 0,60,61
 438 158 438 158 517.5 203 c 128,-1,62
 597 248 597 248 654 314.5 c 128,-1,63
 711 381 711 381 733 449 c 1,64,-1
 459 449 l 2,65,66
 366 447 366 447 297.5 402 c 128,-1,67
 229 357 229 357 209 276 c 0,68,69
 207 268 207 268 207 254 c 0,70,71
 207 207 207 207 249 182.5 c 128,-1,72
 291 158 291 158 353 158 c 0,60,61
EndSplineSet
EndChar

StartChar: ccedilla
Encoding: 231 231 166
Width: 1020
GlyphClass: 1
Flags: W
LayerCount: 2
Fore
SplineSet
279 -517 m 0,0,1
 209 -517 209 -517 163 -477 c 128,-1,2
 117 -437 117 -437 105 -380 c 1,3,-1
 235 -341 l 1,4,5
 236 -365 236 -365 251 -377 c 128,-1,6
 266 -389 266 -389 289 -389 c 0,7,8
 335 -389 335 -389 369 -358 c 0,9,10
 410 -321 410 -321 418 -266 c 1,11,12
 418 -232 418 -232 380.5 -207.5 c 128,-1,13
 343 -183 343 -183 270 -183 c 2,14,-1
 201 -183 l 1,15,-1
 347 -1 l 1,16,17
 203 25 203 25 130 130.5 c 128,-1,18
 57 236 57 236 57 388 c 0,19,20
 57 553 57 553 140 718 c 128,-1,21
 223 883 223 883 387 985 c 0,22,23
 508 1056 508 1056 659 1056 c 0,24,25
 764 1056 764 1056 841 1018 c 128,-1,26
 918 980 918 980 965.5 914 c 128,-1,27
 1013 848 1013 848 1030 762 c 1,28,-1
 808 698 l 1,29,30
 804 780 804 780 756.5 819 c 128,-1,31
 709 858 709 858 635 858 c 0,32,33
 540 858 540 858 469 808.5 c 128,-1,34
 398 759 398 759 352 679.5 c 128,-1,35
 306 600 306 600 285 507 c 0,36,37
 271 447 271 447 270 394 c 0,38,39
 270 336 270 336 288.5 291 c 128,-1,40
 307 246 307 246 347.5 221 c 128,-1,41
 388 196 388 196 455 196 c 0,42,43
 544 196 544 196 617 246.5 c 128,-1,44
 690 297 690 297 729 375 c 1,45,-1
 912 279 l 1,46,47
 832 146 832 146 721 75.5 c 128,-1,48
 610 5 610 5 484 -6 c 1,49,-1
 392 -98 l 1,50,51
 471 -107 471 -107 509 -150.5 c 128,-1,52
 547 -194 547 -194 547 -257 c 0,53,54
 547 -323 547 -323 511.5 -382.5 c 128,-1,55
 476 -442 476 -442 415 -479.5 c 128,-1,56
 354 -517 354 -517 279 -517 c 0,0,1
EndSplineSet
EndChar

StartChar: eth
Encoding: 240 240 175
Width: 1197
GlyphClass: 1
Flags: W
LayerCount: 2
Fore
SplineSet
486 -16 m 0,0,1
 342 -16 342 -16 247 39.5 c 128,-1,2
 152 95 152 95 105.5 191 c 128,-1,3
 59 287 59 287 59 407 c 0,4,5
 59 506 59 506 91.5 611.5 c 128,-1,6
 124 717 124 717 193 813 c 0,7,8
 273 923 273 923 394.5 991.5 c 128,-1,9
 516 1060 516 1060 669 1060 c 0,10,11
 849 1060 849 1060 937 957 c 1,12,13
 933 1152 933 1152 733 1269 c 1,14,-1
 613 1152 l 1,15,-1
 521 1211 l 1,16,-1
 631 1318 l 1,17,18
 585 1336 585 1336 493 1367 c 1,19,-1
 626 1515 l 1,20,21
 703 1485 703 1485 769 1454 c 1,22,-1
 864 1546 l 1,23,-1
 957 1491 l 1,24,-1
 866 1399 l 1,25,26
 1012 1294 1012 1294 1080.5 1154.5 c 128,-1,27
 1149 1015 1149 1015 1149 837 c 0,28,29
 1149 704 1149 704 1111 539.5 c 128,-1,30
 1073 375 1073 375 988.5 250.5 c 128,-1,31
 904 126 904 126 777.5 55 c 128,-1,32
 651 -16 651 -16 486 -16 c 0,0,1
498 183 m 0,33,34
 599 183 599 183 680 235 c 128,-1,35
 761 287 761 287 815 372.5 c 128,-1,36
 869 458 869 458 892 559 c 0,37,38
 903 607 903 607 903 659 c 0,39,40
 903 725 903 725 880 777 c 128,-1,41
 857 829 857 829 808.5 859 c 128,-1,42
 760 889 760 889 684 889 c 0,43,44
 581 889 581 889 500.5 836.5 c 128,-1,45
 420 784 420 784 366 699.5 c 128,-1,46
 312 615 312 615 289 515 c 0,47,48
 277 463 277 463 276 406 c 0,49,50
 276 349 276 349 299 296.5 c 128,-1,51
 322 244 322 244 371 213.5 c 128,-1,52
 420 183 420 183 498 183 c 0,33,34
EndSplineSet
EndChar

StartChar: divide
Encoding: 247 247 182
Width: 1172
GlyphClass: 1
Flags: W
LayerCount: 2
Fore
SplineSet
707 855 m 1,0,-1
 463 855 l 1,1,-1
 463 1097 l 1,2,-1
 707 1097 l 1,3,-1
 707 855 l 1,0,-1
1072 547 m 1,4,-1
 98 547 l 1,5,-1
 98 710 l 1,6,-1
 1072 710 l 1,7,-1
 1072 547 l 1,4,-1
707 143 m 1,8,-1
 463 143 l 1,9,-1
 463 385 l 1,10,-1
 707 385 l 1,11,-1
 707 143 l 1,8,-1
EndSplineSet
EndChar

StartChar: oslash
Encoding: 248 248 183
Width: 1150
GlyphClass: 1
Flags: W
LayerCount: 2
Fore
SplineSet
464 -20 m 0,0,1
 337 -20 337 -20 239 32 c 1,2,-1
 213 0 l 1,3,-1
 92 0 l 1,4,-1
 164 88 l 1,5,6
 109 146 109 146 81 224.5 c 128,-1,7
 53 303 53 303 53 393 c 0,8,9
 53 580 53 580 151.5 737.5 c 128,-1,10
 250 895 250 895 411 983 c 0,11,12
 541 1052 541 1052 687 1052 c 0,13,14
 813 1052 813 1052 908 1002 c 1,15,-1
 940 1040 l 1,16,-1
 1060 1040 l 1,17,-1
 983 947 l 1,18,19
 1098 832 1098 832 1098 639 c 0,20,21
 1098 512 1098 512 1051.5 398.5 c 128,-1,22
 1005 285 1005 285 924.5 195 c 128,-1,23
 844 105 844 105 741 50 c 0,24,25
 611 -20 611 -20 464 -20 c 0,0,1
301 257 m 1,26,-1
 775 844 l 1,27,28
 730 865 730 865 667 865 c 0,29,30
 565 865 565 865 488 815 c 128,-1,31
 411 765 411 765 360 681.5 c 128,-1,32
 309 598 309 598 287 495 c 0,33,34
 273 439 273 439 273 382 c 0,35,36
 273 307 273 307 301 257 c 1,26,-1
484 166 m 0,37,38
 588 166 588 166 665 216.5 c 128,-1,39
 742 267 742 267 791.5 350.5 c 128,-1,40
 841 434 841 434 865 537 c 0,41,42
 878 597 878 597 878 644 c 0,43,44
 878 728 878 728 848 779 c 1,45,-1
 372 189 l 1,46,47
 417 166 417 166 484 166 c 0,37,38
EndSplineSet
EndChar

StartChar: thorn
Encoding: 254 254 189
Width: 1190
GlyphClass: 1
Flags: W
LayerCount: 2
Fore
SplineSet
151 -438 m 1,0,-1
 -61 -438 l 1,1,-1
 384 1413 l 1,2,-1
 596 1413 l 1,3,-1
 470 944 l 1,4,5
 599 1060 599 1060 787 1060 c 0,6,7
 901 1060 901 1060 976.5 1010.5 c 128,-1,8
 1052 961 1052 961 1090 874 c 128,-1,9
 1128 787 1128 787 1128 675 c 0,10,11
 1128 498 1128 498 1045 323.5 c 128,-1,12
 962 149 962 149 809 50 c 0,13,14
 698 -20 698 -20 565 -20 c 0,15,16
 465 -20 465 -20 396 15.5 c 128,-1,17
 327 51 327 51 287 111 c 1,18,-1
 151 -438 l 1,0,-1
543 163 m 0,19,20
 640 163 640 163 714.5 213.5 c 128,-1,21
 789 264 789 264 839.5 349 c 128,-1,22
 890 434 890 434 915 540 c 0,23,24
 931 604 931 604 931 660 c 0,25,26
 931 754 931 754 883.5 814.5 c 128,-1,27
 836 875 836 875 729 875 c 0,28,29
 633 875 633 875 558 824.5 c 128,-1,30
 483 774 483 774 432 689.5 c 128,-1,31
 381 605 381 605 357 499 c 0,32,33
 341 435 341 435 341 379 c 0,34,35
 341 315 341 315 362 266.5 c 128,-1,36
 383 218 383 218 427 190.5 c 128,-1,37
 471 163 471 163 543 163 c 0,19,20
EndSplineSet
EndChar

StartChar: Aogonek
Encoding: 260 260 195
Width: 1332
GlyphClass: 1
Flags: W
LayerCount: 2
Fore
SplineSet
966 -451 m 0,0,1
 883 -451 883 -451 831.5 -405 c 128,-1,2
 780 -359 780 -359 780 -281 c 0,3,4
 780 -227 780 -227 803.5 -175 c 128,-1,5
 827 -123 827 -123 876 -82 c 0,6,7
 944 -25 944 -25 1003 0 c 1,8,-1
 949 0 l 1,9,-1
 910 307 l 1,10,-1
 339 307 l 1,11,-1
 159 0 l 1,12,-1
 -89 0 l 1,13,-1
 792 1413 l 1,14,-1
 961 1413 l 1,15,-1
 1187 0 l 1,16,-1
 1114 0 l 1,17,-1
 1190 -3 l 1,18,19
 1163 -12 1163 -12 1106 -41 c 128,-1,20
 1049 -70 1049 -70 991 -121 c 0,21,22
 956 -153 956 -153 935 -192.5 c 128,-1,23
 914 -232 914 -232 914 -266 c 0,24,25
 914 -312 914 -312 966 -312 c 0,26,27
 1036 -312 1036 -312 1099 -246 c 1,28,-1
 1198 -339 l 1,29,30
 1100 -451 1100 -451 966 -451 c 0,0,1
880 502 m 1,31,-1
 807 1084 l 1,32,-1
 460 502 l 1,33,-1
 880 502 l 1,31,-1
EndSplineSet
Position2: "'cpsp' Capital Spacing lookup 0 per glyph data 0" dx=5 dy=0 dh=10 dv=0
EndChar

StartChar: aogonek
Encoding: 261 261 196
Width: 1080
GlyphClass: 1
Flags: W
LayerCount: 2
Fore
SplineSet
603 -451 m 0,0,1
 518 -451 518 -451 464.5 -405 c 128,-1,2
 411 -359 411 -359 411 -281 c 0,3,4
 411 -185 411 -185 482 -110 c 0,5,6
 532 -59 532 -59 578 -31.5 c 128,-1,7
 624 -4 624 -4 648 4 c 1,8,-1
 701 2 l 1,9,-1
 718 107 l 1,10,11
 589 -20 589 -20 398 -20 c 0,12,13
 284 -20 284 -20 209.5 30.5 c 128,-1,14
 135 81 135 81 97.5 168 c 128,-1,15
 60 255 60 255 60 367 c 0,16,17
 60 473 60 473 93 587 c 128,-1,18
 126 701 126 701 189 801 c 0,19,20
 262 916 262 916 371 988 c 128,-1,21
 480 1060 480 1060 616 1060 c 0,22,23
 709 1060 709 1060 781.5 1024.5 c 128,-1,24
 854 989 854 989 892 921 c 1,25,-1
 924 1039 l 1,26,-1
 1150 1039 l 1,27,-1
 912 0 l 1,28,-1
 753 0 l 1,29,-1
 833 -3 l 1,30,31
 805 -12 805 -12 745.5 -41 c 128,-1,32
 686 -70 686 -70 626 -121 c 0,33,34
 590 -153 590 -153 567.5 -192.5 c 128,-1,35
 545 -232 545 -232 545 -266 c 0,36,37
 545 -312 545 -312 600 -312 c 0,38,39
 673 -312 673 -312 738 -246 c 1,40,-1
 841 -339 l 1,41,42
 741 -451 741 -451 603 -451 c 0,0,1
470 177 m 0,43,44
 608 177 608 177 700 278 c 128,-1,45
 792 379 792 379 827 541 c 0,46,47
 841 606 841 606 842 659 c 0,48,49
 842 750 842 750 797 807.5 c 128,-1,50
 752 865 752 865 650 865 c 0,51,52
 556 865 556 865 483.5 815.5 c 128,-1,53
 411 766 411 766 362.5 684 c 128,-1,54
 314 602 314 602 292 499 c 0,55,56
 278 436 278 436 277 383 c 0,57,58
 277 292 277 292 322 234.5 c 128,-1,59
 367 177 367 177 470 177 c 0,43,44
EndSplineSet
EndChar

StartChar: dcaron
Encoding: 271 271 206
Width: 1401
GlyphClass: 1
Flags: W
LayerCount: 2
Fore
SplineSet
401 -20 m 0,0,1
 286 -20 286 -20 210.5 30.5 c 128,-1,2
 135 81 135 81 97.5 168 c 128,-1,3
 60 255 60 255 60 367 c 0,4,5
 60 473 60 473 93 587 c 128,-1,6
 126 701 126 701 190 801 c 0,7,8
 263 916 263 916 372.5 988 c 128,-1,9
 482 1060 482 1060 619 1060 c 0,10,11
 713 1060 713 1060 786 1024.5 c 128,-1,12
 859 989 859 989 897 921 c 1,13,-1
 1029 1413 l 1,14,-1
 1255 1413 l 1,15,-1
 917 0 l 1,16,-1
 691 0 l 1,17,-1
 719 104 l 1,18,19
 589 -20 589 -20 401 -20 c 0,0,1
1406 1017 m 1,20,-1
 1264 1017 l 1,21,-1
 1484 1413 l 1,22,-1
 1740 1413 l 1,23,-1
 1406 1017 l 1,20,-1
472 177 m 0,24,25
 611 177 611 177 704 278 c 128,-1,26
 797 379 797 379 833 541 c 0,27,28
 847 602 847 602 847 659 c 0,29,30
 847 750 847 750 802 807.5 c 128,-1,31
 757 865 757 865 654 865 c 0,32,33
 559 865 559 865 486 815.5 c 128,-1,34
 413 766 413 766 364 684 c 128,-1,35
 315 602 315 602 292 499 c 0,36,37
 277 436 277 436 277 383 c 0,38,39
 277 292 277 292 322.5 234.5 c 128,-1,40
 368 177 368 177 472 177 c 0,24,25
EndSplineSet
EndChar

StartChar: dcroat
Encoding: 273 273 208
Width: 1202
GlyphClass: 1
Flags: W
LayerCount: 2
Fore
SplineSet
401 -20 m 0,0,1
 286 -20 286 -20 210.5 30.5 c 128,-1,2
 135 81 135 81 97.5 168 c 128,-1,3
 60 255 60 255 60 367 c 0,4,5
 60 473 60 473 93 587 c 128,-1,6
 126 701 126 701 190 801 c 0,7,8
 263 916 263 916 372.5 988 c 128,-1,9
 482 1060 482 1060 619 1060 c 0,10,11
 713 1060 713 1060 786 1024.5 c 128,-1,12
 859 989 859 989 897 921 c 1,13,-1
 963 1165 l 1,14,-1
 686 1165 l 1,15,-1
 720 1314 l 1,16,-1
 1000 1314 l 1,17,-1
 1029 1413 l 1,18,-1
 1255 1413 l 1,19,-1
 1227 1314 l 1,20,-1
 1381 1314 l 1,21,-1
 1345 1165 l 1,22,-1
 1191 1165 l 1,23,-1
 917 0 l 1,24,-1
 707 0 l 1,25,-1
 723 107 l 1,26,27
 593 -20 593 -20 401 -20 c 0,0,1
472 177 m 0,28,29
 611 177 611 177 704 278 c 128,-1,30
 797 379 797 379 833 541 c 0,31,32
 847 602 847 602 847 659 c 0,33,34
 847 750 847 750 802 807.5 c 128,-1,35
 757 865 757 865 654 865 c 0,36,37
 559 865 559 865 486 815.5 c 128,-1,38
 413 766 413 766 364 684 c 128,-1,39
 315 602 315 602 292 499 c 0,40,41
 277 436 277 436 277 383 c 0,42,43
 277 292 277 292 322.5 234.5 c 128,-1,44
 368 177 368 177 472 177 c 0,28,29
EndSplineSet
EndChar

StartChar: Eogonek
Encoding: 280 280 215
Width: 1245
GlyphClass: 1
Flags: W
LayerCount: 2
Fore
SplineSet
787 -451 m 0,0,1
 704 -451 704 -451 652.5 -405 c 128,-1,2
 601 -359 601 -359 601 -281 c 0,3,4
 601 -227 601 -227 624.5 -175 c 128,-1,5
 648 -123 648 -123 697 -82 c 0,6,7
 765 -25 765 -25 824 0 c 1,8,-1
 78 0 l 1,9,-1
 403 1413 l 1,10,-1
 1336 1413 l 1,11,-1
 1289 1210 l 1,12,-1
 581 1210 l 1,13,-1
 487 808 l 1,14,-1
 1132 808 l 1,15,-1
 1085 606 l 1,16,-1
 441 606 l 1,17,-1
 350 210 l 1,18,-1
 1058 210 l 1,19,-1
 1010 0 l 1,20,-1
 935 0 l 1,21,-1
 1011 -3 l 1,22,23
 984 -12 984 -12 927 -41 c 128,-1,24
 870 -70 870 -70 812 -121 c 0,25,26
 777 -153 777 -153 756 -192.5 c 128,-1,27
 735 -232 735 -232 735 -266 c 0,28,29
 735 -312 735 -312 787 -312 c 0,30,31
 857 -312 857 -312 920 -246 c 1,32,-1
 1019 -339 l 1,33,34
 921 -451 921 -451 787 -451 c 0,0,1
EndSplineSet
Position2: "'cpsp' Capital Spacing lookup 0 per glyph data 0" dx=5 dy=0 dh=10 dv=0
EndChar

StartChar: eogonek
Encoding: 281 281 216
Width: 1074
GlyphClass: 1
Flags: W
LayerCount: 2
Fore
SplineSet
493 -404 m 0,0,1
 408 -404 408 -404 355 -358 c 128,-1,2
 302 -312 302 -312 302 -234 c 0,3,4
 302 -110 302 -110 426 -12 c 1,5,6
 238 -3 238 -3 146 106 c 128,-1,7
 54 215 54 215 54 381 c 0,8,9
 54 586 54 586 181 789 c 0,10,11
 231 865 231 865 300.5 924 c 128,-1,12
 370 983 370 983 457.5 1017.5 c 128,-1,13
 545 1052 545 1052 649 1052 c 0,14,15
 847 1052 847 1052 936 951.5 c 128,-1,16
 1025 851 1025 851 1025 686 c 0,17,18
 1025 565 1025 565 984 439 c 1,19,-1
 275 439 l 1,20,21
 271 412 271 412 271 381 c 0,22,23
 271 293 271 293 319 239 c 128,-1,24
 367 185 367 185 472 185 c 0,25,26
 568 185 568 185 637 212 c 128,-1,27
 706 239 706 239 769 296 c 1,28,-1
 897 147 l 1,29,30
 779 49 779 49 652 14 c 1,31,32
 468 -76 468 -76 440 -191 c 0,33,34
 436 -206 436 -206 436 -219 c 0,35,36
 436 -265 436 -265 490 -265 c 0,37,38
 563 -265 563 -265 629 -199 c 1,39,-1
 732 -292 l 1,40,41
 631 -404 631 -404 493 -404 c 0,0,1
820 598 m 1,42,43
 826 642 826 642 826 677 c 0,44,45
 826 779 826 779 777.5 824 c 128,-1,46
 729 869 729 869 634 869 c 0,47,48
 555 869 555 869 492.5 833.5 c 128,-1,49
 430 798 430 798 385.5 736.5 c 128,-1,50
 341 675 341 675 315 598 c 1,51,-1
 820 598 l 1,42,43
EndSplineSet
EndChar

StartChar: uni0123
Encoding: 291 291 226
Width: 1065
GlyphClass: 1
Flags: W
LayerCount: 2
Fore
SplineSet
772 1151 m 1,0,-1
 518 1151 l 1,1,-1
 852 1431 l 1,2,-1
 993 1431 l 1,3,-1
 772 1151 l 1,0,-1
355 -437 m 0,4,5
 61 -437 61 -437 -47 -220 c 1,6,-1
 140 -117 l 1,7,8
 161 -177 161 -177 219 -213.5 c 128,-1,9
 277 -250 277 -250 374 -250 c 0,10,11
 495 -250 495 -250 578 -182.5 c 128,-1,12
 661 -115 661 -115 692 9 c 2,13,-1
 720 120 l 1,14,15
 652 54 652 54 570.5 24.5 c 128,-1,16
 489 -5 489 -5 405 -5 c 0,17,18
 289 -5 289 -5 213 45 c 128,-1,19
 137 95 137 95 99.5 181.5 c 128,-1,20
 62 268 62 268 62 378 c 0,21,22
 62 478 62 478 93.5 590.5 c 128,-1,23
 125 703 125 703 190 803 c 0,24,25
 237 878 237 878 302.5 935.5 c 128,-1,26
 368 993 368 993 448 1026.5 c 128,-1,27
 528 1060 528 1060 620 1060 c 0,28,29
 709 1060 709 1060 782.5 1025 c 128,-1,30
 856 990 856 990 896 920 c 1,31,-1
 928 1039 l 1,32,-1
 1153 1039 l 1,33,-1
 911 3 l 2,34,35
 862 -209 862 -209 716.5 -323 c 128,-1,36
 571 -437 571 -437 355 -437 c 0,4,5
475 191 m 0,37,38
 570 191 570 191 642 239 c 128,-1,39
 714 287 714 287 762.5 367 c 128,-1,40
 811 447 811 447 834 548 c 0,41,42
 847 607 847 607 847 660 c 0,43,44
 847 721 847 721 827.5 767 c 128,-1,45
 808 813 808 813 765 839.5 c 128,-1,46
 722 866 722 866 654 866 c 0,47,48
 559 866 559 866 485.5 816.5 c 128,-1,49
 412 767 412 767 363 685.5 c 128,-1,50
 314 604 314 604 292 506 c 0,51,52
 278 444 278 444 278 397 c 0,53,54
 278 337 278 337 298.5 290.5 c 128,-1,55
 319 244 319 244 362 217.5 c 128,-1,56
 405 191 405 191 475 191 c 0,37,38
EndSplineSet
EndChar

StartChar: Hbar
Encoding: 294 294 229
Width: 1482
GlyphClass: 1
Flags: W
LayerCount: 2
Fore
SplineSet
1175 0 m 1,0,-1
 950 0 l 1,1,-1
 1089 606 l 1,2,-1
 441 606 l 1,3,-1
 302 0 l 1,4,-1
 78 0 l 1,5,-1
 320 1051 l 1,6,-1
 213 1051 l 1,7,-1
 242 1178 l 1,8,-1
 349 1178 l 1,9,-1
 403 1413 l 1,10,-1
 628 1413 l 1,11,-1
 573 1178 l 1,12,-1
 1222 1178 l 1,13,-1
 1276 1413 l 1,14,-1
 1500 1413 l 1,15,-1
 1446 1178 l 1,16,-1
 1551 1178 l 1,17,-1
 1522 1051 l 1,18,-1
 1417 1051 l 1,19,-1
 1175 0 l 1,0,-1
1136 808 m 1,20,-1
 1192 1051 l 1,21,-1
 544 1051 l 1,22,-1
 487 808 l 1,23,-1
 1136 808 l 1,20,-1
EndSplineSet
Position2: "'cpsp' Capital Spacing lookup 0 per glyph data 0" dx=5 dy=0 dh=10 dv=0
EndChar

StartChar: hbar
Encoding: 295 295 230
Width: 1186
GlyphClass: 1
Flags: W
LayerCount: 2
Fore
SplineSet
948 0 m 1,0,-1
 724 0 l 1,1,-1
 864 615 l 2,2,3
 880 683 880 683 880 727 c 0,4,5
 880 856 880 856 751 856 c 0,6,7
 668 856 668 856 592.5 812 c 128,-1,8
 517 768 517 768 464 702 c 128,-1,9
 411 636 411 636 394 564 c 2,10,-1
 265 0 l 1,11,-1
 41 0 l 1,12,-1
 308 1139 l 1,13,-1
 146 1139 l 1,14,-1
 180 1288 l 1,15,-1
 344 1288 l 1,16,-1
 380 1413 l 1,17,-1
 604 1413 l 1,18,-1
 567 1288 l 1,19,-1
 840 1288 l 1,20,-1
 805 1139 l 1,21,-1
 530 1139 l 1,22,-1
 471 916 l 1,23,24
 547 991 547 991 634.5 1023.5 c 128,-1,25
 722 1056 722 1056 803 1056 c 0,26,27
 954 1056 954 1056 1027 971.5 c 128,-1,28
 1100 887 1100 887 1100 751 c 0,29,30
 1100 687 1100 687 1085 619 c 2,31,-1
 948 0 l 1,0,-1
EndSplineSet
EndChar

StartChar: Iogonek
Encoding: 302 302 237
Width: 609
GlyphClass: 1
Flags: W
LayerCount: 2
Fore
SplineSet
79 -451 m 0,0,1
 -4 -451 -4 -451 -55.5 -405 c 128,-1,2
 -107 -359 -107 -359 -107 -281 c 0,3,4
 -107 -227 -107 -227 -83.5 -175 c 128,-1,5
 -60 -123 -60 -123 -11 -82 c 0,6,7
 57 -25 57 -25 116 0 c 1,8,-1
 78 0 l 1,9,-1
 403 1413 l 1,10,-1
 628 1413 l 1,11,-1
 302 0 l 1,12,-1
 227 0 l 1,13,-1
 303 -3 l 1,14,15
 276 -12 276 -12 219 -41 c 128,-1,16
 162 -70 162 -70 104 -121 c 0,17,18
 69 -153 69 -153 48 -192.5 c 128,-1,19
 27 -232 27 -232 27 -266 c 0,20,21
 27 -312 27 -312 79 -312 c 0,22,23
 149 -312 149 -312 212 -246 c 1,24,-1
 311 -339 l 1,25,26
 213 -451 213 -451 79 -451 c 0,0,1
EndSplineSet
Position2: "'cpsp' Capital Spacing lookup 0 per glyph data 0" dx=5 dy=0 dh=10 dv=0
EndChar

StartChar: iogonek
Encoding: 303 303 238
Width: 537
GlyphClass: 1
Flags: W
LayerCount: 2
Fore
SplineSet
553 1198 m 1,0,-1
 314 1198 l 1,1,-1
 365 1413 l 1,2,-1
 604 1413 l 1,3,-1
 553 1198 l 1,0,-1
23 -451 m 0,4,5
 -62 -451 -62 -451 -115 -405 c 128,-1,6
 -168 -359 -168 -359 -168 -281 c 0,7,8
 -168 -227 -168 -227 -144.5 -175 c 128,-1,9
 -121 -123 -121 -123 -71 -82 c 0,10,11
 -2 -25 -2 -25 58 0 c 1,12,-1
 43 0 l 1,13,-1
 281 999 l 1,14,-1
 491 999 l 1,15,-1
 252 0 l 1,16,-1
 174 0 l 1,17,-1
 253 -3 l 1,18,19
 225 -12 225 -12 165.5 -41 c 128,-1,20
 106 -70 106 -70 46 -121 c 0,21,22
 10 -153 10 -153 -12 -192.5 c 128,-1,23
 -34 -232 -34 -232 -34 -266 c 0,24,25
 -34 -312 -34 -312 20 -312 c 0,26,27
 93 -312 93 -312 158 -246 c 1,28,-1
 261 -339 l 1,29,30
 161 -451 161 -451 23 -451 c 0,4,5
EndSplineSet
EndChar

StartChar: dotlessi
Encoding: 305 305 240
Width: 513
GlyphClass: 2
Flags: W
LayerCount: 2
Fore
SplineSet
242 0 m 1,0,-1
 41 0 l 1,1,-1
 270 1039 l 1,2,-1
 472 1039 l 1,3,-1
 242 0 l 1,0,-1
EndSplineSet
EndChar

StartChar: kgreenlandic
Encoding: 312 312 247
Width: 1139
GlyphClass: 1
Flags: W
LayerCount: 2
Fore
SplineSet
1011 0 m 1,0,-1
 752 0 l 1,1,-1
 562 502 l 1,2,-1
 335 304 l 1,3,-1
 262 0 l 1,4,-1
 40 0 l 1,5,-1
 279 1039 l 1,6,-1
 501 1039 l 1,7,-1
 391 572 l 1,8,-1
 913 1039 l 1,9,-1
 1205 1039 l 1,10,-1
 738 643 l 1,11,-1
 1011 0 l 1,0,-1
EndSplineSet
EndChar

StartChar: Lcaron
Encoding: 317 317 252
Width: 1055
GlyphClass: 1
Flags: W
LayerCount: 2
Fore
SplineSet
905 0 m 1,0,-1
 77 0 l 1,1,-1
 402 1413 l 1,2,-1
 627 1413 l 1,3,-1
 349 210 l 1,4,-1
 953 210 l 1,5,-1
 905 0 l 1,0,-1
893 977 m 1,6,-1
 757 977 l 1,7,-1
 968 1413 l 1,8,-1
 1214 1413 l 1,9,-1
 893 977 l 1,6,-1
EndSplineSet
Position2: "'cpsp' Capital Spacing lookup 0 per glyph data 0" dx=5 dy=0 dh=10 dv=0
EndChar

StartChar: lcaron
Encoding: 318 318 253
Width: 756
GlyphClass: 1
Flags: W
LayerCount: 2
Fore
SplineSet
244 -20 m 0,0,1
 72 -20 72 -20 72 125 c 0,2,3
 72 160 72 160 83 209 c 2,4,-1
 363 1413 l 1,5,-1
 587 1413 l 1,6,7
 301 229 301 229 299 213 c 0,8,9
 299 171 299 171 354 171 c 0,10,11
 374 171 374 171 437 180 c 1,12,-1
 407 -2 l 1,13,14
 369 -10 369 -10 323 -15 c 128,-1,15
 277 -20 277 -20 244 -20 c 0,0,1
762 977 m 1,16,-1
 620 977 l 1,17,-1
 840 1413 l 1,18,-1
 1095 1413 l 1,19,-1
 762 977 l 1,16,-1
EndSplineSet
EndChar

StartChar: Lslash
Encoding: 321 321 256
Width: 1080
GlyphClass: 1
Flags: W
LayerCount: 2
Fore
SplineSet
931 0 m 1,0,-1
 103 0 l 1,1,-1
 204 439 l 1,2,-1
 -3 304 l 1,3,-1
 59 533 l 1,4,-1
 255 662 l 1,5,-1
 428 1413 l 1,6,-1
 653 1413 l 1,7,-1
 520 837 l 1,8,-1
 825 1038 l 1,9,-1
 762 804 l 1,10,-1
 468 612 l 1,11,-1
 375 210 l 1,12,-1
 979 210 l 1,13,-1
 931 0 l 1,0,-1
EndSplineSet
Position2: "'cpsp' Capital Spacing lookup 0 per glyph data 0" dx=5 dy=0 dh=10 dv=0
EndChar

StartChar: lslash
Encoding: 322 322 257
Width: 574
GlyphClass: 1
Flags: W
LayerCount: 2
Fore
SplineSet
245 -20 m 0,0,1
 73 -20 73 -20 73 125 c 0,2,3
 73 160 73 160 84 209 c 2,4,-1
 139 447 l 1,5,-1
 5 346 l 1,6,-1
 52 560 l 1,7,-1
 189 664 l 1,8,-1
 364 1413 l 1,9,-1
 588 1413 l 1,10,-1
 456 864 l 1,11,-1
 649 1007 l 1,12,-1
 603 795 l 1,13,-1
 404 647 l 1,14,15
 300 217 300 217 300 206 c 0,16,17
 300 169 300 169 354 169 c 0,18,19
 381 169 381 169 438 180 c 1,20,-1
 408 -2 l 1,21,22
 322 -20 322 -20 245 -20 c 0,0,1
EndSplineSet
EndChar

StartChar: Eng
Encoding: 330 330 265
Width: 1443
GlyphClass: 1
Flags: W
LayerCount: 2
Fore
SplineSet
743 -369 m 2,0,-1
 629 -369 l 1,1,-1
 657 -221 l 1,2,3
 738 -221 738 -221 791 -203 c 0,4,5
 850 -183 850 -183 883 -146 c 128,-1,6
 916 -109 916 -109 916 -66 c 1,7,-1
 914 -45 l 1,8,-1
 542 1070 l 1,9,-1
 294 0 l 1,10,-1
 77 0 l 1,11,-1
 402 1412 l 1,12,-1
 643 1412 l 1,13,-1
 996 344 l 1,14,-1
 1246 1412 l 1,15,-1
 1461 1412 l 1,16,-1
 1132 -9 l 2,17,18
 1096 -163 1096 -163 1009 -266 c 128,-1,19
 922 -369 922 -369 743 -369 c 2,0,-1
EndSplineSet
Position2: "'cpsp' Capital Spacing lookup 0 per glyph data 0" dx=5 dy=0 dh=10 dv=0
EndChar

StartChar: eng
Encoding: 331 331 266
Width: 1179
GlyphClass: 1
Flags: W
LayerCount: 2
Fore
SplineSet
544 -369 m 2,0,-1
 426 -369 l 1,1,-1
 470 -190 l 1,2,-1
 536 -190 l 2,3,4
 623 -190 623 -190 662 -135 c 128,-1,5
 701 -80 701 -80 719 -3 c 2,6,-1
 861 618 l 2,7,8
 877 688 877 688 877 732 c 0,9,10
 877 861 877 861 751 861 c 0,11,12
 663 861 663 861 587 818 c 128,-1,13
 511 775 511 775 458.5 710 c 128,-1,14
 406 645 406 645 389 575 c 2,15,-1
 259 8 l 1,16,-1
 40 8 l 1,17,-1
 279 1039 l 1,18,-1
 497 1039 l 1,19,-1
 463 910 l 1,20,21
 539 987 539 987 626.5 1021.5 c 128,-1,22
 714 1056 714 1056 796 1056 c 0,23,24
 946 1056 946 1056 1018 972.5 c 128,-1,25
 1090 889 1090 889 1090 757 c 0,26,27
 1090 688 1090 688 1073 622 c 2,28,-1
 914 -72 l 2,29,30
 898 -142 898 -142 867.5 -203.5 c 128,-1,31
 837 -265 837 -265 759 -317 c 128,-1,32
 681 -369 681 -369 544 -369 c 2,0,-1
EndSplineSet
EndChar

StartChar: OE
Encoding: 338 338 273
Width: 2254
GlyphClass: 1
Flags: W
LayerCount: 2
Fore
SplineSet
657 -20 m 0,0,1
 473 -20 473 -20 354.5 48 c 128,-1,2
 236 116 236 116 179 234 c 128,-1,3
 122 352 122 352 122 504 c 0,4,5
 122 649 122 649 168.5 800.5 c 128,-1,6
 215 952 215 952 303 1082 c 0,7,8
 412 1242 412 1242 581.5 1338 c 128,-1,9
 751 1434 751 1434 968 1434 c 0,10,11
 1127 1434 1127 1434 1226 1377.5 c 128,-1,12
 1325 1321 1325 1321 1369 1224 c 1,13,-1
 1417 1413 l 1,14,-1
 2344 1413 l 1,15,-1
 2298 1210 l 1,16,-1
 1595 1210 l 1,17,-1
 1501 808 l 1,18,-1
 2146 808 l 1,19,-1
 2099 606 l 1,20,-1
 1455 606 l 1,21,-1
 1364 210 l 1,22,-1
 2067 210 l 1,23,-1
 2019 0 l 1,24,-1
 1092 0 l 1,25,-1
 1136 174 l 1,26,27
 948 -20 948 -20 657 -20 c 0,0,1
679 189 m 0,28,29
 835 189 835 189 953 261 c 128,-1,30
 1071 333 1071 333 1148 454 c 128,-1,31
 1225 575 1225 575 1259 727 c 0,32,33
 1280 821 1280 821 1280 893 c 0,34,35
 1280 1045 1280 1045 1198 1134.5 c 128,-1,36
 1116 1224 1116 1224 944 1224 c 0,37,38
 785 1224 785 1224 668 1151.5 c 128,-1,39
 551 1079 551 1079 475 958 c 128,-1,40
 399 837 399 837 364 687 c 0,41,42
 343 600 343 600 343 519 c 0,43,44
 343 368 343 368 424.5 278.5 c 128,-1,45
 506 189 506 189 679 189 c 0,28,29
EndSplineSet
Position2: "'cpsp' Capital Spacing lookup 0 per glyph data 0" dx=5 dy=0 dh=10 dv=0
EndChar

StartChar: oe
Encoding: 339 339 274
Width: 1867
GlyphClass: 1
Flags: W
LayerCount: 2
Fore
SplineSet
469 -20 m 0,0,1
 336 -20 336 -20 243 34.5 c 128,-1,2
 150 89 150 89 101.5 182.5 c 128,-1,3
 53 276 53 276 53 394 c 0,4,5
 53 582 53 582 151.5 738.5 c 128,-1,6
 250 895 250 895 410 982 c 0,7,8
 540 1052 540 1052 688 1052 c 0,9,10
 819 1052 819 1052 905.5 1000.5 c 128,-1,11
 992 949 992 949 1034 869 c 1,12,13
 1200 1052 1200 1052 1435 1052 c 0,14,15
 1568 1052 1568 1052 1651 1000.5 c 128,-1,16
 1734 949 1734 949 1773.5 861.5 c 128,-1,17
 1813 774 1813 774 1813 665 c 0,18,19
 1813 548 1813 548 1775 437 c 1,20,-1
 1064 437 l 1,21,22
 1061 413 1061 413 1060 389 c 0,23,24
 1060 301 1060 301 1110 246 c 128,-1,25
 1160 191 1160 191 1268 191 c 0,26,27
 1442 191 1442 191 1576 315 c 1,28,-1
 1707 158 l 1,29,30
 1605 73 1605 73 1491 30.5 c 128,-1,31
 1377 -12 1377 -12 1247 -12 c 0,32,33
 1155 -12 1155 -12 1085 12 c 128,-1,34
 1015 36 1015 36 967.5 76 c 128,-1,35
 920 116 920 116 894 167 c 1,36,37
 715 -20 715 -20 469 -20 c 0,0,1
478 165 m 0,38,39
 628 165 628 165 725 269 c 128,-1,40
 822 373 822 373 860 537 c 0,41,42
 875 597 875 597 875 657 c 0,43,44
 875 751 875 751 827 808 c 128,-1,45
 779 865 779 865 668 865 c 0,46,47
 518 865 518 865 420.5 761 c 128,-1,48
 323 657 323 657 287 493 c 0,49,50
 271 429 271 429 271 373 c 0,51,52
 271 280 271 280 319.5 222.5 c 128,-1,53
 368 165 368 165 478 165 c 0,38,39
1607 598 m 1,54,55
 1612 639 1612 639 1613 669 c 0,56,57
 1613 773 1613 773 1564.5 819 c 128,-1,58
 1516 865 1516 865 1421 865 c 0,59,60
 1342 865 1342 865 1280 829 c 128,-1,61
 1218 793 1218 793 1173.5 733 c 128,-1,62
 1129 673 1129 673 1104 598 c 1,63,-1
 1607 598 l 1,54,55
EndSplineSet
EndChar

StartChar: uni0163
Encoding: 355 355 290
Width: 748
GlyphClass: 1
Flags: W
LayerCount: 2
Fore
SplineSet
223 -517 m 0,0,1
 153 -517 153 -517 107.5 -477 c 128,-1,2
 62 -437 62 -437 50 -380 c 1,3,-1
 183 -341 l 1,4,5
 184 -365 184 -365 198.5 -377 c 128,-1,6
 213 -389 213 -389 235 -389 c 0,7,8
 280 -389 280 -389 314 -358 c 0,9,10
 354 -321 354 -321 361 -265 c 1,11,12
 361 -231 361 -231 325 -206.5 c 128,-1,13
 289 -182 289 -182 218 -182 c 2,14,-1
 149 -182 l 1,15,-1
 294 5 l 1,16,17
 215 26 215 26 175.5 81 c 128,-1,18
 136 136 136 136 136 216 c 0,19,20
 136 255 136 255 147 306 c 2,21,-1
 271 860 l 1,22,-1
 110 860 l 1,23,-1
 152 1039 l 1,24,-1
 315 1039 l 1,25,-1
 370 1256 l 1,26,-1
 618 1403 l 1,27,-1
 522 1039 l 1,28,-1
 790 1039 l 1,29,-1
 748 860 l 1,30,-1
 480 860 l 1,31,-1
 356 313 l 2,32,33
 350 285 350 285 350 263 c 0,34,35
 350 182 350 182 438 182 c 0,36,37
 504 182 504 182 584 219 c 1,38,-1
 549 20 l 1,39,40
 501 2 501 2 426 -3 c 1,41,-1
 335 -96 l 1,42,43
 413 -105 413 -105 451.5 -148.5 c 128,-1,44
 490 -192 490 -192 490 -256 c 0,45,46
 490 -323 490 -323 454.5 -382.5 c 128,-1,47
 419 -442 419 -442 358.5 -479.5 c 128,-1,48
 298 -517 298 -517 223 -517 c 0,0,1
EndSplineSet
EndChar

StartChar: tcaron
Encoding: 357 357 292
Width: 765
GlyphClass: 1
Flags: W
LayerCount: 2
Fore
SplineSet
814 1163 m 1,0,-1
 678 1163 l 1,1,-1
 916 1561 l 1,2,-1
 1166 1561 l 1,3,-1
 814 1163 l 1,0,-1
372 -20 m 0,4,5
 288 -20 288 -20 236.5 8 c 128,-1,6
 185 36 185 36 160.5 85 c 128,-1,7
 136 134 136 134 136 199 c 0,8,9
 136 244 136 244 147 297 c 2,10,-1
 268 848 l 1,11,-1
 107 848 l 1,12,-1
 152 1039 l 1,13,-1
 315 1039 l 1,14,-1
 370 1263 l 1,15,-1
 623 1414 l 1,16,-1
 527 1039 l 1,17,-1
 796 1039 l 1,18,-1
 750 848 l 1,19,-1
 481 848 l 1,20,-1
 350 268 l 2,21,22
 345 248 345 248 345 226 c 0,23,24
 345 194 345 194 363.5 181.5 c 128,-1,25
 382 169 382 169 416 169 c 0,26,27
 491 169 491 169 541.5 187 c 128,-1,28
 592 205 592 205 592 206 c 1,29,-1
 553 16 l 2,30,31
 553 15 553 15 530.5 6 c 128,-1,32
 508 -3 508 -3 467 -11.5 c 128,-1,33
 426 -20 426 -20 372 -20 c 0,4,5
EndSplineSet
EndChar

StartChar: Tbar
Encoding: 358 358 293
Width: 1201
GlyphClass: 1
Flags: W
LayerCount: 2
Fore
SplineSet
598 0 m 1,0,-1
 373 0 l 1,1,-1
 519 633 l 1,2,-1
 315 633 l 1,3,-1
 348 782 l 1,4,-1
 553 782 l 1,5,-1
 653 1216 l 1,6,-1
 200 1216 l 1,7,-1
 246 1413 l 1,8,-1
 1377 1413 l 1,9,-1
 1331 1216 l 1,10,-1
 878 1216 l 1,11,-1
 778 782 l 1,12,-1
 983 782 l 1,13,-1
 949 633 l 1,14,-1
 744 633 l 1,15,-1
 598 0 l 1,0,-1
EndSplineSet
Position2: "'cpsp' Capital Spacing lookup 0 per glyph data 0" dx=5 dy=0 dh=10 dv=0
EndChar

StartChar: tbar
Encoding: 359 359 294
Width: 754
GlyphClass: 1
Flags: W
LayerCount: 2
Fore
SplineSet
387 -20 m 0,0,1
 260 -20 260 -20 198 43 c 128,-1,2
 136 106 136 106 136 205 c 0,3,4
 136 245 136 245 147 296 c 2,5,-1
 180 447 l 1,6,-1
 15 447 l 1,7,-1
 49 596 l 1,8,-1
 215 596 l 1,9,-1
 271 860 l 1,10,-1
 110 860 l 1,11,-1
 152 1039 l 1,12,-1
 315 1039 l 1,13,-1
 370 1256 l 1,14,-1
 623 1403 l 1,15,-1
 527 1039 l 1,16,-1
 795 1039 l 1,17,-1
 753 860 l 1,18,-1
 484 860 l 1,19,-1
 425 596 l 1,20,-1
 701 596 l 1,21,-1
 665 447 l 1,22,-1
 389 447 l 1,23,-1
 356 303 l 2,24,25
 350 274 350 274 350 251 c 0,26,27
 350 166 350 166 442 166 c 0,28,29
 508 166 508 166 589 206 c 1,30,-1
 554 4 l 1,31,32
 526 -6 526 -6 480 -13 c 128,-1,33
 434 -20 434 -20 387 -20 c 0,0,1
EndSplineSet
EndChar

StartChar: Uogonek
Encoding: 370 370 305
Width: 1373
GlyphClass: 1
Flags: W
LayerCount: 2
Fore
SplineSet
635 -410 m 0,0,1
 552 -410 552 -410 500.5 -364 c 128,-1,2
 449 -318 449 -318 449 -240 c 0,3,4
 449 -117 449 -117 570 -20 c 1,5,6
 357 -18 357 -18 253.5 84.5 c 128,-1,7
 150 187 150 187 150 366 c 0,8,9
 150 450 150 450 173 550 c 2,10,-1
 372 1413 l 1,11,-1
 596 1413 l 1,12,-1
 400 565 l 2,13,14
 376 463 376 463 376 396 c 0,15,16
 376 291 376 291 432.5 243.5 c 128,-1,17
 489 196 489 196 604 196 c 0,18,19
 776 196 776 196 870 296 c 128,-1,20
 964 396 964 396 1007 584 c 2,21,-1
 1199 1413 l 1,22,-1
 1423 1413 l 1,23,-1
 1223 542 l 2,24,25
 1178 346 1178 346 1075 208.5 c 128,-1,26
 972 71 972 71 801 13 c 1,27,28
 727 -24 727 -24 665 -76 c 0,29,30
 628 -108 628 -108 605.5 -149 c 128,-1,31
 583 -190 583 -190 583 -225 c 0,32,33
 583 -271 583 -271 635 -271 c 0,34,35
 705 -271 705 -271 768 -205 c 1,36,-1
 867 -298 l 1,37,38
 769 -410 769 -410 635 -410 c 0,0,1
EndSplineSet
Position2: "'cpsp' Capital Spacing lookup 0 per glyph data 0" dx=5 dy=0 dh=10 dv=0
EndChar

StartChar: uogonek
Encoding: 371 371 306
Width: 1180
GlyphClass: 1
Flags: W
LayerCount: 2
Fore
SplineSet
677 -451 m 0,0,1
 592 -451 592 -451 539 -405 c 128,-1,2
 486 -359 486 -359 486 -281 c 0,3,4
 486 -227 486 -227 510 -175 c 128,-1,5
 534 -123 534 -123 584 -82 c 0,6,7
 653 -25 653 -25 713 0 c 1,8,-1
 686 0 l 1,9,-1
 715 125 l 1,10,11
 651 57 651 57 564.5 17 c 128,-1,12
 478 -23 478 -23 387 -23 c 0,13,14
 237 -23 237 -23 165 65.5 c 128,-1,15
 93 154 93 154 93 295 c 0,16,17
 93 359 93 359 109 436 c 2,18,-1
 243 1039 l 1,19,-1
 466 1039 l 1,20,-1
 324 419 l 2,21,22
 309 358 309 358 309 310 c 0,23,24
 309 246 309 246 343 211.5 c 128,-1,25
 377 177 377 177 452 177 c 0,26,27
 525 177 525 177 595 211.5 c 128,-1,28
 665 246 665 246 719.5 320 c 128,-1,29
 774 394 774 394 800 510 c 2,30,-1
 920 1039 l 1,31,-1
 1146 1039 l 1,32,-1
 906 0 l 1,33,-1
 828 0 l 1,34,-1
 907 -3 l 1,35,36
 879 -12 879 -12 820 -41 c 128,-1,37
 761 -70 761 -70 700 -121 c 0,38,39
 664 -153 664 -153 642 -192.5 c 128,-1,40
 620 -232 620 -232 620 -266 c 0,41,42
 620 -312 620 -312 674 -312 c 0,43,44
 747 -312 747 -312 813 -246 c 1,45,-1
 916 -339 l 1,46,47
 815 -451 815 -451 677 -451 c 0,0,1
EndSplineSet
EndChar

StartChar: longs
Encoding: 383 383 318
Width: 719
GlyphClass: 2
Flags: W
LayerCount: 2
Fore
SplineSet
324 0 m 1,0,-1
 97 0 l 1,1,-1
 292 860 l 1,2,-1
 103 860 l 1,3,-1
 146 1037 l 1,4,-1
 337 1037 l 1,5,-1
 375 1183 l 2,6,7
 410 1309 410 1309 507 1371.5 c 128,-1,8
 604 1434 604 1434 747 1434 c 0,9,10
 835 1434 835 1434 925 1390 c 1,11,-1
 820 1232 l 1,12,13
 777 1251 777 1251 730 1251 c 0,14,15
 684 1251 684 1251 648 1222 c 128,-1,16
 612 1193 612 1193 597 1135 c 2,17,-1
 324 0 l 1,0,-1
EndSplineSet
EndChar

StartChar: florin
Encoding: 402 402 319
Width: 1086
GlyphClass: 1
Flags: W
LayerCount: 2
Fore
SplineSet
-139 -457 m 1,0,-1
 -108 -274 l 1,1,2
 28 -274 28 -274 112 -242 c 128,-1,3
 196 -210 196 -210 244 -144 c 0,4,5
 295 -76 295 -76 322 40 c 2,6,-1
 512 859 l 1,7,-1
 326 859 l 1,8,-1
 369 1039 l 1,9,-1
 555 1039 l 1,10,-1
 591 1172 l 2,11,12
 627 1301 627 1301 731 1374.5 c 128,-1,13
 835 1448 835 1448 953 1448 c 0,14,15
 1019 1448 1019 1448 1072.5 1423.5 c 128,-1,16
 1126 1399 1126 1399 1179 1346 c 1,17,-1
 1034 1227 l 1,18,19
 1008 1249 1008 1249 986 1257.5 c 128,-1,20
 964 1266 964 1266 934 1266 c 0,21,22
 886 1266 886 1266 840 1236 c 128,-1,23
 794 1206 794 1206 776 1147 c 2,24,-1
 745 1039 l 1,25,-1
 1062 1039 l 1,26,-1
 1018 859 l 1,27,-1
 701 859 l 1,28,-1
 508 25 l 2,29,30
 450 -221 450 -221 281 -339 c 128,-1,31
 112 -457 112 -457 -139 -457 c 1,0,-1
EndSplineSet
EndChar

StartChar: uni01C3
Encoding: 451 451 324
Width: 561
GlyphClass: 1
Flags: W
LayerCount: 2
Fore
SplineSet
342 413 m 1,0,-1
 180 413 l 1,1,-1
 387 1434 l 1,2,-1
 606 1434 l 1,3,-1
 342 413 l 1,0,-1
288 0 m 1,4,-1
 44 0 l 1,5,-1
 98 242 l 1,6,-1
 342 242 l 1,7,-1
 288 0 l 1,4,-1
EndSplineSet
EndChar

StartChar: uni01DD
Encoding: 477 477 350
Width: 1071
GlyphClass: 1
Flags: W
LayerCount: 2
Fore
SplineSet
424 -12 m 0,0,1
 225 -12 225 -12 136.5 86 c 128,-1,2
 48 184 48 184 48 350 c 0,3,4
 48 477 48 477 89 600 c 1,5,-1
 802 600 l 1,6,7
 806 627 806 627 806 657 c 0,8,9
 806 747 806 747 757 801 c 128,-1,10
 708 855 708 855 603 855 c 0,11,12
 509 855 509 855 438.5 828 c 128,-1,13
 368 801 368 801 301 742 c 1,14,-1
 175 892 l 1,15,16
 274 975 274 975 381 1013.5 c 128,-1,17
 488 1052 488 1052 618 1052 c 0,18,19
 754 1052 754 1052 844 1001 c 128,-1,20
 934 950 934 950 978 860.5 c 128,-1,21
 1022 771 1022 771 1022 658 c 0,22,23
 1022 546 1022 546 988 441 c 0,24,25
 922 238 922 238 776 116 c 0,26,27
 624 -12 624 -12 424 -12 c 0,0,1
439 170 m 0,28,29
 554 170 554 170 637.5 246 c 128,-1,30
 721 322 721 322 762 440 c 1,31,-1
 251 421 l 1,32,33
 245 384 245 384 245 351 c 0,34,35
 245 170 245 170 439 170 c 0,28,29
EndSplineSet
EndChar

StartChar: uni01E3
Encoding: 483 483 352
Width: 1742
GlyphClass: 1
Flags: W
LayerCount: 2
Fore
SplineSet
1321 1162 m 1,0,-1
 748 1162 l 1,1,-1
 780 1297 l 1,2,-1
 1353 1297 l 1,3,-1
 1321 1162 l 1,0,-1
332 -20 m 0,4,5
 187 -20 187 -20 104 51 c 128,-1,6
 21 122 21 122 21 239 c 0,7,8
 21 277 21 277 30 319 c 0,9,10
 96 609 96 609 490 609 c 2,11,-1
 790 610 l 1,12,13
 803 671 803 671 803 716 c 0,14,15
 803 876 803 876 642 876 c 0,16,17
 463 876 463 876 325 722 c 1,18,-1
 188 858 l 1,19,20
 380 1056 380 1056 641 1056 c 0,21,22
 771 1056 771 1056 848.5 1010 c 128,-1,23
 926 964 926 964 957 884 c 1,24,25
 1041 973 1041 973 1133 1012.5 c 128,-1,26
 1225 1052 1225 1052 1338 1052 c 0,27,28
 1534 1052 1534 1052 1610.5 954 c 128,-1,29
 1687 856 1687 856 1687 697 c 0,30,31
 1687 613 1687 613 1668 493 c 0,32,33
 1667 486 1667 486 1665.5 480.5 c 128,-1,34
 1664 475 1664 475 1651 448 c 1,35,-1
 936 448 l 1,36,37
 932 407 932 407 932 389 c 0,38,39
 932 185 932 185 1143 185 c 0,40,41
 1320 185 1320 185 1437 297 c 1,42,-1
 1566 147 l 1,43,44
 1373 -12 1373 -12 1123 -12 c 0,45,46
 847 -12 847 -12 783 188 c 1,47,48
 698 93 698 93 582.5 36.5 c 128,-1,49
 467 -20 467 -20 332 -20 c 0,4,5
978 607 m 1,50,-1
 1489 610 l 1,51,52
 1494 650 1494 650 1495 677 c 0,53,54
 1495 868 1495 868 1304 868 c 0,55,56
 1181 868 1181 868 1100 793.5 c 128,-1,57
 1019 719 1019 719 978 607 c 1,50,-1
361 158 m 0,58,59
 455 158 455 158 535 202.5 c 128,-1,60
 615 247 615 247 671.5 313.5 c 128,-1,61
 728 380 728 380 752 451 c 1,62,-1
 475 449 l 2,63,64
 378 449 378 449 309.5 397.5 c 128,-1,65
 241 346 241 346 227 276 c 1,66,-1
 225 253 l 1,67,68
 225 205 225 205 265 181.5 c 128,-1,69
 305 158 305 158 361 158 c 0,58,59
EndSplineSet
EndChar

StartChar: uni01EB
Encoding: 491 491 354
Width: 1148
GlyphClass: 1
Flags: W
LayerCount: 2
Fore
SplineSet
377 -451 m 0,0,1
 292 -451 292 -451 239 -404 c 128,-1,2
 186 -357 186 -357 186 -277 c 0,3,4
 186 -228 186 -228 205.5 -180 c 128,-1,5
 225 -132 225 -132 265 -91 c 0,6,7
 320 -37 320 -37 381 -4 c 1,8,9
 219 23 219 23 136 134.5 c 128,-1,10
 53 246 53 246 53 401 c 0,11,12
 53 587 53 587 151.5 742.5 c 128,-1,13
 250 898 250 898 408 984 c 0,14,15
 537 1052 537 1052 677 1052 c 256,16,17
 817 1052 817 1052 909 997.5 c 128,-1,18
 1001 943 1001 943 1048.5 849.5 c 128,-1,19
 1096 756 1096 756 1096 640 c 0,20,21
 1096 487 1096 487 1029 355 c 128,-1,22
 962 223 962 223 850.5 131.5 c 128,-1,23
 739 40 739 40 601 5 c 0,24,25
 564 -7 564 -7 505.5 -39 c 128,-1,26
 447 -71 447 -71 395 -120.5 c 128,-1,27
 343 -170 343 -170 324 -236 c 0,28,29
 320 -251 320 -251 320 -265 c 0,30,31
 320 -312 320 -312 374 -312 c 0,32,33
 447 -312 447 -312 512 -244 c 1,34,-1
 615 -339 l 1,35,36
 515 -451 515 -451 377 -451 c 0,0,1
484 183 m 0,37,38
 588 183 588 183 664.5 232 c 128,-1,39
 741 281 741 281 790 363 c 128,-1,40
 839 445 839 445 863 545 c 0,41,42
 876 600 876 600 876 656 c 0,43,44
 876 749 876 749 827 807 c 128,-1,45
 778 865 778 865 666 865 c 0,46,47
 564 865 564 865 487.5 816.5 c 128,-1,48
 411 768 411 768 360 686 c 128,-1,49
 309 604 309 604 287 504 c 0,50,51
 274 449 274 449 273 393 c 0,52,53
 273 300 273 300 322.5 241.5 c 128,-1,54
 372 183 372 183 484 183 c 0,37,38
EndSplineSet
EndChar

StartChar: uni0237
Encoding: 567 567 368
Width: 553
GlyphClass: 2
Flags: W
LayerCount: 2
Fore
SplineSet
-124 -438 m 0,0,1
 -206 -438 -206 -438 -292 -402 c 1,2,-1
 -212 -229 l 1,3,4
 -161 -242 -161 -242 -109 -242 c 0,5,6
 -13 -242 -13 -242 12 -121 c 2,7,-1
 282 1039 l 1,8,-1
 501 1039 l 1,9,-1
 229 -127 l 2,10,11
 208 -218 208 -218 163 -288 c 128,-1,12
 118 -358 118 -358 46.5 -398 c 128,-1,13
 -25 -438 -25 -438 -124 -438 c 0,0,1
EndSplineSet
EndChar

StartChar: uni0250
Encoding: 592 592 369
Width: 1103
GlyphClass: 1
Flags: W
LayerCount: 2
Fore
SplineSet
477 -20 m 0,0,1
 304 -20 304 -20 213.5 66.5 c 128,-1,2
 123 153 123 153 123 295 c 0,3,4
 123 348 123 348 137 412 c 2,5,-1
 275 1035 l 1,6,-1
 443 1035 l 1,7,-1
 428 889 l 1,8,9
 509 976 509 976 597.5 1016 c 128,-1,10
 686 1056 686 1056 800 1056 c 0,11,12
 885 1056 885 1056 953.5 1024 c 128,-1,13
 1022 992 1022 992 1062.5 932.5 c 128,-1,14
 1103 873 1103 873 1103 790 c 0,15,16
 1103 753 1103 753 1094 712 c 0,17,18
 1058 557 1058 557 936.5 491.5 c 128,-1,19
 815 426 815 426 630 426 c 1,20,-1
 338 415 l 1,21,22
 327 361 327 361 327 321 c 0,23,24
 327 241 327 241 370.5 204 c 128,-1,25
 414 167 414 167 502 167 c 0,26,27
 585 167 585 167 663 214.5 c 128,-1,28
 741 262 741 262 791 327 c 1,29,-1
 932 181 l 1,30,31
 829 74 829 74 718 27 c 128,-1,32
 607 -20 607 -20 477 -20 c 0,0,1
376 575 m 1,33,-1
 642 585 l 2,34,35
 736 585 736 585 801 634.5 c 128,-1,36
 866 684 866 684 883 754 c 0,37,38
 886 767 886 767 886 779 c 0,39,40
 886 826 886 826 845.5 848.5 c 128,-1,41
 805 871 805 871 742 871 c 0,42,43
 656 871 656 871 579 827.5 c 128,-1,44
 502 784 502 784 448 716 c 128,-1,45
 394 648 394 648 376 575 c 1,33,-1
EndSplineSet
EndChar

StartChar: uni0254
Encoding: 596 596 370
Width: 1020
GlyphClass: 1
Flags: W
LayerCount: 2
Fore
SplineSet
365 -20 m 0,0,1
 260 -20 260 -20 182 17.5 c 128,-1,2
 104 55 104 55 55.5 122 c 128,-1,3
 7 189 7 189 -10 276 c 1,4,-1
 213 343 l 1,5,6
 217 259 217 259 264.5 218 c 128,-1,7
 312 177 312 177 389 177 c 0,8,9
 483 177 483 177 554 228.5 c 128,-1,10
 625 280 625 280 672 362 c 128,-1,11
 719 444 719 444 740 539 c 0,12,13
 755 601 755 601 755 655 c 0,14,15
 755 713 755 713 736.5 759 c 128,-1,16
 718 805 718 805 676.5 831.5 c 128,-1,17
 635 858 635 858 569 858 c 0,18,19
 479 858 479 858 405.5 805.5 c 128,-1,20
 332 753 332 753 292 673 c 1,21,-1
 110 773 l 1,22,23
 195 917 195 917 320 986.5 c 128,-1,24
 445 1056 445 1056 584 1056 c 0,25,26
 714 1056 714 1056 799 1004 c 128,-1,27
 884 952 884 952 926 862 c 128,-1,28
 968 772 968 772 968 658 c 0,29,30
 968 490 968 490 886 322 c 128,-1,31
 804 154 804 154 639 53 c 0,32,33
 518 -20 518 -20 365 -20 c 0,0,1
EndSplineSet
EndChar

StartChar: uni0258
Encoding: 600 600 371
Width: 1080
GlyphClass: 1
Flags: W
LayerCount: 2
Fore
SplineSet
408 -12 m 0,0,1
 272 -12 272 -12 178.5 31.5 c 128,-1,2
 85 75 85 75 21 162 c 1,3,-1
 193 282 l 1,4,5
 231 227 231 227 286.5 206 c 128,-1,6
 342 185 342 185 435 185 c 0,7,8
 520 185 520 185 588 220.5 c 128,-1,9
 656 256 656 256 703 318 c 128,-1,10
 750 380 750 380 774 459 c 1,11,-1
 59 459 l 1,12,13
 59 495 59 495 69 534 c 0,14,15
 121 759 121 759 259 905.5 c 128,-1,16
 397 1052 397 1052 644 1052 c 0,17,18
 775 1052 775 1052 860.5 1000 c 128,-1,19
 946 948 946 948 988 858 c 128,-1,20
 1030 768 1030 768 1030 654 c 0,21,22
 1030 557 1030 557 998 448 c 128,-1,23
 966 339 966 339 897 240 c 0,24,25
 845 166 845 166 772.5 109.5 c 128,-1,26
 700 53 700 53 608.5 20.5 c 128,-1,27
 517 -12 517 -12 408 -12 c 0,0,1
303 601 m 1,28,-1
 814 619 l 1,29,30
 816 635 816 635 816 668 c 0,31,32
 816 869 816 869 631 869 c 0,33,34
 501 869 501 869 419 795 c 128,-1,35
 337 721 337 721 303 601 c 1,28,-1
EndSplineSet
EndChar

StartChar: uni0259
Encoding: 601 601 372
Width: 1071
GlyphClass: 1
Flags: W
LayerCount: 2
Fore
SplineSet
424 -12 m 0,0,1
 225 -12 225 -12 136.5 86 c 128,-1,2
 48 184 48 184 48 350 c 0,3,4
 48 477 48 477 89 600 c 1,5,-1
 802 600 l 1,6,7
 806 627 806 627 806 657 c 0,8,9
 806 747 806 747 757 801 c 128,-1,10
 708 855 708 855 603 855 c 0,11,12
 509 855 509 855 438.5 828 c 128,-1,13
 368 801 368 801 301 742 c 1,14,-1
 175 892 l 1,15,16
 274 975 274 975 381 1013.5 c 128,-1,17
 488 1052 488 1052 618 1052 c 0,18,19
 754 1052 754 1052 844 1001 c 128,-1,20
 934 950 934 950 978 860.5 c 128,-1,21
 1022 771 1022 771 1022 658 c 0,22,23
 1022 546 1022 546 988 441 c 0,24,25
 922 238 922 238 776 116 c 0,26,27
 624 -12 624 -12 424 -12 c 0,0,1
439 170 m 0,28,29
 554 170 554 170 637.5 246 c 128,-1,30
 721 322 721 322 762 440 c 1,31,-1
 251 421 l 1,32,33
 245 384 245 384 245 351 c 0,34,35
 245 170 245 170 439 170 c 0,28,29
EndSplineSet
EndChar

StartChar: uni02D0
Encoding: 720 720 377
Width: 536
GlyphClass: 1
Flags: W
LayerCount: 2
Fore
SplineSet
274 558 m 1,0,-1
 29 999 l 1,1,-1
 501 1011 l 1,2,-1
 274 558 l 1,0,-1
35 -12 m 1,3,-1
 262 441 l 1,4,-1
 507 0 l 1,5,-1
 35 -12 l 1,3,-1
EndSplineSet
EndChar

StartChar: uni02D1
Encoding: 721 721 378
Width: 548
GlyphClass: 1
Flags: W
LayerCount: 2
Fore
SplineSet
280 228 m 1,0,-1
 35 671 l 1,1,-1
 507 682 l 1,2,-1
 280 228 l 1,0,-1
EndSplineSet
EndChar

StartChar: uni02F5
Encoding: 757 757 385
Width: 1107
GlyphClass: 1
Flags: W
LayerCount: 2
Fore
SplineSet
602 680 m 1,0,-1
 431 680 l 1,1,-1
 212 998 l 1,2,-1
 453 998 l 1,3,-1
 602 680 l 1,0,-1
960 680 m 1,4,-1
 788 680 l 1,5,-1
 570 998 l 1,6,-1
 810 998 l 1,7,-1
 960 680 l 1,4,-1
EndSplineSet
EndChar

StartChar: uni02F6
Encoding: 758 758 386
Width: 1106
GlyphClass: 1
Flags: W
LayerCount: 2
Fore
SplineSet
259 680 m 1,0,-1
 90 680 l 1,1,-1
 386 998 l 1,2,-1
 600 998 l 1,3,-1
 259 680 l 1,0,-1
601 680 m 1,4,-1
 433 680 l 1,5,-1
 729 998 l 1,6,-1
 972 998 l 1,7,-1
 601 680 l 1,4,-1
EndSplineSet
EndChar

StartChar: gravecomb
Encoding: 768 768 387
Width: 0
GlyphClass: 4
Flags: W
AnchorPoint: "Anchor-1" -30 1053 mark 0
LayerCount: 2
Fore
SplineSet
95 1164 m 5,0,-1
 -71 1164 l 5,1,-1
 -293 1467 l 5,2,-1
 -58 1467 l 5,3,-1
 95 1164 l 5,0,-1
EndSplineSet
EndChar

StartChar: acutecomb
Encoding: 769 769 388
Width: 0
GlyphClass: 4
Flags: W
AnchorPoint: "Anchor-1" -228 1039 mark 0
LayerCount: 2
Fore
SplineSet
-182 1164 m 1,0,-1
 -352 1164 l 1,1,-1
 -61 1453 l 1,2,-1
 182 1453 l 1,3,-1
 -182 1164 l 1,0,-1
EndSplineSet
EndChar

StartChar: uni0302
Encoding: 770 770 389
Width: 0
GlyphClass: 4
Flags: W
AnchorPoint: "Anchor-1" -211 1039 mark 0
LayerCount: 2
Fore
SplineSet
112 1138 m 1,0,-1
 -62 1138 l 1,1,-1
 -165 1296 l 1,2,-1
 -342 1138 l 1,3,-1
 -528 1138 l 1,4,-1
 -128 1491 l 1,5,-1
 112 1138 l 1,0,-1
EndSplineSet
EndChar

StartChar: tildecomb
Encoding: 771 771 390
Width: 0
GlyphClass: 4
Flags: W
AnchorPoint: "Anchor-1" -277 1060 mark 0
LayerCount: 2
Fore
SplineSet
-112 1174 m 0,0,1
 -175 1174 -175 1174 -206.5 1200 c 128,-1,2
 -238 1226 -238 1226 -261 1269 c 0,3,4
 -277 1296 -277 1296 -290 1308.5 c 128,-1,5
 -303 1321 -303 1321 -321 1321 c 0,6,7
 -358 1321 -358 1321 -388 1281.5 c 128,-1,8
 -418 1242 -418 1242 -434 1184 c 1,9,-1
 -571 1184 l 1,10,11
 -540 1325 -540 1325 -475 1392 c 128,-1,12
 -410 1459 -410 1459 -324 1459 c 0,13,14
 -265 1459 -265 1459 -233 1433 c 128,-1,15
 -201 1407 -201 1407 -176 1364 c 0,16,17
 -160 1337 -160 1337 -147.5 1324.5 c 128,-1,18
 -135 1312 -135 1312 -118 1312 c 0,19,20
 -82 1312 -82 1312 -52 1352 c 128,-1,21
 -22 1392 -22 1392 -6 1453 c 1,22,-1
 138 1453 l 1,23,24
 105 1308 105 1308 40 1241 c 128,-1,25
 -25 1174 -25 1174 -112 1174 c 0,0,1
EndSplineSet
EndChar

StartChar: uni0304
Encoding: 772 772 391
Width: 0
GlyphClass: 4
Flags: W
AnchorPoint: "Anchor-1" -303 1039 mark 0
LayerCount: 2
Fore
SplineSet
5 1198 m 1,0,-1
 -548 1198 l 1,1,-1
 -516 1336 l 1,2,-1
 37 1336 l 1,3,-1
 5 1198 l 1,0,-1
EndSplineSet
EndChar

StartChar: uni0306
Encoding: 774 774 392
Width: 0
GlyphClass: 4
Flags: W
AnchorPoint: "Anchor-1" -291 1039 mark 0
LayerCount: 2
Fore
SplineSet
-248 1183 m 0,0,1
 -387 1183 -387 1183 -452.5 1237 c 128,-1,2
 -518 1291 -518 1291 -518 1380 c 0,3,4
 -518 1414 -518 1414 -509 1453 c 1,5,-1
 -353 1453 l 1,6,7
 -358 1428 -358 1428 -358 1413 c 0,8,9
 -358 1362 -358 1362 -326 1339.5 c 128,-1,10
 -294 1317 -294 1317 -243 1317 c 0,11,12
 -174 1317 -174 1317 -117.5 1355 c 128,-1,13
 -61 1393 -61 1393 -45 1453 c 1,14,-1
 112 1453 l 1,15,16
 83 1320 83 1320 -5 1251.5 c 128,-1,17
 -93 1183 -93 1183 -248 1183 c 0,0,1
EndSplineSet
EndChar

StartChar: uni0307
Encoding: 775 775 393
Width: 0
GlyphClass: 4
Flags: W
AnchorPoint: "Anchor-1" -141 1039 mark 0
LayerCount: 2
Fore
SplineSet
18 1238 m 1,0,-1
 -212 1238 l 1,1,-1
 -163 1453 l 1,2,-1
 67 1453 l 1,3,-1
 18 1238 l 1,0,-1
EndSplineSet
EndChar

StartChar: uni0308
Encoding: 776 776 394
Width: 0
GlyphClass: 4
Flags: W
AnchorPoint: "Anchor-1" -305 1039 mark 0
LayerCount: 2
Fore
SplineSet
-335 1238 m 1,0,-1
 -529 1238 l 1,1,-1
 -480 1453 l 1,2,-1
 -286 1453 l 1,3,-1
 -335 1238 l 1,0,-1
13 1238 m 1,4,-1
 -180 1238 l 1,5,-1
 -131 1453 l 1,6,-1
 63 1453 l 1,7,-1
 13 1238 l 1,4,-1
EndSplineSet
EndChar

StartChar: hookabovecomb
Encoding: 777 777 395
Width: 25
GlyphClass: 4
Flags: W
AnchorPoint: "Anchor-1" -204 1026 mark 0
LayerCount: 2
Fore
SplineSet
-345 1068 m 1,0,-1
 -369 1169 l 1,1,-1
 -350 1174 l 1,2,3
 -310 1179 -310 1179 -285.5 1186 c 128,-1,4
 -261 1193 -261 1193 -244.5 1209.5 c 128,-1,5
 -228 1226 -228 1226 -228 1256 c 0,6,7
 -228 1328 -228 1328 -342 1337 c 0,8,9
 -377 1341 -377 1341 -433 1341 c 1,10,-1
 -433 1487 l 1,11,-1
 -399 1487 l 2,12,13
 -301 1487 -301 1487 -225 1463 c 128,-1,14
 -149 1439 -149 1439 -105.5 1391 c 128,-1,15
 -62 1343 -62 1343 -62 1272 c 0,16,17
 -62 1145 -62 1145 -199 1101 c 0,18,19
 -255 1082 -255 1082 -345 1068 c 1,0,-1
EndSplineSet
EndChar

StartChar: uni030A
Encoding: 778 778 396
Width: 0
GlyphClass: 4
Flags: W
AnchorPoint: "Anchor-1" -201 1039 mark 0
LayerCount: 2
Fore
SplineSet
-171 1112 m 0,0,1
 -258 1112 -258 1112 -308 1167.5 c 128,-1,2
 -358 1223 -358 1223 -358 1297 c 0,3,4
 -358 1369 -358 1369 -320 1427.5 c 128,-1,5
 -282 1486 -282 1486 -222.5 1521 c 128,-1,6
 -163 1556 -163 1556 -97 1556 c 0,7,8
 -13 1556 -13 1556 39 1502 c 128,-1,9
 91 1448 91 1448 91 1371 c 0,10,11
 91 1298 91 1298 52.5 1239.5 c 128,-1,12
 14 1181 14 1181 -46 1146.5 c 128,-1,13
 -106 1112 -106 1112 -171 1112 c 0,0,1
-155 1234 m 0,14,15
 -101 1234 -101 1234 -66.5 1274 c 128,-1,16
 -32 1314 -32 1314 -32 1360 c 0,17,18
 -32 1399 -32 1399 -55 1418.5 c 128,-1,19
 -78 1438 -78 1438 -113 1438 c 0,20,21
 -170 1438 -170 1438 -202 1399.5 c 128,-1,22
 -234 1361 -234 1361 -234 1311 c 0,23,24
 -234 1273 -234 1273 -212.5 1253.5 c 128,-1,25
 -191 1234 -191 1234 -155 1234 c 0,14,15
EndSplineSet
EndChar

StartChar: uni030B
Encoding: 779 779 397
Width: 0
GlyphClass: 4
Flags: W
AnchorPoint: "Anchor-1" -432 1039 mark 0
LayerCount: 2
Fore
SplineSet
-528 1135 m 1,0,-1
 -697 1135 l 1,1,-1
 -401 1453 l 1,2,-1
 -187 1453 l 1,3,-1
 -528 1135 l 1,0,-1
-186 1135 m 1,4,-1
 -354 1135 l 1,5,-1
 -58 1453 l 1,6,-1
 185 1453 l 1,7,-1
 -186 1135 l 1,4,-1
EndSplineSet
EndChar

StartChar: uni030C
Encoding: 780 780 398
Width: 0
GlyphClass: 4
Flags: W
AnchorPoint: "Anchor-1" -213 1039 mark 0
LayerCount: 2
Fore
SplineSet
-207 1120 m 1,0,-1
 -452 1452 l 1,1,-1
 -276 1452 l 1,2,-1
 -174 1302 l 1,3,-1
 5 1452 l 1,4,-1
 189 1452 l 1,5,-1
 -207 1120 l 1,0,-1
EndSplineSet
EndChar

StartChar: uni030F
Encoding: 783 783 399
Width: 0
GlyphClass: 4
Flags: W
AnchorPoint: "Anchor-1" -227 1039 mark 0
LayerCount: 2
Fore
SplineSet
-268 1135 m 1,0,-1
 -439 1135 l 1,1,-1
 -658 1453 l 1,2,-1
 -417 1453 l 1,3,-1
 -268 1135 l 1,0,-1
90 1135 m 1,4,-1
 -82 1135 l 1,5,-1
 -300 1453 l 1,6,-1
 -60 1453 l 1,7,-1
 90 1135 l 1,4,-1
EndSplineSet
EndChar

StartChar: uni0312
Encoding: 786 786 400
Width: 0
GlyphClass: 4
Flags: W
AnchorPoint: "Anchor-1" -177 1039 mark 0
LayerCount: 2
Fore
SplineSet
-70 1161 m 1,0,-1
 -315 1161 l 1,1,-1
 7 1471 l 1,2,-1
 142 1471 l 1,3,-1
 -70 1161 l 1,0,-1
EndSplineSet
EndChar

StartChar: uni031B
Encoding: 795 795 401
Width: 25
GlyphClass: 1
Flags: W
LayerCount: 2
Fore
SplineSet
-398 977 m 1,0,-1
 -398 1132 l 1,1,2
 -317 1132 -317 1132 -278 1179.5 c 128,-1,3
 -239 1227 -239 1227 -239 1331 c 2,4,-1
 -239 1406 l 1,5,-1
 -76 1406 l 1,6,-1
 -76 1315 l 2,7,8
 -76 1161 -76 1161 -155 1069 c 128,-1,9
 -234 977 -234 977 -398 977 c 1,0,-1
EndSplineSet
EndChar

StartChar: dotbelowcomb
Encoding: 803 803 402
Width: 0
GlyphClass: 4
Flags: W
AnchorPoint: "Anchor-1" -471 -471 mark 0
LayerCount: 2
Fore
SplineSet
-172 -302 m 1,0,-1
 -402 -302 l 1,1,-1
 -353 -87 l 1,2,-1
 -123 -87 l 1,3,-1
 -172 -302 l 1,0,-1
EndSplineSet
EndChar

StartChar: uni0326
Encoding: 806 806 403
Width: 0
GlyphClass: 4
Flags: W
AnchorPoint: "Anchor-3" -465 -459 basemark 0
AnchorPoint: "Anchor-3" -291 0 mark 0
AnchorPoint: "Anchor-0" -291 0 mark 0
LayerCount: 2
Fore
SplineSet
-501 -455 m 1,0,-1
 -636 -455 l 1,1,-1
 -424 -108 l 1,2,-1
 -179 -108 l 1,3,-1
 -501 -455 l 1,0,-1
EndSplineSet
EndChar

StartChar: uni0327
Encoding: 807 807 404
Width: 0
GlyphClass: 4
Flags: W
AnchorPoint: "Anchor-3" -514 -500 basemark 0
AnchorPoint: "Anchor-3" -375 0 mark 0
AnchorPoint: "Anchor-0" -375 0 mark 0
LayerCount: 2
Fore
SplineSet
-523 -517 m 0,0,1
 -592 -517 -592 -517 -637.5 -477 c 128,-1,2
 -683 -437 -683 -437 -695 -380 c 1,3,-1
 -565 -343 l 1,4,5
 -564 -366 -564 -366 -549.5 -377.5 c 128,-1,6
 -535 -389 -535 -389 -513 -389 c 0,7,8
 -468 -389 -468 -389 -435 -359 c 0,9,10
 -395 -323 -395 -323 -388 -270 c 1,11,12
 -388 -237 -388 -237 -424 -213.5 c 128,-1,13
 -460 -190 -460 -190 -530 -190 c 2,14,-1
 -599 -190 l 1,15,-1
 -447 -2 l 1,16,-1
 -306 -2 l 1,17,-1
 -413 -107 l 1,18,19
 -335 -116 -335 -116 -297 -158.5 c 128,-1,20
 -259 -201 -259 -201 -259 -263 c 0,21,22
 -259 -328 -259 -328 -294 -386 c 128,-1,23
 -329 -444 -329 -444 -389 -480.5 c 128,-1,24
 -449 -517 -449 -517 -523 -517 c 0,0,1
EndSplineSet
EndChar

StartChar: uni0328
Encoding: 808 808 405
Width: 0
GlyphClass: 4
Flags: W
AnchorPoint: "Anchor-2" -263 0 mark 0
LayerCount: 2
Fore
SplineSet
-476 -451 m 0,0,1
 -559 -451 -559 -451 -610.5 -405 c 128,-1,2
 -662 -359 -662 -359 -662 -281 c 0,3,4
 -662 -185 -662 -185 -593 -110 c 0,5,6
 -544 -59 -544 -59 -498.5 -31.5 c 128,-1,7
 -453 -4 -453 -4 -429 4 c 1,8,-1
 -252 -3 l 1,9,10
 -279 -12 -279 -12 -336 -41 c 128,-1,11
 -393 -70 -393 -70 -451 -121 c 0,12,13
 -486 -153 -486 -153 -507 -192.5 c 128,-1,14
 -528 -232 -528 -232 -528 -266 c 0,15,16
 -528 -312 -528 -312 -476 -312 c 0,17,18
 -406 -312 -406 -312 -343 -246 c 1,19,-1
 -244 -339 l 1,20,21
 -342 -451 -342 -451 -476 -451 c 0,0,1
EndSplineSet
EndChar

StartChar: pi
Encoding: 960 960 406
Width: 1029
GlyphClass: 1
Flags: W
LayerCount: 2
Fore
SplineSet
749 -20 m 0,0,1
 656 -20 656 -20 608 36 c 128,-1,2
 560 92 560 92 560 176 c 0,3,4
 560 212 560 212 569 250 c 2,5,-1
 700 852 l 1,6,-1
 451 852 l 1,7,-1
 258 0 l 1,8,-1
 62 0 l 1,9,-1
 256 852 l 1,10,-1
 171 852 l 1,11,-1
 215 1039 l 1,12,-1
 1023 1039 l 1,13,-1
 978 852 l 1,14,-1
 893 852 l 1,15,-1
 758 250 l 2,16,17
 748 207 748 207 748 182 c 0,18,19
 748 143 748 143 776 143 c 0,20,21
 800 143 800 143 834 166 c 1,22,-1
 868 8 l 1,23,24
 818 -20 818 -20 749 -20 c 0,0,1
EndSplineSet
EndChar

StartChar: uni0402
Encoding: 1026 1026 409
Width: 1616
GlyphClass: 1
Flags: W
LayerCount: 2
Fore
SplineSet
1001 -19 m 0,0,1
 915 -19 915 -19 833.5 19.5 c 128,-1,2
 752 58 752 58 703 113 c 1,3,-1
 843 254 l 1,4,5
 895 190 895 190 994 190 c 0,6,7
 1106 190 1106 190 1189 257.5 c 128,-1,8
 1272 325 1272 325 1302 446 c 0,9,10
 1322 534 1322 534 1322 595 c 0,11,12
 1322 696 1322 696 1265 740.5 c 128,-1,13
 1208 785 1208 785 1090 785 c 0,14,15
 984 785 984 785 896.5 745.5 c 128,-1,16
 809 706 809 706 750 651 c 1,17,-1
 596 0 l 1,18,-1
 372 0 l 1,19,-1
 651 1215 l 1,20,-1
 198 1215 l 1,21,-1
 244 1412 l 1,22,-1
 1375 1412 l 1,23,-1
 1329 1215 l 1,24,-1
 876 1215 l 1,25,-1
 801 917 l 1,26,27
 954 1001 954 1001 1115 1001 c 0,28,29
 1338 1001 1338 1001 1441.5 900.5 c 128,-1,30
 1545 800 1545 800 1545 619 c 0,31,32
 1545 526 1545 526 1520 419 c 0,33,34
 1484 268 1484 268 1408.5 171 c 128,-1,35
 1333 74 1333 74 1228.5 27.5 c 128,-1,36
 1124 -19 1124 -19 1001 -19 c 0,0,1
EndSplineSet
Position2: "'cpsp' Capital Spacing lookup 0 per glyph data 0" dx=5 dy=0 dh=10 dv=0
EndChar

StartChar: uni0403
Encoding: 1027 1027 410
Width: 1069
GlyphClass: 1
Flags: W
LayerCount: 2
Fore
SplineSet
862 1537 m 1,0,-1
 699 1537 l 1,1,-1
 987 1825 l 1,2,-1
 1223 1825 l 1,3,-1
 862 1537 l 1,0,-1
302 0 m 1,4,-1
 78 0 l 1,5,-1
 403 1412 l 1,6,-1
 1245 1412 l 1,7,-1
 1198 1209 l 1,8,-1
 580 1209 l 1,9,-1
 302 0 l 1,4,-1
EndSplineSet
Position2: "'cpsp' Capital Spacing lookup 0 per glyph data 0" dx=5 dy=0 dh=10 dv=0
EndChar

StartChar: uni0404
Encoding: 1028 1028 411
Width: 1431
GlyphClass: 1
Flags: W
LayerCount: 2
Fore
SplineSet
657 -20 m 0,0,1
 475 -20 475 -20 356 47 c 128,-1,2
 237 114 237 114 179 232.5 c 128,-1,3
 121 351 121 351 121 504 c 0,4,5
 121 650 121 650 168 802.5 c 128,-1,6
 215 955 215 955 302 1084 c 0,7,8
 411 1245 411 1245 580.5 1340.5 c 128,-1,9
 750 1436 750 1436 965 1436 c 0,10,11
 1184 1436 1184 1436 1316 1327.5 c 128,-1,12
 1448 1219 1448 1219 1488 1030 c 1,13,-1
 1267 965 l 1,14,15
 1252 1224 1252 1224 940 1224 c 0,16,17
 803 1224 803 1224 694.5 1167.5 c 128,-1,18
 586 1111 586 1111 510.5 1015.5 c 128,-1,19
 435 920 435 920 394 798 c 1,20,-1
 981 807 l 1,21,-1
 936 610 l 1,22,-1
 347 601 l 1,23,24
 343 566 343 566 343 525 c 0,25,26
 343 368 343 368 425 279.5 c 128,-1,27
 507 191 507 191 680 191 c 0,28,29
 833 191 833 191 949.5 262 c 128,-1,30
 1066 333 1066 333 1151 472 c 1,31,-1
 1340 369 l 1,32,33
 1207 170 1207 170 1030 75 c 128,-1,34
 853 -20 853 -20 657 -20 c 0,0,1
EndSplineSet
Position2: "'cpsp' Capital Spacing lookup 0 per glyph data 0" dx=5 dy=0 dh=10 dv=0
EndChar

StartChar: uni0406
Encoding: 1030 1030 413
Width: 607
GlyphClass: 1
Flags: W
LayerCount: 2
Fore
SplineSet
301 0 m 1,0,-1
 77 0 l 1,1,-1
 402 1412 l 1,2,-1
 627 1412 l 1,3,-1
 301 0 l 1,0,-1
EndSplineSet
Position2: "'cpsp' Capital Spacing lookup 0 per glyph data 0" dx=5 dy=0 dh=10 dv=0
EndChar

StartChar: uni0407
Encoding: 1031 1031 414
Width: 605
GlyphClass: 1
Flags: W
LayerCount: 2
Fore
SplineSet
470 1576 m 1,0,-1
 281 1576 l 1,1,-1
 324 1762 l 1,2,-1
 513 1762 l 1,3,-1
 470 1576 l 1,0,-1
817 1576 m 1,4,-1
 628 1576 l 1,5,-1
 671 1762 l 1,6,-1
 860 1762 l 1,7,-1
 817 1576 l 1,4,-1
299 0 m 1,8,-1
 75 0 l 1,9,-1
 401 1412 l 1,10,-1
 625 1412 l 1,11,-1
 299 0 l 1,8,-1
EndSplineSet
Position2: "'cpsp' Capital Spacing lookup 0 per glyph data 0" dx=5 dy=0 dh=10 dv=0
EndChar

StartChar: uni0409
Encoding: 1033 1033 416
Width: 1957
GlyphClass: 1
Flags: W
LayerCount: 2
Fore
SplineSet
108 -20 m 0,0,1
 51 -20 51 -20 6 -5 c 128,-1,2
 -39 10 -39 10 -84 40 c 1,3,-1
 11 205 l 1,4,5
 70 186 70 186 114 186 c 0,6,7
 163 186 163 186 219 304 c 0,8,9
 327 535 327 535 409 899 c 2,10,-1
 527 1412 l 1,11,-1
 1421 1412 l 1,12,-1
 1282 810 l 1,13,-1
 1482 810 l 2,14,15
 1599 810 1599 810 1690.5 774.5 c 128,-1,16
 1782 739 1782 739 1834.5 668.5 c 128,-1,17
 1887 598 1887 598 1887 493 c 0,18,19
 1887 441 1887 441 1874 388 c 0,20,21
 1828 198 1828 198 1672.5 99 c 128,-1,22
 1517 0 1517 0 1307 0 c 2,23,-1
 873 0 l 1,24,-1
 1151 1209 l 1,25,-1
 703 1209 l 1,26,-1
 628 882 l 2,27,28
 570 626 570 626 511.5 442.5 c 128,-1,29
 453 259 453 259 352.5 119.5 c 128,-1,30
 252 -20 252 -20 108 -20 c 0,0,1
1341 207 m 2,31,32
 1479 207 1479 207 1559 266.5 c 128,-1,33
 1639 326 1639 326 1662 428 c 0,34,35
 1668 454 1668 454 1668 475 c 0,36,37
 1668 541 1668 541 1612.5 572 c 128,-1,38
 1557 603 1557 603 1445 603 c 2,39,-1
 1234 603 l 1,40,-1
 1142 207 l 1,41,-1
 1341 207 l 2,31,32
EndSplineSet
Position2: "'cpsp' Capital Spacing lookup 0 per glyph data 0" dx=5 dy=0 dh=10 dv=0
EndChar

StartChar: uni040A
Encoding: 1034 1034 417
Width: 2034
GlyphClass: 1
Flags: W
LayerCount: 2
Fore
SplineSet
1383 0 m 2,0,-1
 949 0 l 1,1,-1
 1088 605 l 1,2,-1
 439 605 l 1,3,-1
 301 0 l 1,4,-1
 77 0 l 1,5,-1
 402 1412 l 1,6,-1
 626 1412 l 1,7,-1
 486 808 l 1,8,-1
 1135 808 l 1,9,-1
 1275 1412 l 1,10,-1
 1499 1412 l 1,11,-1
 1360 810 l 1,12,-1
 1559 810 l 2,13,14
 1676 810 1676 810 1767.5 774.5 c 128,-1,15
 1859 739 1859 739 1911.5 668.5 c 128,-1,16
 1964 598 1964 598 1964 493 c 0,17,18
 1964 406 1964 406 1931 323 c 128,-1,19
 1898 240 1898 240 1843 179 c 0,20,21
 1759 88 1759 88 1639.5 44 c 128,-1,22
 1520 0 1520 0 1383 0 c 2,0,-1
1418 207 m 2,23,24
 1555 207 1555 207 1635 266.5 c 128,-1,25
 1715 326 1715 326 1738 428 c 0,26,27
 1744 454 1744 454 1744 475 c 0,28,29
 1744 603 1744 603 1535 603 c 2,30,-1
 1312 603 l 1,31,-1
 1220 207 l 1,32,-1
 1418 207 l 2,23,24
EndSplineSet
Position2: "'cpsp' Capital Spacing lookup 0 per glyph data 0" dx=5 dy=0 dh=10 dv=0
EndChar

StartChar: uni040B
Encoding: 1035 1035 418
Width: 1637
GlyphClass: 1
Flags: W
LayerCount: 2
Fore
SplineSet
1423 0 m 1,0,-1
 1199 0 l 1,1,-1
 1293 411 l 2,2,3
 1318 514 1318 514 1318 585 c 0,4,5
 1318 690 1318 690 1262 737.5 c 128,-1,6
 1206 785 1206 785 1090 785 c 0,7,8
 984 785 984 785 896.5 745.5 c 128,-1,9
 809 706 809 706 750 651 c 1,10,-1
 596 0 l 1,11,-1
 372 0 l 1,12,-1
 651 1215 l 1,13,-1
 198 1215 l 1,14,-1
 244 1412 l 1,15,-1
 1375 1412 l 1,16,-1
 1329 1215 l 1,17,-1
 876 1215 l 1,18,-1
 802 917 l 1,19,20
 947 1001 947 1001 1115 1001 c 0,21,22
 1332 1001 1332 1001 1437.5 897.5 c 128,-1,23
 1543 794 1543 794 1543 609 c 0,24,25
 1543 521 1543 521 1518 410 c 2,26,-1
 1423 0 l 1,0,-1
EndSplineSet
Position2: "'cpsp' Capital Spacing lookup 0 per glyph data 0" dx=5 dy=0 dh=10 dv=0
EndChar

StartChar: uni040C
Encoding: 1036 1036 419
Width: 1324
GlyphClass: 1
Flags: W
LayerCount: 2
Fore
SplineSet
933 1537 m 1,0,-1
 770 1537 l 1,1,-1
 1058 1825 l 1,2,-1
 1294 1825 l 1,3,-1
 933 1537 l 1,0,-1
1173 0 m 1,4,-1
 901 0 l 1,5,-1
 841 510 l 2,6,7
 834 573 834 573 799.5 624.5 c 128,-1,8
 765 676 765 676 695 676 c 2,9,-1
 456 676 l 1,10,-1
 302 0 l 1,11,-1
 78 0 l 1,12,-1
 403 1412 l 1,13,-1
 627 1412 l 1,14,-1
 504 882 l 1,15,-1
 657 882 l 1,16,-1
 1129 1412 l 1,17,-1
 1430 1412 l 1,18,-1
 867 828 l 1,19,20
 920 828 920 828 959 787.5 c 128,-1,21
 998 747 998 747 1020.5 695 c 128,-1,22
 1043 643 1043 643 1051 596 c 2,23,-1
 1173 0 l 1,4,-1
EndSplineSet
Position2: "'cpsp' Capital Spacing lookup 0 per glyph data 0" dx=5 dy=0 dh=10 dv=0
EndChar

StartChar: uni040D
Encoding: 1037 1037 420
Width: 1481
GlyphClass: 1
Flags: W
LayerCount: 2
Fore
SplineSet
1099 1523 m 1,0,-1
 938 1523 l 1,1,-1
 720 1825 l 1,2,-1
 948 1825 l 1,3,-1
 1099 1523 l 1,0,-1
1174 0 m 1,4,-1
 950 0 l 1,5,6
 1196 1068 1196 1068 1207 1113 c 1,7,-1
 345 0 l 1,8,-1
 78 0 l 1,9,-1
 403 1412 l 1,10,-1
 627 1412 l 1,11,12
 386 366 386 366 368 294 c 1,13,-1
 1233 1412 l 1,14,-1
 1500 1412 l 1,15,-1
 1174 0 l 1,4,-1
EndSplineSet
Position2: "'cpsp' Capital Spacing lookup 0 per glyph data 0" dx=5 dy=0 dh=10 dv=0
EndChar

StartChar: uni040E
Encoding: 1038 1038 421
Width: 1115
GlyphClass: 1
Flags: W
LayerCount: 2
Fore
SplineSet
804 1555 m 0,0,1
 668 1555 668 1555 601.5 1609 c 128,-1,2
 535 1663 535 1663 535 1752 c 0,3,4
 535 1782 535 1782 545 1825 c 1,5,-1
 697 1825 l 1,6,7
 692 1800 692 1800 692 1785 c 0,8,9
 692 1733 692 1733 725.5 1710 c 128,-1,10
 759 1687 759 1687 810 1687 c 0,11,12
 882 1687 882 1687 938 1726 c 128,-1,13
 994 1765 994 1765 1011 1825 c 1,14,-1
 1163 1825 l 1,15,16
 1104 1555 1104 1555 804 1555 c 0,0,1
357 0 m 1,17,-1
 117 0 l 1,18,-1
 418 457 l 1,19,-1
 243 1412 l 1,20,-1
 477 1412 l 1,21,-1
 590 700 l 1,22,-1
 1054 1412 l 1,23,-1
 1298 1412 l 1,24,-1
 357 0 l 1,17,-1
EndSplineSet
Position2: "'cpsp' Capital Spacing lookup 0 per glyph data 0" dx=5 dy=0 dh=10 dv=0
EndChar

StartChar: uni040F
Encoding: 1039 1039 422
Width: 1479
GlyphClass: 1
Flags: W
LayerCount: 2
Fore
SplineSet
665 -307 m 1,0,-1
 441 -307 l 1,1,-1
 513 0 l 1,2,-1
 77 0 l 1,3,-1
 402 1412 l 1,4,-1
 626 1412 l 1,5,-1
 347 203 l 1,6,-1
 995 203 l 1,7,-1
 1275 1412 l 1,8,-1
 1499 1412 l 1,9,-1
 1173 0 l 1,10,-1
 737 0 l 1,11,-1
 665 -307 l 1,0,-1
EndSplineSet
Position2: "'cpsp' Capital Spacing lookup 0 per glyph data 0" dx=5 dy=0 dh=10 dv=0
EndChar

StartChar: uni0410
Encoding: 1040 1040 423
Width: 1331
GlyphClass: 1
Flags: W
LayerCount: 2
Fore
SplineSet
1186 0 m 1,0,-1
 948 0 l 1,1,-1
 909 307 l 1,2,-1
 339 307 l 1,3,-1
 159 0 l 1,4,-1
 -89 0 l 1,5,-1
 791 1412 l 1,6,-1
 960 1412 l 1,7,-1
 1186 0 l 1,0,-1
880 502 m 1,8,-1
 806 1083 l 1,9,-1
 460 502 l 1,10,-1
 880 502 l 1,8,-1
EndSplineSet
Position2: "'cpsp' Capital Spacing lookup 0 per glyph data 0" dx=5 dy=0 dh=10 dv=0
EndChar

StartChar: uni0411
Encoding: 1041 1041 424
Width: 1267
GlyphClass: 1
Flags: W
LayerCount: 2
Fore
SplineSet
607 0 m 2,0,-1
 78 0 l 1,1,-1
 403 1412 l 1,2,-1
 1203 1412 l 1,3,-1
 1156 1209 l 1,4,-1
 580 1209 l 1,5,-1
 493 828 l 1,6,-1
 797 828 l 2,7,8
 924 828 924 828 1005 789 c 128,-1,9
 1086 750 1086 750 1124.5 680 c 128,-1,10
 1163 610 1163 610 1163 517 c 0,11,12
 1163 457 1163 457 1146 383 c 0,13,14
 1099 199 1099 199 946.5 99.5 c 128,-1,15
 794 0 794 0 607 0 c 2,0,-1
648 212 m 2,16,17
 751 212 751 212 831 272 c 128,-1,18
 911 332 911 332 941 446 c 0,19,20
 946 469 946 469 946 486 c 0,21,22
 946 551 946 551 894.5 591.5 c 128,-1,23
 843 632 843 632 751 632 c 2,24,-1
 446 632 l 1,25,-1
 350 212 l 1,26,-1
 648 212 l 2,16,17
EndSplineSet
Position2: "'cpsp' Capital Spacing lookup 0 per glyph data 0" dx=5 dy=0 dh=10 dv=0
EndChar

StartChar: uni0413
Encoding: 1043 1043 426
Width: 1069
GlyphClass: 1
Flags: W
LayerCount: 2
Fore
SplineSet
302 0 m 1,0,-1
 78 0 l 1,1,-1
 403 1412 l 1,2,-1
 1245 1412 l 1,3,-1
 1198 1209 l 1,4,-1
 580 1209 l 1,5,-1
 302 0 l 1,0,-1
EndSplineSet
Position2: "'cpsp' Capital Spacing lookup 0 per glyph data 0" dx=5 dy=0 dh=10 dv=0
EndChar

StartChar: uni0414
Encoding: 1044 1044 427
Width: 1463
GlyphClass: 2
Flags: W
LayerCount: 2
Fore
SplineSet
1201 -307 m 1,0,-1
 978 -307 l 1,1,-1
 1050 0 l 1,2,-1
 141 0 l 1,3,-1
 69 -306 l 1,4,-1
 -155 -307 l 1,5,-1
 -37 203 l 1,6,-1
 131 212 l 1,7,8
 354 529 354 529 438 910 c 2,9,-1
 554 1412 l 1,10,-1
 1448 1412 l 1,11,-1
 1168 203 l 1,12,-1
 1319 203 l 1,13,-1
 1201 -307 l 1,0,-1
367 194 m 1,14,-1
 945 203 l 1,15,-1
 1177 1209 l 1,16,-1
 730 1209 l 1,17,-1
 657 893 l 1,18,19
 566 471 566 471 367 194 c 1,14,-1
EndSplineSet
Substitution2: "'ss02' Style Set 2 lookup 16 subtable" uni0414.1
Substitution2: "'ss03' Style Set 3 lookup 15 subtable" uni0431.loclSRB
Substitution2: "'locl' Localized Forms in Cyrillic lookup 10 subtable" uni0414.1
Substitution2: "'locl' Localized Forms in Cyrillic lookup 9 subtable" uni0414.loclSRB
Substitution2: "'locl' Localized Forms in Cyrillic lookup 8 subtable" uni0431.loclSRB
AlternateSubs2: "'aalt' Access All Alternates lookup 1 subtable" uni0431.loclSRB uni0414.1
Position2: "'cpsp' Capital Spacing lookup 0 per glyph data 0" dx=5 dy=0 dh=10 dv=0
EndChar

StartChar: uni0416
Encoding: 1046 1046 429
Width: 2049
GlyphClass: 1
Flags: W
LayerCount: 2
Fore
SplineSet
1893 0 m 1,0,-1
 1621 0 l 1,1,-1
 1562 510 l 2,2,3
 1553 577 1553 577 1519 626.5 c 128,-1,4
 1485 676 1485 676 1416 676 c 2,5,-1
 1177 676 l 1,6,-1
 1022 0 l 1,7,-1
 798 0 l 1,8,-1
 953 676 l 1,9,-1
 729 676 l 2,10,11
 660 676 660 676 596.5 618.5 c 128,-1,12
 533 561 533 561 495 492 c 2,13,-1
 202 0 l 1,14,-1
 -77 0 l 1,15,-1
 320 614 l 2,16,17
 371 693 371 693 447.5 760.5 c 128,-1,18
 524 828 524 828 603 828 c 1,19,-1
 326 1412 l 1,20,-1
 617 1412 l 1,21,-1
 843 882 l 1,22,-1
 1000 882 l 1,23,-1
 1124 1412 l 1,24,-1
 1348 1412 l 1,25,-1
 1224 882 l 1,26,-1
 1377 882 l 1,27,-1
 1849 1412 l 1,28,-1
 2150 1412 l 1,29,-1
 1587 828 l 1,30,31
 1642 828 1642 828 1680.5 788.5 c 128,-1,32
 1719 749 1719 749 1741 695.5 c 128,-1,33
 1763 642 1763 642 1771 596 c 2,34,-1
 1893 0 l 1,0,-1
EndSplineSet
Position2: "'cpsp' Capital Spacing lookup 0 per glyph data 0" dx=5 dy=0 dh=10 dv=0
EndChar

StartChar: uni0417
Encoding: 1047 1047 430
Width: 1112
GlyphClass: 1
Flags: W
LayerCount: 2
Fore
SplineSet
402 -20 m 0,0,1
 258 -20 258 -20 145.5 37 c 128,-1,2
 33 94 33 94 -10 207 c 1,3,-1
 189 308 l 1,4,5
 206 236 206 236 267 206.5 c 128,-1,6
 328 177 328 177 422 177 c 0,7,8
 544 177 544 177 646.5 244 c 128,-1,9
 749 311 749 311 782 439 c 0,10,11
 788 466 788 466 788 491 c 0,12,13
 788 574 788 574 721 613.5 c 128,-1,14
 654 653 654 653 550 653 c 2,15,-1
 402 653 l 1,16,-1
 444 846 l 1,17,-1
 588 846 l 2,18,19
 681 846 681 846 759 901 c 128,-1,20
 837 956 837 956 863 1055 c 0,21,22
 868 1080 868 1080 868 1098 c 0,23,24
 868 1165 868 1165 819 1198.5 c 128,-1,25
 770 1232 770 1232 695 1232 c 0,26,27
 608 1232 608 1232 533 1187.5 c 128,-1,28
 458 1143 458 1143 428 1065 c 1,29,-1
 210 1084 l 1,30,31
 264 1256 264 1256 408 1345 c 128,-1,32
 552 1434 552 1434 714 1434 c 0,33,34
 814 1434 814 1434 897 1399 c 128,-1,35
 980 1364 980 1364 1030 1295.5 c 128,-1,36
 1080 1227 1080 1227 1080 1127 c 0,37,38
 1080 1069 1080 1069 1059 1000 c 128,-1,39
 1038 931 1038 931 990 870 c 0,40,41
 931 798 931 798 838 756 c 1,42,43
 909 731 909 731 957 666.5 c 128,-1,44
 1005 602 1005 602 1005 495 c 0,45,46
 1005 440 1005 440 991 383 c 0,47,48
 957 247 957 247 869 157.5 c 128,-1,49
 781 68 781 68 658 24 c 128,-1,50
 535 -20 535 -20 402 -20 c 0,0,1
EndSplineSet
Position2: "'cpsp' Capital Spacing lookup 0 per glyph data 0" dx=5 dy=0 dh=10 dv=0
EndChar

StartChar: uni0418
Encoding: 1048 1048 431
Width: 1445
GlyphClass: 1
Flags: W
LayerCount: 2
Fore
SplineSet
1138 0 m 1,0,-1
 921 0 l 1,1,-1
 1166 1066 l 1,2,-1
 323 0 l 1,3,-1
 78 0 l 1,4,-1
 403 1413 l 1,5,-1
 620 1413 l 1,6,-1
 375 349 l 1,7,-1
 1221 1413 l 1,8,-1
 1463 1413 l 1,9,-1
 1138 0 l 1,0,-1
EndSplineSet
Position2: "'cpsp' Capital Spacing lookup 0 per glyph data 0" dx=5 dy=0 dh=10 dv=0
EndChar

StartChar: uni0419
Encoding: 1049 1049 432
Width: 1481
GlyphClass: 1
Flags: W
LayerCount: 2
Fore
SplineSet
1014 1555 m 0,0,1
 878 1555 878 1555 811.5 1609 c 128,-1,2
 745 1663 745 1663 745 1752 c 0,3,4
 745 1782 745 1782 755 1825 c 1,5,-1
 907 1825 l 1,6,7
 902 1800 902 1800 902 1785 c 0,8,9
 902 1733 902 1733 935.5 1710 c 128,-1,10
 969 1687 969 1687 1020 1687 c 0,11,12
 1092 1687 1092 1687 1148 1726 c 128,-1,13
 1204 1765 1204 1765 1221 1825 c 1,14,-1
 1373 1825 l 1,15,16
 1314 1555 1314 1555 1014 1555 c 0,0,1
1174 0 m 1,17,-1
 950 0 l 1,18,19
 1196 1068 1196 1068 1207 1113 c 1,20,-1
 345 0 l 1,21,-1
 78 0 l 1,22,-1
 403 1412 l 1,23,-1
 627 1412 l 1,24,25
 386 366 386 366 368 294 c 1,26,-1
 1233 1412 l 1,27,-1
 1500 1412 l 1,28,-1
 1174 0 l 1,17,-1
EndSplineSet
Position2: "'cpsp' Capital Spacing lookup 0 per glyph data 0" dx=5 dy=0 dh=10 dv=0
EndChar

StartChar: uni041A
Encoding: 1050 1050 433
Width: 1324
GlyphClass: 1
Flags: W
LayerCount: 2
Fore
SplineSet
1173 0 m 1,0,-1
 901 0 l 1,1,-1
 841 510 l 2,2,3
 834 573 834 573 799.5 624.5 c 128,-1,4
 765 676 765 676 695 676 c 2,5,-1
 456 676 l 1,6,-1
 302 0 l 1,7,-1
 78 0 l 1,8,-1
 403 1412 l 1,9,-1
 627 1412 l 1,10,-1
 504 882 l 1,11,-1
 657 882 l 1,12,-1
 1129 1412 l 1,13,-1
 1430 1412 l 1,14,-1
 867 828 l 1,15,16
 920 828 920 828 959 787.5 c 128,-1,17
 998 747 998 747 1020.5 695 c 128,-1,18
 1043 643 1043 643 1051 596 c 2,19,-1
 1173 0 l 1,0,-1
EndSplineSet
Position2: "'cpsp' Capital Spacing lookup 0 per glyph data 0" dx=5 dy=0 dh=10 dv=0
EndChar

StartChar: uni041B
Encoding: 1051 1051 434
Width: 1408
GlyphClass: 2
Flags: W
LayerCount: 2
Fore
SplineSet
107 -20 m 0,0,1
 9 -20 9 -20 -80 40 c 1,2,-1
 26 225 l 1,3,4
 55 201 55 201 90 201 c 0,5,6
 164 201 164 201 227 318 c 0,7,8
 285 426 285 426 336 603.5 c 128,-1,9
 387 781 387 781 454 1074 c 2,10,-1
 532 1412 l 1,11,-1
 1426 1412 l 1,12,-1
 1101 0 l 1,13,-1
 878 0 l 1,14,-1
 1156 1209 l 1,15,-1
 708 1209 l 1,16,-1
 646 940 l 2,17,18
 573 623 573 623 513.5 433 c 128,-1,19
 454 243 454 243 354.5 111.5 c 128,-1,20
 255 -20 255 -20 107 -20 c 0,0,1
EndSplineSet
Substitution2: "'ss02' Style Set 2 lookup 16 subtable" uni041B.1
Substitution2: "'ss03' Style Set 3 lookup 15 subtable" uni0414.loclSRB
Substitution2: "'locl' Localized Forms in Cyrillic lookup 10 subtable" uni041B.1
Substitution2: "'locl' Localized Forms in Cyrillic lookup 9 subtable" uni041B.loclSRB
Substitution2: "'locl' Localized Forms in Cyrillic lookup 8 subtable" uni0414.loclSRB
AlternateSubs2: "'aalt' Access All Alternates lookup 1 subtable" uni0414.loclSRB uni041B.1
Position2: "'cpsp' Capital Spacing lookup 0 per glyph data 0" dx=5 dy=0 dh=10 dv=0
EndChar

StartChar: uni041F
Encoding: 1055 1055 438
Width: 1479
GlyphClass: 1
Flags: W
LayerCount: 2
Fore
SplineSet
1173 0 m 1,0,-1
 949 0 l 1,1,-1
 1227 1209 l 1,2,-1
 579 1209 l 1,3,-1
 301 0 l 1,4,-1
 77 0 l 1,5,-1
 402 1412 l 1,6,-1
 1499 1412 l 1,7,-1
 1173 0 l 1,0,-1
EndSplineSet
Position2: "'cpsp' Capital Spacing lookup 0 per glyph data 0" dx=5 dy=0 dh=10 dv=0
EndChar

StartChar: uni0420
Encoding: 1056 1056 439
Width: 1162
GlyphClass: 1
Flags: W
LayerCount: 2
Fore
SplineSet
300 0 m 1,0,-1
 77 0 l 1,1,-1
 402 1412 l 1,2,-1
 824 1412 l 2,3,4
 942 1412 942 1412 1033 1375.5 c 128,-1,5
 1124 1339 1124 1339 1176 1267.5 c 128,-1,6
 1228 1196 1228 1196 1228 1090 c 0,7,8
 1228 1037 1228 1037 1215 984 c 0,9,10
 1170 796 1170 796 1016 699 c 128,-1,11
 862 602 862 602 650 602 c 2,12,-1
 438 602 l 1,13,-1
 300 0 l 1,0,-1
685 809 m 2,14,15
 823 809 823 809 901.5 865.5 c 128,-1,16
 980 922 980 922 1003 1024 c 0,17,18
 1009 1050 1009 1050 1009 1072 c 0,19,20
 1009 1205 1009 1205 788 1205 c 2,21,-1
 577 1205 l 1,22,-1
 485 809 l 1,23,-1
 685 809 l 2,14,15
EndSplineSet
Position2: "'cpsp' Capital Spacing lookup 0 per glyph data 0" dx=5 dy=0 dh=10 dv=0
EndChar

StartChar: uni0421
Encoding: 1057 1057 440
Width: 1431
GlyphClass: 1
Flags: W
LayerCount: 2
Fore
SplineSet
657 -20 m 0,0,1
 475 -20 475 -20 356 47 c 128,-1,2
 237 114 237 114 179 232.5 c 128,-1,3
 121 351 121 351 121 504 c 0,4,5
 121 650 121 650 168 802.5 c 128,-1,6
 215 955 215 955 302 1084 c 0,7,8
 411 1245 411 1245 580.5 1340.5 c 128,-1,9
 750 1436 750 1436 965 1436 c 0,10,11
 1184 1436 1184 1436 1316 1327.5 c 128,-1,12
 1448 1219 1448 1219 1488 1030 c 1,13,-1
 1267 965 l 1,14,15
 1252 1224 1252 1224 940 1224 c 0,16,17
 784 1224 784 1224 667 1154 c 128,-1,18
 550 1084 550 1084 473.5 965 c 128,-1,19
 397 846 397 846 363 697 c 0,20,21
 341 600 341 600 341 522 c 0,22,23
 341 368 341 368 424 279.5 c 128,-1,24
 507 191 507 191 680 191 c 0,25,26
 833 191 833 191 949.5 262 c 128,-1,27
 1066 333 1066 333 1151 472 c 1,28,-1
 1340 369 l 1,29,30
 1207 170 1207 170 1030 75 c 128,-1,31
 853 -20 853 -20 657 -20 c 0,0,1
EndSplineSet
Position2: "'cpsp' Capital Spacing lookup 0 per glyph data 0" dx=5 dy=0 dh=10 dv=0
EndChar

StartChar: uni0422
Encoding: 1058 1058 441
Width: 1197
GlyphClass: 1
Flags: W
LayerCount: 2
Fore
SplineSet
595 0 m 1,0,-1
 372 0 l 1,1,-1
 651 1215 l 1,2,-1
 198 1215 l 1,3,-1
 244 1412 l 1,4,-1
 1375 1412 l 1,5,-1
 1329 1215 l 1,6,-1
 875 1215 l 1,7,-1
 595 0 l 1,0,-1
EndSplineSet
Position2: "'cpsp' Capital Spacing lookup 0 per glyph data 0" dx=5 dy=0 dh=10 dv=0
EndChar

StartChar: uni0423
Encoding: 1059 1059 442
Width: 1115
GlyphClass: 1
Flags: W
LayerCount: 2
Fore
SplineSet
357 0 m 1,0,-1
 117 0 l 1,1,-1
 418 457 l 1,2,-1
 243 1412 l 1,3,-1
 477 1412 l 1,4,-1
 590 700 l 1,5,-1
 1054 1412 l 1,6,-1
 1298 1412 l 1,7,-1
 357 0 l 1,0,-1
EndSplineSet
Position2: "'cpsp' Capital Spacing lookup 0 per glyph data 0" dx=5 dy=0 dh=10 dv=0
EndChar

StartChar: uni0424
Encoding: 1060 1060 443
Width: 1756
GlyphClass: 1
Flags: W
LayerCount: 2
Fore
SplineSet
876 0 m 1,0,-1
 650 0 l 1,1,-1
 681 106 l 1,2,3
 497 106 497 106 374 160 c 128,-1,4
 251 214 251 214 189 314 c 128,-1,5
 127 414 127 414 127 551 c 0,6,7
 127 628 127 628 149 725 c 0,8,9
 189 898 189 898 290.5 1029.5 c 128,-1,10
 392 1161 392 1161 556.5 1236 c 128,-1,11
 721 1311 721 1311 947 1311 c 1,12,-1
 977 1412 l 1,13,-1
 1201 1412 l 1,14,-1
 1171 1311 l 1,15,16
 1356 1311 1356 1311 1478.5 1256 c 128,-1,17
 1601 1201 1601 1201 1662.5 1099 c 128,-1,18
 1724 997 1724 997 1724 858 c 0,19,20
 1724 743 1724 743 1683.5 614.5 c 128,-1,21
 1643 486 1643 486 1559 378 c 0,22,23
 1459 252 1459 252 1296 179 c 128,-1,24
 1133 106 1133 106 905 106 c 1,25,-1
 876 0 l 1,0,-1
714 307 m 1,26,-1
 913 1111 l 1,27,28
 767 1111 767 1111 656.5 1058 c 128,-1,29
 546 1005 546 1005 474 909.5 c 128,-1,30
 402 814 402 814 373 685 c 0,31,32
 358 625 358 625 358 572 c 0,33,34
 358 449 358 449 444 378 c 128,-1,35
 530 307 530 307 714 307 c 1,26,-1
938 307 m 1,36,37
 1158 307 1158 307 1296 419 c 128,-1,38
 1434 531 1434 531 1480 725 c 0,39,40
 1493 781 1493 781 1493 834 c 0,41,42
 1493 918 1493 918 1455.5 980 c 128,-1,43
 1418 1042 1418 1042 1339.5 1076.5 c 128,-1,44
 1261 1111 1261 1111 1137 1111 c 1,45,-1
 938 307 l 1,36,37
EndSplineSet
Position2: "'cpsp' Capital Spacing lookup 0 per glyph data 0" dx=5 dy=0 dh=10 dv=0
EndChar

StartChar: uni0425
Encoding: 1061 1061 444
Width: 1320
GlyphClass: 1
Flags: W
LayerCount: 2
Fore
SplineSet
1161 0 m 1,0,-1
 900 0 l 1,1,-1
 675 549 l 1,2,-1
 196 0 l 1,3,-1
 -77 0 l 1,4,-1
 559 707 l 1,5,-1
 256 1413 l 1,6,-1
 519 1413 l 1,7,-1
 737 855 l 1,8,-1
 1220 1413 l 1,9,-1
 1490 1413 l 1,10,-1
 856 707 l 1,11,-1
 1161 0 l 1,0,-1
EndSplineSet
Position2: "'cpsp' Capital Spacing lookup 0 per glyph data 0" dx=5 dy=0 dh=10 dv=0
EndChar

StartChar: uni0426
Encoding: 1062 1062 445
Width: 1513
GlyphClass: 1
Flags: W
LayerCount: 2
Fore
SplineSet
1255 -290 m 1,0,-1
 1032 -290 l 1,1,-1
 1100 0 l 1,2,-1
 78 0 l 1,3,-1
 403 1412 l 1,4,-1
 627 1412 l 1,5,-1
 348 203 l 1,6,-1
 996 203 l 1,7,-1
 1276 1412 l 1,8,-1
 1500 1412 l 1,9,-1
 1220 203 l 1,10,-1
 1369 203 l 1,11,-1
 1255 -290 l 1,0,-1
EndSplineSet
Position2: "'cpsp' Capital Spacing lookup 0 per glyph data 0" dx=5 dy=0 dh=10 dv=0
EndChar

StartChar: uni0427
Encoding: 1063 1063 446
Width: 1343
GlyphClass: 1
Flags: W
LayerCount: 2
Fore
SplineSet
1036 0 m 1,0,-1
 812 0 l 1,1,-1
 930 495 l 1,2,3
 785 410 785 410 616 410 c 0,4,5
 400 410 400 410 295 512.5 c 128,-1,6
 190 615 190 615 190 799 c 0,7,8
 190 891 190 891 216 1001 c 2,9,-1
 310 1412 l 1,10,-1
 534 1412 l 1,11,-1
 438 1001 l 2,12,13
 415 900 415 900 415 827 c 0,14,15
 415 721 415 721 470.5 673.5 c 128,-1,16
 526 626 526 626 641 626 c 0,17,18
 748 626 748 626 835 665.5 c 128,-1,19
 922 705 922 705 983 761 c 1,20,-1
 1137 1412 l 1,21,-1
 1361 1412 l 1,22,-1
 1036 0 l 1,0,-1
EndSplineSet
Position2: "'cpsp' Capital Spacing lookup 0 per glyph data 0" dx=5 dy=0 dh=10 dv=0
EndChar

StartChar: uni0428
Encoding: 1064 1064 447
Width: 1786
GlyphClass: 1
Flags: W
LayerCount: 2
Fore
SplineSet
1479 0 m 1,0,-1
 78 0 l 1,1,-1
 403 1412 l 1,2,-1
 627 1412 l 1,3,-1
 348 203 l 1,4,-1
 712 203 l 1,5,-1
 991 1412 l 1,6,-1
 1215 1412 l 1,7,-1
 936 203 l 1,8,-1
 1302 203 l 1,9,-1
 1581 1412 l 1,10,-1
 1805 1412 l 1,11,-1
 1479 0 l 1,0,-1
EndSplineSet
Position2: "'cpsp' Capital Spacing lookup 0 per glyph data 0" dx=5 dy=0 dh=10 dv=0
EndChar

StartChar: uni0429
Encoding: 1065 1065 448
Width: 1817
GlyphClass: 1
Flags: W
LayerCount: 2
Fore
SplineSet
1560 -290 m 1,0,-1
 1336 -290 l 1,1,-1
 1404 0 l 1,2,-1
 77 0 l 1,3,-1
 402 1412 l 1,4,-1
 626 1412 l 1,5,-1
 347 203 l 1,6,-1
 711 203 l 1,7,-1
 990 1412 l 1,8,-1
 1214 1412 l 1,9,-1
 935 203 l 1,10,-1
 1300 203 l 1,11,-1
 1580 1412 l 1,12,-1
 1804 1412 l 1,13,-1
 1524 203 l 1,14,-1
 1673 203 l 1,15,-1
 1560 -290 l 1,0,-1
EndSplineSet
Position2: "'cpsp' Capital Spacing lookup 0 per glyph data 0" dx=5 dy=0 dh=10 dv=0
EndChar

StartChar: uni042A
Encoding: 1066 1066 449
Width: 1393
GlyphClass: 1
Flags: W
LayerCount: 2
Fore
SplineSet
743 0 m 2,0,-1
 309 0 l 1,1,-1
 589 1215 l 1,2,-1
 198 1215 l 1,3,-1
 244 1412 l 1,4,-1
 857 1412 l 1,5,-1
 718 810 l 1,6,-1
 918 810 l 2,7,8
 1036 810 1036 810 1127.5 774.5 c 128,-1,9
 1219 739 1219 739 1271.5 669 c 128,-1,10
 1324 599 1324 599 1324 493 c 0,11,12
 1324 406 1324 406 1291 323 c 128,-1,13
 1258 240 1258 240 1203 179 c 0,14,15
 1119 88 1119 88 999.5 44 c 128,-1,16
 880 0 880 0 743 0 c 2,0,-1
778 207 m 2,17,18
 915 207 915 207 995 266.5 c 128,-1,19
 1075 326 1075 326 1098 428 c 0,20,21
 1104 454 1104 454 1104 475 c 0,22,23
 1104 603 1104 603 895 603 c 2,24,-1
 670 603 l 1,25,-1
 578 207 l 1,26,-1
 778 207 l 2,17,18
EndSplineSet
Position2: "'cpsp' Capital Spacing lookup 0 per glyph data 0" dx=5 dy=0 dh=10 dv=0
EndChar

StartChar: uni042B
Encoding: 1067 1067 450
Width: 1708
GlyphClass: 1
Flags: W
LayerCount: 2
Fore
SplineSet
510 0 m 2,0,-1
 77 0 l 1,1,-1
 402 1412 l 1,2,-1
 625 1412 l 1,3,-1
 486 810 l 1,4,-1
 686 810 l 2,5,6
 804 810 804 810 895.5 774.5 c 128,-1,7
 987 739 987 739 1039.5 669 c 128,-1,8
 1092 599 1092 599 1092 493 c 0,9,10
 1092 406 1092 406 1059 323 c 128,-1,11
 1026 240 1026 240 971 179 c 0,12,13
 886 88 886 88 766.5 44 c 128,-1,14
 647 0 647 0 510 0 c 2,0,-1
1402 0 m 1,15,-1
 1178 0 l 1,16,-1
 1504 1412 l 1,17,-1
 1727 1412 l 1,18,-1
 1402 0 l 1,15,-1
545 207 m 2,19,20
 681 207 681 207 762 266.5 c 128,-1,21
 843 326 843 326 866 428 c 0,22,23
 872 454 872 454 872 474 c 0,24,25
 872 542 872 542 815.5 572.5 c 128,-1,26
 759 603 759 603 649 603 c 2,27,-1
 438 603 l 1,28,-1
 346 207 l 1,29,-1
 545 207 l 2,19,20
EndSplineSet
Position2: "'cpsp' Capital Spacing lookup 0 per glyph data 0" dx=5 dy=0 dh=10 dv=0
EndChar

StartChar: uni042C
Encoding: 1068 1068 451
Width: 1161
GlyphClass: 1
Flags: W
LayerCount: 2
Fore
SplineSet
510 0 m 2,0,-1
 77 0 l 1,1,-1
 402 1412 l 1,2,-1
 625 1412 l 1,3,-1
 486 810 l 1,4,-1
 686 810 l 2,5,6
 804 810 804 810 895.5 774.5 c 128,-1,7
 987 739 987 739 1039.5 669 c 128,-1,8
 1092 599 1092 599 1092 493 c 0,9,10
 1092 406 1092 406 1059 323 c 128,-1,11
 1026 240 1026 240 971 179 c 0,12,13
 886 88 886 88 766.5 44 c 128,-1,14
 647 0 647 0 510 0 c 2,0,-1
545 207 m 2,15,16
 681 207 681 207 762 266.5 c 128,-1,17
 843 326 843 326 866 428 c 0,18,19
 872 454 872 454 872 474 c 0,20,21
 872 542 872 542 815.5 572.5 c 128,-1,22
 759 603 759 603 649 603 c 2,23,-1
 438 603 l 1,24,-1
 346 207 l 1,25,-1
 545 207 l 2,15,16
EndSplineSet
Position2: "'cpsp' Capital Spacing lookup 0 per glyph data 0" dx=5 dy=0 dh=10 dv=0
EndChar

StartChar: uni042D
Encoding: 1069 1069 452
Width: 1428
GlyphClass: 1
Flags: W
LayerCount: 2
Fore
SplineSet
558 -20 m 0,0,1
 345 -20 345 -20 210 86.5 c 128,-1,2
 75 193 75 193 35 387 c 1,3,-1
 255 454 l 1,4,5
 275 319 275 319 353 255 c 128,-1,6
 431 191 431 191 581 191 c 0,7,8
 718 191 718 191 825.5 246.5 c 128,-1,9
 933 302 933 302 1009.5 398 c 128,-1,10
 1086 494 1086 494 1130 619 c 1,11,-1
 543 610 l 1,12,-1
 588 807 l 1,13,-1
 1178 816 l 1,14,15
 1183 861 1183 861 1183 895 c 0,16,17
 1183 1047 1183 1047 1101 1135.5 c 128,-1,18
 1019 1224 1019 1224 849 1224 c 0,19,20
 704 1224 704 1224 578.5 1158.5 c 128,-1,21
 453 1093 453 1093 376 947 c 1,22,-1
 186 1049 l 1,23,24
 321 1249 321 1249 498 1342.5 c 128,-1,25
 675 1436 675 1436 870 1436 c 0,26,27
 1051 1436 1051 1436 1169.5 1368.5 c 128,-1,28
 1288 1301 1288 1301 1346 1182 c 128,-1,29
 1404 1063 1404 1063 1404 910 c 0,30,31
 1404 770 1404 770 1358 618 c 128,-1,32
 1312 466 1312 466 1222 331 c 0,33,34
 1112 170 1112 170 942.5 75 c 128,-1,35
 773 -20 773 -20 558 -20 c 0,0,1
EndSplineSet
Position2: "'cpsp' Capital Spacing lookup 0 per glyph data 0" dx=5 dy=0 dh=10 dv=0
EndChar

StartChar: uni042E
Encoding: 1070 1070 453
Width: 1969
GlyphClass: 2
Flags: W
LayerCount: 2
Fore
SplineSet
1100 -20 m 0,0,1
 916 -20 916 -20 797.5 47.5 c 128,-1,2
 679 115 679 115 621.5 232 c 128,-1,3
 564 349 564 349 564 499 c 0,4,5
 564 552 564 552 572 614 c 1,6,-1
 439 605 l 1,7,-1
 301 0 l 1,8,-1
 77 0 l 1,9,-1
 402 1412 l 1,10,-1
 626 1412 l 1,11,-1
 486 808 l 1,12,-1
 617 817 l 1,13,14
 675 992 675 992 783 1131 c 128,-1,15
 891 1270 891 1270 1048 1352 c 128,-1,16
 1205 1434 1205 1434 1410 1434 c 0,17,18
 1595 1434 1595 1434 1713 1366 c 128,-1,19
 1831 1298 1831 1298 1888 1179 c 128,-1,20
 1945 1060 1945 1060 1945 909 c 0,21,22
 1945 778 1945 778 1901 624 c 128,-1,23
 1857 470 1857 470 1764 331 c 0,24,25
 1655 171 1655 171 1486 75.5 c 128,-1,26
 1317 -20 1317 -20 1100 -20 c 0,0,1
1120 180 m 0,27,28
 1274 180 1274 180 1392 254 c 0,29,30
 1513 332 1513 332 1587 455.5 c 128,-1,31
 1661 579 1661 579 1694 727 c 0,32,33
 1716 823 1716 823 1716 903 c 0,34,35
 1716 1054 1716 1054 1637 1143.5 c 128,-1,36
 1558 1233 1558 1233 1388 1233 c 0,37,38
 1235 1233 1235 1233 1118 1159 c 0,39,40
 998 1081 998 1081 924 958 c 128,-1,41
 850 835 850 835 817 687 c 0,42,43
 794 592 794 592 794 509 c 0,44,45
 794 358 794 358 873 269 c 128,-1,46
 952 180 952 180 1120 180 c 0,27,28
EndSplineSet
Substitution2: "'ss02' Style Set 2 lookup 16 subtable" uni042E.1
Substitution2: "'ss03' Style Set 3 lookup 15 subtable" uni041B.loclSRB
Substitution2: "'locl' Localized Forms in Cyrillic lookup 10 subtable" uni042E.1
Substitution2: "'locl' Localized Forms in Cyrillic lookup 8 subtable" uni041B.loclSRB
AlternateSubs2: "'aalt' Access All Alternates lookup 1 subtable" uni041B.loclSRB uni042E.1
Position2: "'cpsp' Capital Spacing lookup 0 per glyph data 0" dx=5 dy=0 dh=10 dv=0
EndChar

StartChar: uni042F
Encoding: 1071 1071 454
Width: 1248
GlyphClass: 1
Flags: W
LayerCount: 2
Fore
SplineSet
939 -2 m 1,0,-1
 715 -2 l 1,1,-1
 854 613 l 1,2,-1
 661 613 l 1,3,-1
 186 -2 l 1,4,-1
 -80 -2 l 1,5,-1
 449 633 l 1,6,7
 355 671 355 671 310 755.5 c 128,-1,8
 265 840 265 840 265 944 c 0,9,10
 265 998 265 998 277 1050 c 0,11,12
 321 1240 321 1240 469.5 1326.5 c 128,-1,13
 618 1413 618 1413 830 1413 c 2,14,-1
 1264 1413 l 1,15,-1
 939 -2 l 1,0,-1
897 801 m 1,16,-1
 991 1212 l 1,17,-1
 767 1212 l 2,18,19
 655 1212 655 1212 579 1163 c 128,-1,20
 503 1114 503 1114 480 1021 c 0,21,22
 473 993 473 993 473 966 c 0,23,24
 473 890 473 890 524.5 847.5 c 128,-1,25
 576 805 576 805 665 801 c 1,26,-1
 897 801 l 1,16,-1
EndSplineSet
Position2: "'cpsp' Capital Spacing lookup 0 per glyph data 0" dx=5 dy=0 dh=10 dv=0
EndChar

StartChar: uni0431
Encoding: 1073 1073 456
Width: 1250
GlyphClass: 1
Flags: W
LayerCount: 2
Fore
SplineSet
568 -20 m 0,0,1
 371 -20 371 -20 261.5 83.5 c 128,-1,2
 152 187 152 187 152 362 c 0,3,4
 152 432 152 432 170 513 c 2,5,-1
 222 733 l 2,6,7
 271 943 271 943 360.5 1059.5 c 128,-1,8
 450 1176 450 1176 555 1248 c 1,9,10
 681 1316 681 1316 831 1355.5 c 128,-1,11
 981 1395 981 1395 1194 1436 c 1,12,-1
 1157 1222 l 1,13,14
 939 1182 939 1182 784.5 1127.5 c 128,-1,15
 630 1073 630 1073 569 1029 c 0,16,17
 475 965 475 965 426 786 c 1,18,19
 500 863 500 863 605.5 911.5 c 128,-1,20
 711 960 711 960 834 960 c 0,21,22
 962 960 962 960 1043.5 916 c 128,-1,23
 1125 872 1125 872 1164 794.5 c 128,-1,24
 1203 717 1203 717 1203 617 c 0,25,26
 1203 518 1203 518 1169 416 c 128,-1,27
 1135 314 1135 314 1063 223 c 0,28,29
 975 114 975 114 847.5 47 c 128,-1,30
 720 -20 720 -20 568 -20 c 0,0,1
584 163 m 0,31,32
 680 163 680 163 756.5 207 c 128,-1,33
 833 251 833 251 884 325.5 c 128,-1,34
 935 400 935 400 957 494 c 0,35,36
 969 547 969 547 970 591 c 0,37,38
 970 776 970 776 758 776 c 0,39,40
 662 776 662 776 585 728 c 128,-1,41
 508 680 508 680 456.5 607 c 128,-1,42
 405 534 405 534 386 454 c 0,43,44
 373 400 373 400 373 352 c 0,45,46
 373 266 373 266 423 214.5 c 128,-1,47
 473 163 473 163 584 163 c 0,31,32
EndSplineSet
EndChar

StartChar: uni0432
Encoding: 1074 1074 457
Width: 1103
GlyphClass: 2
Flags: W
LayerCount: 2
Fore
SplineSet
488 0 m 2,0,-1
 35 0 l 1,1,-1
 274 1039 l 1,2,-1
 713 1039 l 2,3,4
 874 1039 874 1039 962 991.5 c 128,-1,5
 1050 944 1050 944 1050 824 c 0,6,7
 1050 766 1050 766 1031.5 707 c 128,-1,8
 1013 648 1013 648 968.5 603.5 c 128,-1,9
 924 559 924 559 848 538 c 1,10,11
 911 530 911 530 949 485.5 c 128,-1,12
 987 441 987 441 987 360 c 0,13,14
 987 319 987 319 976 275 c 0,15,16
 944 124 944 124 827 62 c 128,-1,17
 710 0 710 0 488 0 c 2,0,-1
648 626 m 2,18,19
 726 626 726 626 772 661 c 0,20,21
 833 707 833 707 833 775 c 0,22,23
 833 811 833 811 802 826.5 c 128,-1,24
 771 842 771 842 703 842 c 2,25,-1
 448 842 l 1,26,-1
 402 626 l 1,27,-1
 648 626 l 2,18,19
545 198 m 2,28,29
 630 198 630 198 679.5 219.5 c 128,-1,30
 729 241 729 241 749.5 276 c 128,-1,31
 770 311 770 311 770 351 c 0,32,33
 770 400 770 400 734 418.5 c 128,-1,34
 698 437 698 437 610 437 c 2,35,-1
 356 437 l 1,36,-1
 304 198 l 1,37,-1
 545 198 l 2,28,29
EndSplineSet
Substitution2: "'ss02' Style Set 2 lookup 16 subtable" uni0432.1
Substitution2: "'ss03' Style Set 3 lookup 15 subtable" uni0432.loclSRB
Substitution2: "'locl' Localized Forms in Cyrillic lookup 10 subtable" uni0432.1
Substitution2: "'locl' Localized Forms in Cyrillic lookup 9 subtable" uni0432.loclSRB
Substitution2: "'locl' Localized Forms in Cyrillic lookup 8 subtable" uni0432.loclSRB
AlternateSubs2: "'aalt' Access All Alternates lookup 1 subtable" uni0432.loclSRB uni0432.1
EndChar

StartChar: uni0433
Encoding: 1075 1075 458
Width: 820
GlyphClass: 2
Flags: W
LayerCount: 2
Fore
SplineSet
261 0 m 1,0,-1
 35 0 l 1,1,-1
 274 1039 l 1,2,-1
 931 1039 l 1,3,-1
 893 877 l 1,4,-1
 462 877 l 1,5,-1
 261 0 l 1,0,-1
EndSplineSet
Substitution2: "'ss02' Style Set 2 lookup 16 subtable" uni0433.1
Substitution2: "'ss03' Style Set 3 lookup 15 subtable" uni0433.loclSRB
Substitution2: "'locl' Localized Forms in Cyrillic lookup 10 subtable" uni0433.1
Substitution2: "'locl' Localized Forms in Cyrillic lookup 9 subtable" uni0433.loclSRB
Substitution2: "'locl' Localized Forms in Cyrillic lookup 8 subtable" uni0433.loclSRB
AlternateSubs2: "'aalt' Access All Alternates lookup 1 subtable" uni0433.loclSRB uni0433.1
EndChar

StartChar: uni0434
Encoding: 1076 1076 459
Width: 1246
GlyphClass: 2
Flags: W
LayerCount: 2
Fore
SplineSet
991 -307 m 1,0,-1
 765 -307 l 1,1,-1
 840 0 l 1,2,-1
 113 0 l 1,3,-1
 38 -307 l 1,4,-1
 -187 -307 l 1,5,-1
 -75 163 l 1,6,-1
 63 170 l 1,7,8
 220 309 220 309 296 646 c 2,9,-1
 386 1039 l 1,10,-1
 1168 1039 l 1,11,-1
 967 163 l 1,12,-1
 1103 163 l 1,13,-1
 991 -307 l 1,0,-1
300 156 m 1,14,-1
 742 163 l 1,15,-1
 905 877 l 1,16,-1
 574 877 l 1,17,-1
 519 635 l 2,18,19
 482 472 482 472 432 351 c 128,-1,20
 382 230 382 230 300 156 c 1,14,-1
EndSplineSet
Substitution2: "'ss02' Style Set 2 lookup 16 subtable" uni0434.1
Substitution2: "'ss03' Style Set 3 lookup 15 subtable" uni0434.loclSRB
Substitution2: "'locl' Localized Forms in Cyrillic lookup 10 subtable" uni0434.1
Substitution2: "'locl' Localized Forms in Cyrillic lookup 9 subtable" uni0434.loclSRB
Substitution2: "'locl' Localized Forms in Cyrillic lookup 8 subtable" uni0434.loclSRB
AlternateSubs2: "'aalt' Access All Alternates lookup 1 subtable" uni0434.loclSRB uni0434.1
EndChar

StartChar: uni0435
Encoding: 1077 1077 460
Width: 1079
GlyphClass: 1
Flags: W
LayerCount: 2
Fore
SplineSet
457 -12 m 0,0,1
 321 -12 321 -12 231.5 39 c 128,-1,2
 142 90 142 90 98.5 178.5 c 128,-1,3
 55 267 55 267 55 381 c 0,4,5
 55 505 55 505 97.5 624.5 c 128,-1,6
 140 744 140 744 218.5 840.5 c 128,-1,7
 297 937 297 937 407 994.5 c 128,-1,8
 517 1052 517 1052 652 1052 c 0,9,10
 851 1052 851 1052 941 951.5 c 128,-1,11
 1031 851 1031 851 1031 686 c 0,12,13
 1031 565 1031 565 990 439 c 1,14,-1
 275 439 l 1,15,16
 271 412 271 412 271 381 c 0,17,18
 271 293 271 293 319.5 239 c 128,-1,19
 368 185 368 185 474 185 c 0,20,21
 571 185 571 185 641 212 c 128,-1,22
 711 239 711 239 774 296 c 1,23,-1
 903 147 l 1,24,25
 720 -12 720 -12 457 -12 c 0,0,1
825 598 m 1,26,27
 831 642 831 642 832 677 c 0,28,29
 832 779 832 779 783 824 c 128,-1,30
 734 869 734 869 637 869 c 0,31,32
 557 869 557 869 494 833.5 c 128,-1,33
 431 798 431 798 386.5 736.5 c 128,-1,34
 342 675 342 675 316 598 c 1,35,-1
 825 598 l 1,26,27
EndSplineSet
EndChar

StartChar: uni0436
Encoding: 1078 1078 461
Width: 1560
GlyphClass: 2
Flags: W
LayerCount: 2
Fore
SplineSet
1415 0 m 1,0,-1
 1156 0 l 1,1,-1
 1118 381 l 2,2,3
 1110 443 1110 443 1083 470.5 c 128,-1,4
 1056 498 1056 498 1002 498 c 2,5,-1
 885 498 l 1,6,-1
 772 0 l 1,7,-1
 548 0 l 1,8,-1
 661 498 l 1,9,-1
 558 498 l 2,10,11
 449 498 449 498 378 361 c 1,12,-1
 167 0 l 1,13,-1
 -100 0 l 1,14,-1
 188 475 l 2,15,16
 229 536 229 536 284 583 c 128,-1,17
 339 630 339 630 393 630 c 1,18,-1
 202 1039 l 1,19,-1
 458 1039 l 1,20,-1
 610 661 l 1,21,-1
 701 661 l 1,22,-1
 787 1039 l 1,23,-1
 1010 1039 l 1,24,-1
 924 661 l 1,25,-1
 1010 661 l 1,26,-1
 1335 1039 l 1,27,-1
 1603 1039 l 1,28,-1
 1207 630 l 1,29,30
 1259 630 1259 630 1293.5 574 c 128,-1,31
 1328 518 1328 518 1340 455 c 2,32,-1
 1415 0 l 1,0,-1
EndSplineSet
Substitution2: "'ss02' Style Set 2 lookup 16 subtable" uni0436.1
Substitution2: "'ss03' Style Set 3 lookup 15 subtable" uni0436.loclSRB
Substitution2: "'locl' Localized Forms in Cyrillic lookup 10 subtable" uni0436.1
Substitution2: "'locl' Localized Forms in Cyrillic lookup 9 subtable" uni0436.loclSRB
Substitution2: "'locl' Localized Forms in Cyrillic lookup 8 subtable" uni0436.loclSRB
AlternateSubs2: "'aalt' Access All Alternates lookup 1 subtable" uni0436.loclSRB uni0436.1
EndChar

StartChar: uni0437
Encoding: 1079 1079 462
Width: 1029
GlyphClass: 2
Flags: W
LayerCount: 2
Fore
SplineSet
364 -20 m 0,0,1
 232 -20 232 -20 125 40 c 128,-1,2
 18 100 18 100 -29 216 c 1,3,-1
 183 342 l 1,4,5
 193 258 193 258 251 216.5 c 128,-1,6
 309 175 309 175 384 175 c 0,7,8
 523 175 523 175 595 213 c 128,-1,9
 667 251 667 251 682 328 c 0,10,11
 687 349 687 349 687 370 c 0,12,13
 687 408 687 408 652.5 422 c 128,-1,14
 618 436 618 436 514 436 c 2,15,-1
 390 436 l 1,16,-1
 436 624 l 1,17,-1
 556 625 l 2,18,19
 721 628 721 628 749 769 c 0,20,21
 752 781 752 781 752 790 c 0,22,23
 752 854 752 854 598 854 c 2,24,-1
 583 854 l 2,25,26
 516 854 516 854 436.5 814 c 128,-1,27
 357 774 357 774 289 688 c 1,28,-1
 103 820 l 1,29,30
 186 911 186 911 265 961.5 c 128,-1,31
 344 1012 344 1012 425.5 1032 c 128,-1,32
 507 1052 507 1052 597 1052 c 0,33,34
 966 1052 966 1052 966 823 c 2,35,-1
 966 822 l 2,36,37
 966 767 966 767 947.5 709.5 c 128,-1,38
 929 652 929 652 889 613 c 0,39,40
 839 564 839 564 737 536 c 1,41,42
 811 525 811 525 855.5 479.5 c 128,-1,43
 900 434 900 434 900 351 c 0,44,45
 900 317 900 317 891 276 c 0,46,47
 855 115 855 115 718.5 47.5 c 128,-1,48
 582 -20 582 -20 364 -20 c 0,0,1
EndSplineSet
Substitution2: "'ss02' Style Set 2 lookup 16 subtable" uni0437.1
Substitution2: "'ss03' Style Set 3 lookup 15 subtable" uni0437.loclSRB
Substitution2: "'locl' Localized Forms in Cyrillic lookup 10 subtable" uni0437.1
Substitution2: "'locl' Localized Forms in Cyrillic lookup 9 subtable" uni0437.loclSRB
Substitution2: "'locl' Localized Forms in Cyrillic lookup 8 subtable" uni0437.loclSRB
AlternateSubs2: "'aalt' Access All Alternates lookup 1 subtable" uni0437.loclSRB uni0437.1
EndChar

StartChar: uni0438
Encoding: 1080 1080 463
Width: 1231
GlyphClass: 2
Flags: W
LayerCount: 2
Fore
SplineSet
953 0 m 1,0,-1
 728 0 l 1,1,-1
 866 606 l 2,2,3
 885 681 885 681 906 733 c 1,4,-1
 292 0 l 1,5,-1
 43 0 l 1,6,-1
 281 1039 l 1,7,-1
 506 1039 l 1,8,-1
 368 434 l 2,9,10
 350 363 350 363 329 306 c 1,11,-1
 943 1039 l 1,12,-1
 1192 1039 l 1,13,-1
 953 0 l 1,0,-1
EndSplineSet
Substitution2: "'ss02' Style Set 2 lookup 16 subtable" uni0438.1
Substitution2: "'ss03' Style Set 3 lookup 15 subtable" uni0438.loclSRB
Substitution2: "'locl' Localized Forms in Cyrillic lookup 10 subtable" uni0438.1
Substitution2: "'locl' Localized Forms in Cyrillic lookup 9 subtable" uni0438.loclSRB
Substitution2: "'locl' Localized Forms in Cyrillic lookup 8 subtable" uni0438.loclSRB
AlternateSubs2: "'aalt' Access All Alternates lookup 1 subtable" uni0438.loclSRB uni0438.1
EndChar

StartChar: uni0439
Encoding: 1081 1081 464
Width: 1218
GlyphClass: 2
Flags: W
LayerCount: 2
Fore
SplineSet
781 1143 m 0,0,1
 641 1143 641 1143 573.5 1197.5 c 128,-1,2
 506 1252 506 1252 506 1342 c 0,3,4
 506 1375 506 1375 515 1413 c 1,5,-1
 669 1413 l 1,6,7
 664 1388 664 1388 663 1372 c 0,8,9
 663 1320 663 1320 697.5 1297 c 128,-1,10
 732 1274 732 1274 784 1274 c 0,11,12
 862 1274 862 1274 920 1314.5 c 128,-1,13
 978 1355 978 1355 994 1413 c 1,14,-1
 1147 1413 l 1,15,16
 1086 1143 1086 1143 781 1143 c 0,0,1
946 0 m 1,17,-1
 722 0 l 1,18,-1
 860 583 l 2,19,20
 879 655 879 655 900 705 c 1,21,-1
 292 0 l 1,22,-1
 43 0 l 1,23,-1
 281 999 l 1,24,-1
 506 999 l 1,25,-1
 368 417 l 2,26,27
 350 349 350 349 329 294 c 1,28,-1
 937 999 l 1,29,-1
 1179 999 l 1,30,-1
 946 0 l 1,17,-1
EndSplineSet
Substitution2: "'ss02' Style Set 2 lookup 16 subtable" uni0439.1
Substitution2: "'ss03' Style Set 3 lookup 15 subtable" uni0439.loclSRB
Substitution2: "'locl' Localized Forms in Cyrillic lookup 10 subtable" uni0439.1
Substitution2: "'locl' Localized Forms in Cyrillic lookup 9 subtable" uni0439.loclSRB
AlternateSubs2: "'aalt' Access All Alternates lookup 1 subtable" uni0439.loclSRB uni0439.1
EndChar

StartChar: uni043A
Encoding: 1082 1082 465
Width: 1056
GlyphClass: 2
Flags: W
LayerCount: 2
Fore
SplineSet
909 0 m 1,0,-1
 650 0 l 1,1,-1
 612 381 l 2,2,3
 605 443 605 443 577.5 470.5 c 128,-1,4
 550 498 550 498 496 498 c 2,5,-1
 380 498 l 1,6,-1
 265 0 l 1,7,-1
 43 0 l 1,8,-1
 281 1039 l 1,9,-1
 504 1039 l 1,10,-1
 418 661 l 1,11,-1
 504 661 l 1,12,-1
 830 1039 l 1,13,-1
 1097 1039 l 1,14,-1
 702 630 l 1,15,16
 754 630 754 630 788 574.5 c 128,-1,17
 822 519 822 519 834 455 c 2,18,-1
 909 0 l 1,0,-1
EndSplineSet
Substitution2: "'ss02' Style Set 2 lookup 16 subtable" uni043A.1
Substitution2: "'ss03' Style Set 3 lookup 15 subtable" uni043A.loclSRB
Substitution2: "'locl' Localized Forms in Cyrillic lookup 10 subtable" uni043A.1
Substitution2: "'locl' Localized Forms in Cyrillic lookup 9 subtable" uni043A.loclSRB
Substitution2: "'locl' Localized Forms in Cyrillic lookup 8 subtable" uni043A.loclSRB
AlternateSubs2: "'aalt' Access All Alternates lookup 1 subtable" uni043A.loclSRB uni043A.1
EndChar

StartChar: uni043B
Encoding: 1083 1083 466
Width: 1166
GlyphClass: 2
Flags: W
LayerCount: 2
Fore
SplineSet
90 -21 m 0,0,1
 -12 -21 -12 -21 -119 34 c 1,2,-1
 -33 169 l 1,3,4
 2 150 2 150 30 150 c 0,5,6
 104 150 104 150 156 271 c 128,-1,7
 208 392 208 392 265 646 c 2,8,-1
 355 1039 l 1,9,-1
 1121 1039 l 1,10,-1
 883 0 l 1,11,-1
 657 0 l 1,12,-1
 858 877 l 1,13,-1
 542 877 l 1,14,-1
 464 541 l 2,15,16
 415 332 415 332 361 208.5 c 128,-1,17
 307 85 307 85 240.5 32 c 128,-1,18
 174 -21 174 -21 90 -21 c 0,0,1
EndSplineSet
Substitution2: "'ss02' Style Set 2 lookup 16 subtable" uni043B.1
Substitution2: "'ss03' Style Set 3 lookup 15 subtable" uni043B.loclSRB
Substitution2: "'locl' Localized Forms in Cyrillic lookup 10 subtable" uni043B.1
Substitution2: "'locl' Localized Forms in Cyrillic lookup 9 subtable" uni043B.loclSRB
Substitution2: "'locl' Localized Forms in Cyrillic lookup 8 subtable" uni043B.loclSRB
AlternateSubs2: "'aalt' Access All Alternates lookup 1 subtable" uni043B.loclSRB uni043B.1
EndChar

StartChar: uni043C
Encoding: 1084 1084 467
Width: 1507
GlyphClass: 1
Flags: W
LayerCount: 2
Fore
SplineSet
1229 0 m 1,0,-1
 1022 0 l 1,1,-1
 1197 753 l 1,2,-1
 722 0 l 1,3,-1
 556 0 l 1,4,-1
 425 751 l 1,5,-1
 251 0 l 1,6,-1
 43 0 l 1,7,-1
 281 1039 l 1,8,-1
 565 1039 l 1,9,-1
 695 268 l 1,10,-1
 1180 1040 l 1,11,-1
 1470 1040 l 1,12,-1
 1229 0 l 1,0,-1
EndSplineSet
EndChar

